<svg xmlns="http://www.w3.org/2000/svg" xmlns:xlink="http://www.w3.org/1999/xlink" viewBox="0 0 363 363"><defs><style>.cls-1,.cls-17{fill:none;}.cls-2{clip-path:url(#clip-path);}.cls-3{fill:#f37a67;}.cls-4{fill:#e46657;}.cls-5{fill:#e13e43;}.cls-6{fill:#040000;}.cls-7{fill:#f69779;}.cls-8{fill:#380a06;}.cls-9{fill:#4d140d;}.cls-10{fill:#000102;}.cls-11{fill:#f27964;}.cls-12{fill:#db6856;}.cls-13{fill:#ee7665;}.cls-14{fill:#f27968;}.cls-15{fill:#000309;}.cls-16{fill:#e35748;}.cls-17{stroke:#002941;stroke-miterlimit:10;stroke-width:3px;}</style><clipPath id="clip-path"><circle class="cls-1" cx="181.36" cy="181.5" r="180"/></clipPath></defs><title>Asset 1</title><g id="Layer_2" data-name="Layer 2"><g id="Layer_2-2" data-name="Layer 2"><g class="cls-2"><path class="cls-3" d="M126.94,300,110.33,211.6h0a18.12,18.12,0,1,1,5.37-35.77H253.13a18.12,18.12,0,1,1,6,35.7v0l-.07.1-17.88,89.55c.19-.13.58,60.79.58,60.79H127v-61.7"/><path class="cls-4" d="M149.94,307.57a39.41,39.41,0,0,1-22.45-7,28.84,28.84,0,0,0,28.34,23.61H213a28.84,28.84,0,0,0,28.24-23,39.31,39.31,0,0,1-21.59,6.42Z"/><path class="cls-5" d="M110.4,186a7.56,7.56,0,0,0,0,15.11V186Z"/><path class="cls-5" d="M259.17,200.94a7.55,7.55,0,0,0,0-14.8v14.8Z"/><path class="cls-6" d="M277.64,133.78a38.44,38.44,0,0,0-30.73-37.66,45.68,45.68,0,0,1-8.18,15.8h0l-117-.76-.45,1.22c.15-.84.23-1.33.23-1.33h0c-.13,0-14.41-3.4-18.73-8.74a38.41,38.41,0,0,0-5.39,60.42,23.53,23.53,0,0,0,13,30v64.46l.07.06V268A39.47,39.47,0,0,0,127,300.24l.47.34a39.41,39.41,0,0,0,22.45,7h69.69a39.31,39.31,0,0,0,21.59-6.42l.58-.38A39.5,39.5,0,0,0,259.17,268V226.5c0,.77,0,1.54-.07,2.3V189.19a23.54,23.54,0,0,0,6.66-27.64A38.27,38.27,0,0,0,277.64,133.78Z"/><path class="cls-7" d="M248.46,219.9c.44,0,.14-26.65.14-27.11v-9.06a5.28,5.28,0,0,1,4.53-5.23V154.28c0-1.74-.07-3.47-.2-5.17-1-13.92-6.1-27.57-14.19-38L131,111.05a68.28,68.28,0,0,0-15,36.61c-.21,2.18-.32,4.38-.32,6.62v24.16a5.28,5.28,0,0,1,5.28,5.29V220"/><path class="cls-8" d="M163.28,199.59H127.77a6.81,6.81,0,0,1-6.8-6.8h0V184a5.43,5.43,0,0,0-5.12-5.51,5.29,5.29,0,0,0-5.45,5.29V226.5A39.56,39.56,0,0,0,149.94,266h69.69a39.55,39.55,0,0,0,39.54-39.54V185.67c0-2.23.1-4.18-1.51-5.72a6,6,0,0,0-4.53-1.51,5.34,5.34,0,0,0-4.53,5.29v9.06a6.81,6.81,0,0,1-6.8,6.8H163.28Z"/><path class="cls-9" d="M126.64,208.65a4.15,4.15,0,0,0-4.16,4.15v6.8a4.16,4.16,0,0,0,8.31,0v-6.8A4.15,4.15,0,0,0,126.64,208.65Z"/><path class="cls-9" d="M225.94,208.65a3,3,0,0,0-3,3v3.77a3,3,0,0,0,6,0v-3.77A3,3,0,0,0,225.94,208.65Z"/><path class="cls-9" d="M238.78,220.35V234a4.16,4.16,0,0,0,8.31,0v-13.6a4.16,4.16,0,0,0-8.31,0Z"/><path class="cls-9" d="M196.87,260.75a3.4,3.4,0,0,0,3.4-3.4v-6a3.4,3.4,0,0,0-6.8,0v6A3.4,3.4,0,0,0,196.87,260.75Z"/><path class="cls-10" d="M144.58,235.08a5.21,5.21,0,0,0-1,3,5.27,5.27,0,0,0,5.28,5.28h71.74a5.2,5.2,0,0,0,2.26-.51,5.27,5.27,0,0,0,3-4.77,5.21,5.21,0,0,0-.95-3"/><path class="cls-11" d="M225,235.08a5.29,5.29,0,0,0-4.34-8.31H148.91a5.29,5.29,0,0,0-4.33,8.31"/><path class="cls-12" d="M148.91,237.34h71.74a5.28,5.28,0,0,0,4.34-2.26,5.29,5.29,0,0,0-4.34-2.27H148.91a5.28,5.28,0,0,0-4.33,2.27A5.27,5.27,0,0,0,148.91,237.34Z"/><path class="cls-13" d="M201.88,167.49a8.31,8.31,0,0,0,6.69,13.22h22.66a8.31,8.31,0,0,0,6.69-13.22"/><path class="cls-13" d="M131.65,167.49a8.31,8.31,0,0,0,6.69,13.22H161a8.31,8.31,0,0,0,6.69-13.22"/><path class="cls-14" d="M169.41,213.18h-1.62a7.54,7.54,0,0,1-4.51-13.59,7.46,7.46,0,0,1,4.51-1.51H201a7.57,7.57,0,0,1,7.55,7.55,7.55,7.55,0,0,1-7.55,7.55H169.41Z"/><path class="cls-15" d="M149.67,175.42c-2.28,0-4.27,2.14-5.29,5.29a15.76,15.76,0,0,0-.75,4.91c0,5.63,2.7,10.19,6,10.19s6-4.56,6-10.19a15.76,15.76,0,0,0-.75-4.91C153.94,177.56,152,175.42,149.67,175.42Z"/><path class="cls-15" d="M224.44,180.71c-1-3.15-3-5.29-5.3-5.29s-4.26,2.14-5.29,5.29a15.76,15.76,0,0,0-.75,4.91c0,5.63,2.71,10.19,6,10.19s6.05-4.56,6.05-10.19A16.06,16.06,0,0,0,224.44,180.71Z"/><path class="cls-6" d="M231.23,154.28H208.57a8.31,8.31,0,0,0,0,16.61h22.66a8.31,8.31,0,0,0,0-16.61Z"/><path class="cls-6" d="M161,154.28H138.34a8.31,8.31,0,0,0,0,16.61H161a8.31,8.31,0,0,0,0-16.61Z"/><path class="cls-16" d="M176.52,219.22H192.3a7.21,7.21,0,0,0,7.11-6h-30A7.21,7.21,0,0,0,176.52,219.22Z"/><path class="cls-4" d="M186,170.13h-3.23a13.49,13.49,0,0,0-13.49,13.49V212a6.45,6.45,0,0,0,.11,1.17h30a7.49,7.49,0,0,0,.1-1.17V183.62A13.49,13.49,0,0,0,186,170.13Z"/><path class="cls-3" d="M192,180.71a3,3,0,0,0-3,3v21.14a3,3,0,1,0,6,0V183.73A3,3,0,0,0,192,180.71Z"/><path class="cls-9" d="M176.82,129.23h24.24v-.05c.59,0,1.18.05,1.78.05a45.58,45.58,0,0,0,24.38-7A45.87,45.87,0,0,0,202.85,37.5h-26"/><path class="cls-8" d="M189.63,39.44a45.89,45.89,0,0,0-12.81-1.93h-.42A45.87,45.87,0,0,0,134.85,64H121a23.55,23.55,0,1,0,0,47.1h18.81a45.84,45.84,0,0,0,36.56,18.19h.42a45.9,45.9,0,0,0,12.81-1.94,45.36,45.36,0,0,0,13.45-6.62,46,46,0,0,0,15.53-19.32,47,47,0,0,0,1.94-5.53,45.89,45.89,0,0,0-30.92-56.38Z"/><path class="cls-9" d="M195.71,67H195l-.38,0v0c-10.57-.75-12.08,2.27-15.86,4.53s0,4.53,0,4.53,3,.76,3.78,3,5.28,6,5.28,6h7.93a8.67,8.67,0,0,0,8.68-8.68v-.75A8.68,8.68,0,0,0,195.71,67Z"/></g><circle class="cls-17" cx="181.5" cy="181.5" r="180"/></g></g></svg>