<svg xmlns="http://www.w3.org/2000/svg" width="126.526" height="188.369" viewBox="0 0 126.526 188.369">
  <g id="Group_301" data-name="Group 301" transform="translate(0)">
    <path id="Path_934" data-name="Path 934" d="M880.017,375.031H842.466c-9.288,0-17.009-2.6-18.62-6.021l-.314-.087v15.736h75.42v-15.6c-.126.033-.255.064-.382.1C896.811,372.508,889.173,375.031,880.017,375.031Z" transform="translate(-795.978 -196.29)" fill="#f37a67"/>
    <path id="Path_935" data-name="Path 935" d="M838.916,373.971a25.855,25.855,0,0,1-14.751-4.6,18.936,18.936,0,0,0,18.62,15.513h37.551a18.941,18.941,0,0,0,18.553-15.136,25.854,25.854,0,0,1-14.187,4.22Z" transform="translate(-796.297 -196.517)" fill="#e46657"/>
    <path id="Path_936" data-name="Path 936" d="M785.486,215.546a4.962,4.962,0,0,1,4.962-4.962V209.1a3.473,3.473,0,0,1,3.473-3.473V203.9a11.907,11.907,0,1,0-3.473,23.512v-6.9A4.962,4.962,0,0,1,785.486,215.546Z" transform="translate(-773.81 -113.016)" fill="#f17968"/>
    <path id="Path_937" data-name="Path 937" d="M796.494,217.638a4.962,4.962,0,0,0,0,9.924v-9.924Z" transform="translate(-779.856 -120.07)" fill="#e13e43"/>
    <path id="Path_938" data-name="Path 938" d="M1004.921,215.546A11.91,11.91,0,0,0,990.532,203.9v1.763A3.447,3.447,0,0,1,994.5,209.1v1.588a4.962,4.962,0,0,1,0,9.724v6.951A11.908,11.908,0,0,0,1004.921,215.546Z" transform="translate(-880.116 -113.016)" fill="#f17968"/>
    <path id="Path_939" data-name="Path 939" d="M998.532,227.563a4.962,4.962,0,0,0,0-9.724v9.724Z" transform="translate(-884.146 -120.171)" fill="#e13e43"/>
    <path id="Path_940" data-name="Path 940" d="M849.005,275.607h47.137a3.467,3.467,0,0,1,2.848,1.489,3.471,3.471,0,0,0-2.848-5.458H849.005a3.471,3.471,0,0,0-2.848,5.458A3.467,3.467,0,0,1,849.005,275.607Z" transform="translate(-807.062 -147.276)" fill="#f27964"/>
    <path id="Path_941" data-name="Path 941" d="M849.64,282.615h47.137a3.466,3.466,0,0,0,2.848-1.489,3.467,3.467,0,0,0-2.848-1.489H849.64a3.467,3.467,0,0,0-2.848,1.489A3.467,3.467,0,0,0,849.64,282.615Z" transform="translate(-807.697 -151.307)" fill="#db6856"/>
    <path id="Path_942" data-name="Path 942" d="M895.31,285.073A25.943,25.943,0,0,1,873.3,297.257H827.513a25.989,25.989,0,0,1-25.981-25.981v27.29a25.94,25.94,0,0,0,10.916,21.161c.1.075.208.151.314.224a25.856,25.856,0,0,0,14.751,4.6H873.3a25.853,25.853,0,0,0,14.187-4.22c.127-.083.256-.163.382-.248a25.954,25.954,0,0,0,11.412-21.514v-27.29A25.848,25.848,0,0,1,895.31,285.073Z" transform="translate(-784.894 -147.094)" fill="#000002"/>
    <path id="Path_943" data-name="Path 943" d="M898.991,282.638a3.467,3.467,0,0,1-2.848,1.488H849.005a3.467,3.467,0,0,1-2.848-1.488,3.472,3.472,0,0,0,2.848,5.458h47.137a3.471,3.471,0,0,0,2.848-5.458Z" transform="translate(-807.062 -152.818)" fill="#000102"/>
    <path id="Path_944" data-name="Path 944" d="M825.34,235.556c.01-.027.018-.054.027-.081a4.457,4.457,0,0,1-.836.081Z" transform="translate(-796.482 -129.056)" fill="none" stroke="#f4b1a0" stroke-miterlimit="10" stroke-width="0.25"/>
    <path id="Path_945" data-name="Path 945" d="M975.532,231.1H980v-4.466A4.465,4.465,0,0,1,975.532,231.1Z" transform="translate(-872.558 -124.604)" fill="none" stroke="#f4b1a0" stroke-miterlimit="10" stroke-width="0.25"/>
    <path id="Path_946" data-name="Path 946" d="M972.753,235.2c.024.073.049.147.074.219h1.3A4.444,4.444,0,0,1,972.753,235.2Z" transform="translate(-871.158 -128.916)" fill="none" stroke="#f4b1a0" stroke-miterlimit="10" stroke-width="0.25"/>
    <path id="Path_947" data-name="Path 947" d="M925.99,201.821h3.468c.675-2.07,1.979-3.473,3.479-3.473s2.8,1.4,3.479,3.473h4.46a5.451,5.451,0,0,0,4.4-8.683,5.445,5.445,0,0,1-4.4,2.233H925.99a5.445,5.445,0,0,1-4.4-2.233,5.451,5.451,0,0,0,4.4,8.683Z" transform="translate(-844.848 -107.726)" fill="#ee7665"/>
    <path id="Path_948" data-name="Path 948" d="M832.99,201.821h3.964c.675-2.07,1.979-3.473,3.479-3.473s2.8,1.4,3.479,3.473h3.964a5.451,5.451,0,0,0,4.4-8.683,5.445,5.445,0,0,1-4.4,2.233H832.99a5.446,5.446,0,0,1-4.4-2.233,5.451,5.451,0,0,0,4.4,8.683Z" transform="translate(-797.993 -107.726)" fill="#ee7665"/>
    <g id="Group_248" data-name="Group 248" transform="translate(38.47 90.622)">
      <path id="Path_949" data-name="Path 949" d="M849.5,203.638c-1.5,0-2.8,1.4-3.479,3.473a10.469,10.469,0,0,0-.491,3.225c0,3.7,1.777,6.7,3.969,6.7s3.969-3,3.969-6.7a10.469,10.469,0,0,0-.491-3.225C852.3,205.042,851,203.638,849.5,203.638Z" transform="translate(-845.532 -203.638)" fill="#000309"/>
      <path id="Path_950" data-name="Path 950" d="M944.98,207.111c-.675-2.07-1.98-3.473-3.479-3.473s-2.8,1.4-3.479,3.473a10.467,10.467,0,0,0-.491,3.225c0,3.7,1.777,6.7,3.97,6.7s3.969-3,3.969-6.7A10.471,10.471,0,0,0,944.98,207.111Z" transform="translate(-891.883 -203.638)" fill="#000309"/>
    </g>
    <path id="Path_951" data-name="Path 951" d="M884.341,257.607h10.367a4.737,4.737,0,0,0,4.672-3.969H879.669A4.737,4.737,0,0,0,884.341,257.607Z" transform="translate(-824.261 -138.207)" fill="#e35748"/>
    <g id="Group_249" data-name="Group 249" transform="translate(49.386 105.507)">
      <path id="Path_952" data-name="Path 952" d="M923.423,234.63a4.935,4.935,0,0,0-2.968-.992h-.992v9.153a4.754,4.754,0,0,1-.068.771h1.06a4.957,4.957,0,0,0,2.968-8.931Z" transform="translate(-893.661 -233.638)" fill="#f27968"/>
      <path id="Path_953" data-name="Path 953" d="M873.486,234.63v-.992h-.992a4.962,4.962,0,0,0,0,9.924h1.06a4.74,4.74,0,0,1-.068-.771Z" transform="translate(-867.532 -233.638)" fill="#f27968"/>
    </g>
    <path id="Path_954" data-name="Path 954" d="M890.517,196.638h-2.122a8.863,8.863,0,0,0-8.863,8.863V224.15a4.754,4.754,0,0,0,.068.771h19.711a4.748,4.748,0,0,0,.068-.771V205.5A8.863,8.863,0,0,0,890.517,196.638Z" transform="translate(-824.192 -109.49)" fill="#e46657"/>
    <path id="Path_955" data-name="Path 955" d="M907.517,210.638a1.985,1.985,0,0,0-1.985,1.985v13.893a1.985,1.985,0,0,0,3.97,0V212.623A1.985,1.985,0,0,0,907.517,210.638Z" transform="translate(-837.291 -116.543)" fill="#f37a67"/>
    <circle id="Ellipse_78" data-name="Ellipse 78" cx="27.538" cy="27.538" r="27.538" transform="translate(61.479 31.745)" fill="#040000"/>
    <path id="Path_956" data-name="Path 956" d="M843.067,184.581A15.4,15.4,0,0,1,841.82,193h2.332a10.469,10.469,0,0,0-.491,3.225c0,3.7,1.777,6.7,3.969,6.7s3.97-3,3.97-6.7A10.467,10.467,0,0,0,851.11,193h3.964a5.451,5.451,0,0,0,4.4-8.683,5.451,5.451,0,0,0-4.4-8.683h-2.937A25.37,25.37,0,0,1,843.067,184.581Z" transform="translate(-805.192 -98.909)" fill="none"/>
    <path id="Path_957" data-name="Path 957" d="M990.277,168.8q.125,1.681.126,3.395v10.072a25.249,25.249,0,0,0,8.3-5.291A15.526,15.526,0,0,0,990.277,168.8Z" transform="translate(-879.987 -95.462)" fill="#040000"/>
    <path id="Path_958" data-name="Path 958" d="M796.274,171.226c0-1.466.073-2.915.209-4.345a15.492,15.492,0,0,0-12.281,9.891,25.18,25.18,0,0,0,12.072,6.257Z" transform="translate(-776.163 -94.498)" fill="#040000"/>
    <g id="Group_250" data-name="Group 250" transform="translate(0 38.519)">
      <path id="Path_959" data-name="Path 959" d="M996.969,123.375a25.259,25.259,0,0,0-20.2-24.744,30.037,30.037,0,0,1-5.44,10.469,44.931,44.931,0,0,1,9.4,24.346q.125,1.681.127,3.395v15.918a3.471,3.471,0,0,0-2.977,3.434v5.954a4.479,4.479,0,0,1-.088.882,15.477,15.477,0,0,0,11.368-21.405A25.171,25.171,0,0,0,996.969,123.375Z" transform="translate(-870.443 -98.631)" fill="#040000"/>
      <path id="Path_960" data-name="Path 960" d="M788.111,152.765v-11.8c0-1.466.073-2.915.209-4.345a44.938,44.938,0,0,1,9.842-24.054h-6.269v-.006c-.09,0-.18.006-.271.006a15.443,15.443,0,0,1-12.036-5.752,25.238,25.238,0,0,0-3.546,39.7,15.481,15.481,0,0,0,14.5,20.9c.353,0,.7-.016,1.049-.039v-7.057a3.473,3.473,0,0,0-3.473-3.473v-4.074Z" transform="translate(-768 -102.752)" fill="#040000"/>
    </g>
    <path id="Path_961" data-name="Path 961" d="M956.24,98.868v2.146a45.437,45.437,0,0,1,7.489,7.571,30.039,30.039,0,0,0,5.44-10.469,25.33,25.33,0,0,0-12.929.752Z" transform="translate(-862.839 -59.597)" fill="#b7144b" opacity="0.31"/>
    <path id="Path_962" data-name="Path 962" d="M963.729,112.042a45.438,45.438,0,0,0-7.489-7.571v14.245A30.282,30.282,0,0,0,963.729,112.042Z" transform="translate(-862.839 -63.054)" fill="#f69779"/>
    <path id="Path_963" data-name="Path 963" d="M861.555,91.811c-.141.06-.28.123-.42.184v13.01h-2.048a25.139,25.139,0,0,1,4.754,10.222,30.081,30.081,0,0,0,10.054,1.725c.091,0,.181-.006.272-.007v-5.322A30.132,30.132,0,0,1,861.555,91.811Z" transform="translate(-813.892 -56.676)" fill="#f69779"/>
    <path id="Path_964" data-name="Path 964" d="M840.512,118.4a30.205,30.205,0,0,0,13.971,10.222,25.136,25.136,0,0,0-4.754-10.222Z" transform="translate(-804.533 -70.073)" fill="#f69779"/>
    <path id="Path_965" data-name="Path 965" d="M840.512,118.4a30.205,30.205,0,0,0,13.971,10.222,25.136,25.136,0,0,0-4.754-10.222Z" transform="translate(-804.533 -70.073)" fill="#b7144b" opacity="0.31"/>
    <path id="Path_966" data-name="Path 966" d="M876.248,58.262V31.739a30.105,30.105,0,0,0-12.613,29.807A44.849,44.849,0,0,1,876.248,58.262Z" transform="translate(-815.971 -26.411)" fill="#b7144b" opacity="0.65"/>
    <path id="Path_967" data-name="Path 967" d="M864.061,88.477a30.132,30.132,0,0,0,12.613,19.813v-23.1A44.848,44.848,0,0,0,864.061,88.477Z" transform="translate(-816.397 -53.342)" fill="#f69779"/>
    <path id="Path_968" data-name="Path 968" d="M864.061,88.477a30.132,30.132,0,0,0,12.613,19.813v-23.1A44.848,44.848,0,0,0,864.061,88.477Z" transform="translate(-816.397 -53.342)" fill="#b7144b" opacity="0.65"/>
    <path id="Path_969" data-name="Path 969" d="M898.71,143.407a44.93,44.93,0,0,0-9.4-24.346A30.134,30.134,0,0,1,865.8,130.35H848.7v-.007c-.091,0-.181.007-.272.007A30.113,30.113,0,0,1,824.4,118.4h-5.817a44.94,44.94,0,0,0-9.842,24.054c-.136,1.431-.209,2.879-.209,4.345V162.68a3.473,3.473,0,0,1,3.473,3.473v10.42h4.466a4.463,4.463,0,0,0,.836-.081c-.009.027-.018.054-.027.081H839.8a4.935,4.935,0,0,1,2.968-.992h.992v-9.5a8.863,8.863,0,0,1,8.863-8.863h2.122a8.863,8.863,0,0,1,8.863,8.863v9.5h.992a4.935,4.935,0,0,1,2.968.992H890.09c-.026-.072-.05-.146-.075-.219a4.462,4.462,0,0,0,5.757-3.365,4.492,4.492,0,0,0,.088-.882v-5.954a3.471,3.471,0,0,1,2.977-3.434V146.8Q898.837,145.089,898.71,143.407Zm-54.95,15.3a5.458,5.458,0,0,1-5.458,5.458h-3.964a10.467,10.467,0,0,1,.491,3.225c0,3.7-1.777,6.7-3.969,6.7s-3.969-3-3.969-6.7a10.467,10.467,0,0,1,.491-3.225h-3.964a5.456,5.456,0,0,1-5.456-5.408c0-.017,0-.033,0-.05a5.428,5.428,0,0,1,1.062-3.225,5.466,5.466,0,0,1,4.4-8.683H838.3a5.451,5.451,0,0,1,4.4,8.683A5.428,5.428,0,0,1,843.761,158.71Zm46.139-.128c0,.043.005.085.005.128a5.458,5.458,0,0,1-5.458,5.458h-4.46a10.327,10.327,0,0,1,.472,2.734c.007.163.019.325.019.491,0,3.7-1.777,6.7-3.969,6.7s-3.97-3-3.97-6.7a10.471,10.471,0,0,1,.491-3.225h-3.468a5.451,5.451,0,0,1-4.4-8.683,5.457,5.457,0,0,1,4.4-8.683h14.885a5.451,5.451,0,0,1,4.4,8.683A5.431,5.431,0,0,1,889.9,158.582Z" transform="translate(-788.421 -70.073)" fill="#f69779"/>
    <path id="Path_970" data-name="Path 970" d="M921.589,142.421l0,.03h1.176C922.368,142.451,921.978,142.436,921.589,142.421Z" transform="translate(-845.379 -82.174)" fill="#b7144b"/>
    <path id="Path_971" data-name="Path 971" d="M922.606,25.614A29.984,29.984,0,0,0,906.586,21H889.481v.007a30.132,30.132,0,0,1,0,60.263v.007H905.41l0-.03c.389.015.779.03,1.172.03a30.135,30.135,0,0,0,16.019-55.662Z" transform="translate(-829.204 -21)" fill="#4d140d"/>
    <path id="Path_972" data-name="Path 972" d="M844.964,22.277a30.117,30.117,0,0,0-8.417-1.27c-.091,0-.181-.007-.272-.007a30.137,30.137,0,0,0-27.3,17.377h-8.808v.007c-.09,0-.18-.007-.271-.007a15.476,15.476,0,0,0,0,30.953c.091,0,.181,0,.271-.006v.006H812.25a30.112,30.112,0,0,0,24.026,11.947c.091,0,.181-.006.272-.007a30.136,30.136,0,0,0,8.417-58.993Z" transform="translate(-776.271 -21)" fill="#380a06"/>
    <g id="Group_251" data-name="Group 251" transform="translate(29.539 76.729)">
      <path id="Path_973" data-name="Path 973" d="M940.875,175.638H925.99a5.458,5.458,0,0,0,0,10.916h14.886a5.458,5.458,0,0,0,0-10.916Z" transform="translate(-874.387 -175.638)" fill="#040000"/>
      <path id="Path_974" data-name="Path 974" d="M847.875,175.638H832.99a5.458,5.458,0,0,0,0,10.916h14.885a5.458,5.458,0,1,0,0-10.916Z" transform="translate(-827.532 -175.638)" fill="#040000"/>
    </g>
    <path id="Path_975" data-name="Path 975" d="M902.044,59.921h-.5c-.083,0-.165.009-.248.012v-.012c-6.947-.5-7.939,1.489-10.42,2.977s0,2.977,0,2.977,1.985.5,2.481,1.985,3.473,3.969,3.473,3.969h5.21a5.706,5.706,0,0,0,5.706-5.706v-.5A5.706,5.706,0,0,0,902.044,59.921Z" transform="translate(-829.354 -40.57)" fill="#4d140d"/>
    <path id="Path_976" data-name="Path 976" d="M898.287,208.608a3.95,3.95,0,0,0-2.977-.992,3.512,3.512,0,0,0-2.977,3.473v5.954a4.466,4.466,0,0,1-4.466,4.466H864.042a4.948,4.948,0,0,1,1.993,3.914,5.106,5.106,0,0,1-5.126,5.017h-.9a4.737,4.737,0,0,1-4.672,3.969H844.974a4.737,4.737,0,0,1-4.672-3.969h-.9a5.106,5.106,0,0,1-5.127-5.017,4.949,4.949,0,0,1,1.993-3.914H812.944a4.465,4.465,0,0,1-4.466-4.466h0v-5.808a3.57,3.57,0,0,0-3.367-3.617,3.473,3.473,0,0,0-3.58,3.471v28.1a25.991,25.991,0,0,0,25.981,25.981H873.3a25.989,25.989,0,0,0,25.981-25.981V212.365C899.28,210.9,899.346,209.618,898.287,208.608Zm-22.832,41.344a3.456,3.456,0,0,1-1.481.335H826.837a3.471,3.471,0,0,1-2.848-5.458,3.457,3.457,0,0,1-.615-2.25,3.562,3.562,0,0,1,3.6-3.208h46.873a3.562,3.562,0,0,1,3.6,3.208,3.457,3.457,0,0,1-.615,2.25,3.466,3.466,0,0,1-1.367,5.123Z" transform="translate(-784.894 -115.009)" fill="#380a06"/>
    <path id="Path_977" data-name="Path 977" d="M820.261,247.638a2.729,2.729,0,0,0-2.729,2.729v4.466a2.729,2.729,0,0,0,5.458,0v-4.466A2.729,2.729,0,0,0,820.261,247.638Z" transform="translate(-792.955 -135.184)" fill="#4d140d"/>
    <path id="Path_978" data-name="Path 978" d="M952.517,247.638a1.985,1.985,0,0,0-1.985,1.985V252.1a1.985,1.985,0,0,0,3.969,0v-2.481A1.985,1.985,0,0,0,952.517,247.638Z" transform="translate(-859.963 -135.184)" fill="#4d140d"/>
    <path id="Path_979" data-name="Path 979" d="M971.532,260.367V269.3a2.729,2.729,0,1,0,5.458,0v-8.931a2.729,2.729,0,0,0-5.458,0Z" transform="translate(-870.543 -140.223)" fill="#4d140d"/>
    <path id="Path_980" data-name="Path 980" d="M913.765,308.073A2.233,2.233,0,0,0,916,305.84v-3.969a2.233,2.233,0,0,0-4.466,0v3.969A2.233,2.233,0,0,0,913.765,308.073Z" transform="translate(-840.314 -161.383)" fill="#4d140d"/>
  </g>
</svg>
