<svg xmlns="http://www.w3.org/2000/svg" width="220" height="60" viewBox="0 0 220 60">
  <g id="Group_5" data-name="Group 5" transform="translate(0.155)">
    <rect id="Rectangle_1545" data-name="Rectangle 1545" width="220" height="60" rx="10" transform="translate(-0.155)" fill="#002942"/>
    <path id="Path_10" data-name="Path 10" d="M264.045,136.386a9.044,9.044,0,0,1,4.295-7.587,9.226,9.226,0,0,0-7.273-3.943c-3.06-.323-6.028,1.836-7.586,1.836-1.59,0-3.99-1.8-6.577-1.752a9.68,9.68,0,0,0-8.151,4.985c-3.525,6.119-.9,15.112,2.481,20.058,1.689,2.424,3.663,5.127,6.247,5.032,2.528-.1,3.472-1.614,6.522-1.614,3.022,0,3.909,1.614,6.544,1.554,2.713-.042,4.421-2.433,6.051-4.878a20.024,20.024,0,0,0,2.767-5.651,8.744,8.744,0,0,1-5.32-8.04ZM259.067,121.6a8.917,8.917,0,0,0,2.032-6.378,9.032,9.032,0,0,0-5.846,3.032,8.485,8.485,0,0,0-2.084,6.143,7.459,7.459,0,0,0,5.9-2.8Z" transform="translate(-212.215 -106.964)" fill="#fff"/>
    <g id="Group_3" data-name="Group 3" transform="translate(69.914 26.28)">
      <path id="Path_11" data-name="Path 11" d="M803.939,354.51h-3.55l-1.945-6.074h-6.76l-1.852,6.074h-3.456l6.7-20.678h4.137l6.729,20.678Zm-6.081-8.622-1.759-5.4q-.279-.827-1.049-3.9h-.062q-.31,1.319-.988,3.9l-1.729,5.4Zm23.275.984a8.412,8.412,0,0,1-2.079,6.012,6.114,6.114,0,0,1-4.624,1.964,4.638,4.638,0,0,1-4.284-2.115v7.824h-3.333V344.5q0-2.389-.123-4.9h2.931l.186,2.363h.063a5.951,5.951,0,0,1,9.491-.586,8.212,8.212,0,0,1,1.773,5.494Zm-3.4.121a6.119,6.119,0,0,0-.988-3.591,3.421,3.421,0,0,0-2.9-1.472,3.479,3.479,0,0,0-2.237.813,3.766,3.766,0,0,0-1.312,2.133,4.306,4.306,0,0,0-.155,1.008v2.488a3.975,3.975,0,0,0,1,2.747,3.341,3.341,0,0,0,2.608,1.12,3.423,3.423,0,0,0,2.931-1.442A6.318,6.318,0,0,0,817.737,346.993Zm20.65-.121a8.412,8.412,0,0,1-2.079,6.012,6.117,6.117,0,0,1-4.626,1.964,4.638,4.638,0,0,1-4.284-2.115v7.824h-3.333V344.5q0-2.389-.123-4.9h2.931l.186,2.363h.063a5.953,5.953,0,0,1,9.493-.586,8.221,8.221,0,0,1,1.773,5.494Zm-3.4.121A6.12,6.12,0,0,0,834,343.4a3.416,3.416,0,0,0-2.9-1.472,3.493,3.493,0,0,0-2.24.813,3.763,3.763,0,0,0-1.31,2.133,4.4,4.4,0,0,0-.156,1.008v2.488a3.988,3.988,0,0,0,1,2.747,3.348,3.348,0,0,0,2.611,1.12,3.419,3.419,0,0,0,2.931-1.442A6.318,6.318,0,0,0,834.99,346.993Zm22.689,1.717a5.508,5.508,0,0,1-1.849,4.3,8.23,8.23,0,0,1-5.667,1.81,9.938,9.938,0,0,1-5.387-1.288l.771-2.761a9.315,9.315,0,0,0,4.815,1.29,4.563,4.563,0,0,0,2.931-.844,2.75,2.75,0,0,0,1.052-2.253,2.878,2.878,0,0,0-.866-2.118,8.04,8.04,0,0,0-2.87-1.594q-5.464-2.026-5.465-5.923a5.217,5.217,0,0,1,1.929-4.172,7.659,7.659,0,0,1,5.109-1.627,10.148,10.148,0,0,1,4.723.982l-.836,2.7a8.3,8.3,0,0,0-4-.951,4.081,4.081,0,0,0-2.758.859,2.452,2.452,0,0,0-.836,1.874,2.527,2.527,0,0,0,.958,2.025,10.815,10.815,0,0,0,3.023,1.594,10.257,10.257,0,0,1,3.951,2.514,5.22,5.22,0,0,1,1.271,3.586Zm11.048-6.624h-3.674v7.239q0,2.762,1.945,2.76a5.891,5.891,0,0,0,1.48-.154l.092,2.516a7.593,7.593,0,0,1-2.592.367,4.007,4.007,0,0,1-3.088-1.2,5.849,5.849,0,0,1-1.112-4.02V342.08H859.59v-2.486h2.189v-2.73l3.274-.982v3.712h3.674v2.492Zm16.543,4.846a8.149,8.149,0,0,1-1.976,5.645,7.065,7.065,0,0,1-5.493,2.27,6.735,6.735,0,0,1-5.264-2.175,7.9,7.9,0,0,1-1.96-5.491,8.084,8.084,0,0,1,2.021-5.675,7.028,7.028,0,0,1,5.45-2.21,6.876,6.876,0,0,1,5.308,2.178,7.8,7.8,0,0,1,1.915,5.457Zm-3.455.076a6.645,6.645,0,0,0-.893-3.518,3.3,3.3,0,0,0-3-1.776,3.351,3.351,0,0,0-3.056,1.776,6.756,6.756,0,0,0-.894,3.58,6.626,6.626,0,0,0,.894,3.519,3.428,3.428,0,0,0,6.024-.03,6.672,6.672,0,0,0,.921-3.552Zm14.294-4.5a5.85,5.85,0,0,0-1.05-.092,3.152,3.152,0,0,0-2.717,1.321,4.952,4.952,0,0,0-.832,2.944v7.824h-3.333V344.3q0-2.348-.1-4.694h2.9l.122,2.853h.092a5.117,5.117,0,0,1,1.667-2.363,4.047,4.047,0,0,1,2.409-.8,5.388,5.388,0,0,1,.833.061l0,3.16Zm14.906,3.836a7.718,7.718,0,0,1-.122,1.5h-10a4.313,4.313,0,0,0,1.451,3.378,4.981,4.981,0,0,0,3.27,1.041,11.119,11.119,0,0,0,4.046-.7l.522,2.3a12.576,12.576,0,0,1-5.029.921,7.315,7.315,0,0,1-5.481-2.039,7.51,7.51,0,0,1-1.99-5.476,8.508,8.508,0,0,1,1.854-5.612,6.4,6.4,0,0,1,5.245-2.391,5.6,5.6,0,0,1,4.91,2.391,8.012,8.012,0,0,1,1.323,4.689Zm-3.178-.859a4.463,4.463,0,0,0-.647-2.547,2.915,2.915,0,0,0-2.654-1.383,3.166,3.166,0,0,0-2.653,1.35,4.931,4.931,0,0,0-.986,2.576l6.941,0Z" transform="translate(-786.375 -333.526)" fill="#fff"/>
    </g>
    <g id="Group_4" data-name="Group 4" transform="translate(72.166 9.01)">
      <path id="Path_12" data-name="Path 12" d="M811.9,131.886a21.989,21.989,0,0,1-2.39-.117v-9.68a18.734,18.734,0,0,1,2.814-.2c3.812,0,5.568,1.81,5.568,4.76C817.887,130.048,815.814,131.886,811.9,131.886Zm.558-8.761a6.9,6.9,0,0,0-1.316.1v7.358a8.946,8.946,0,0,0,1.1.044c2.5,0,3.92-1.372,3.92-3.942C816.161,124.4,814.875,123.126,812.453,123.126Zm10.905,8.834a3.431,3.431,0,0,1-3.541-3.65,3.512,3.512,0,0,1,3.663-3.752,3.405,3.405,0,0,1,3.541,3.636,3.533,3.533,0,0,1-3.662,3.766Zm.062-6.25c-1.18,0-1.937,1.065-1.937,2.555,0,1.461.772,2.526,1.921,2.526s1.921-1.139,1.921-2.556c0-1.444-.756-2.525-1.905-2.525Zm15.853-1.007-2.3,7.1h-1.5l-.953-3.081a22.681,22.681,0,0,1-.591-2.291H833.9a14.934,14.934,0,0,1-.589,2.291L832.3,131.8h-1.514l-2.164-7.1H830.3l.833,3.373q.295,1.205.5,2.278h.031a22.7,22.7,0,0,1,.605-2.263l1.045-3.387h1.332l1,3.314c.242.8.438,1.592.591,2.336h.044a19.777,19.777,0,0,1,.5-2.336l.893-3.314,1.6,0Zm8.467,7.1h-1.634v-4.074c0-1.255-.5-1.884-1.483-1.884a1.662,1.662,0,0,0-1.634,1.738v4.22h-1.634v-5.067c0-.627-.016-1.3-.061-2.03h1.438l.076,1.1h.045a2.664,2.664,0,0,1,2.331-1.24c1.544,0,2.557,1.139,2.557,2.992l0,4.249Zm4.506,0h-1.636V121.448h1.636Zm5.958.161a3.432,3.432,0,0,1-3.541-3.65,3.512,3.512,0,0,1,3.661-3.752,3.4,3.4,0,0,1,3.541,3.636,3.532,3.532,0,0,1-3.661,3.766Zm.061-6.25c-1.18,0-1.936,1.065-1.936,2.555,0,1.461.773,2.526,1.919,2.526s1.921-1.139,1.921-2.556c0-1.444-.753-2.525-1.9-2.525Zm10.043,6.089-.119-.817h-.044a2.545,2.545,0,0,1-2.15.978,2.1,2.1,0,0,1-2.253-2.088c0-1.751,1.573-2.657,4.3-2.657v-.131c0-.934-.513-1.4-1.527-1.4a3.534,3.534,0,0,0-1.921.527l-.332-1.037a4.834,4.834,0,0,1,2.524-.614c1.921,0,2.891.978,2.891,2.935v2.613a10.359,10.359,0,0,0,.106,1.694Zm-.225-3.534c-1.815,0-2.725.424-2.725,1.431a1.024,1.024,0,0,0,1.121,1.109,1.543,1.543,0,0,0,1.6-1.444Zm9.527,3.534-.076-1.139h-.045a2.481,2.481,0,0,1-2.361,1.3c-1.773,0-3.086-1.5-3.086-3.621,0-2.219,1.361-3.782,3.22-3.782a2.236,2.236,0,0,1,2.074.964h.033v-4.073H879v8.439c0,.686.017,1.328.061,1.912Zm-.242-4.175a1.741,1.741,0,0,0-1.721-1.84c-1.211,0-1.952,1.037-1.952,2.5,0,1.431.769,2.41,1.919,2.41a1.8,1.8,0,0,0,1.754-1.884v-1.183Zm12.006,4.336a3.431,3.431,0,0,1-3.539-3.65,3.512,3.512,0,0,1,3.661-3.752,3.4,3.4,0,0,1,3.541,3.636,3.531,3.531,0,0,1-3.663,3.766Zm.061-6.25c-1.179,0-1.935,1.065-1.935,2.555,0,1.461.772,2.526,1.919,2.526s1.921-1.139,1.921-2.556c0-1.444-.753-2.525-1.905-2.525Zm12.39,6.089H900.19v-4.074c0-1.255-.5-1.884-1.483-1.884a1.661,1.661,0,0,0-1.632,1.738v4.22h-1.636v-5.067c0-.627-.016-1.3-.061-2.03h1.438l.076,1.1h.045a2.662,2.662,0,0,1,2.329-1.241c1.544,0,2.559,1.139,2.559,2.992Zm10.994-5.913h-1.8v3.445c0,.877.315,1.315.951,1.315a3.333,3.333,0,0,0,.725-.074l.045,1.2a3.742,3.742,0,0,1-1.268.176c-1.288,0-2.058-.686-2.058-2.482v-3.578h-1.073V124.7h1.073v-1.3l1.6-.468V124.7h1.8v1.184Zm8.65,5.913h-1.632v-4.044c0-1.27-.5-1.912-1.483-1.912a1.574,1.574,0,0,0-1.636,1.679V131.8h-1.632V121.448h1.632v4.262h.033a2.5,2.5,0,0,1,2.211-1.154c1.556,0,2.507,1.168,2.507,3.023v4.22Zm8.863-3.168h-4.9a2.079,2.079,0,0,0,2.317,2.1,5.7,5.7,0,0,0,1.982-.336l.254,1.1a6.335,6.335,0,0,1-2.467.438,3.353,3.353,0,0,1-3.661-3.576,3.514,3.514,0,0,1,3.477-3.811c1.879,0,3.058,1.344,3.058,3.373a2.954,2.954,0,0,1-.056.715Zm-1.5-1.124c0-1.1-.572-1.869-1.617-1.869a1.9,1.9,0,0,0-1.787,1.869Z" transform="translate(-809.505 -121.448)" fill="#fff"/>
    </g>
  </g>
</svg>
