<svg xmlns="http://www.w3.org/2000/svg" width="166.824" height="186.669" viewBox="0 0 166.824 186.669">
  <g id="Group_316" data-name="Group 316" transform="translate(-1502.34 -81.779)">
    <path id="Path_997" data-name="Path 997" d="M1586.369,375.1c-14.046,0-26.026-6.337-30.724-15.248v20.007h61.694V359.368C1612.822,368.531,1600.665,375.1,1586.369,375.1Z" transform="translate(-21.393 -111.406)" fill="#ed937d"/>
    <path id="Path_998" data-name="Path 998" d="M1586.757,361.888a49.279,49.279,0,0,1-31.113-10.9v5.231c4.7,11.849,16.679,20.275,30.724,20.275,14.3,0,26.454-8.729,30.969-20.913v-4.165A49.307,49.307,0,0,1,1586.757,361.888Z" transform="translate(-21.393 -108.041)" fill="#eb8177"/>
    <path id="Path_999" data-name="Path 999" d="M1517.232,247.05a9.292,9.292,0,0,1-12.958-4.223,9.3,9.3,0,0,0,12.958,13.1V247.05Z" transform="translate(0 -64.634)" fill="#ed937d"/>
    <path id="Path_1000" data-name="Path 1000" d="M1514.008,245.782a9.252,9.252,0,0,0,4.521-1.175v-5.993a9.273,9.273,0,0,0-12.958,1.77A9.3,9.3,0,0,0,1514.008,245.782Z" transform="translate(-1.296 -62.192)" fill="#f3b495"/>
    <path id="Path_1001" data-name="Path 1001" d="M1700.764,243.55a9.3,9.3,0,0,1-12.75,3.79v9.251a9.3,9.3,0,0,0,12.75-13.041Z" transform="translate(-74.517 -64.924)" fill="#ed937d"/>
    <path id="Path_1002" data-name="Path 1002" d="M1623.192,261.33q-.2,1.932-.54,3.818a51.525,51.525,0,0,1-2.483,9.041,50.333,50.333,0,0,1-14.307,20.52,46.572,46.572,0,0,1-61.619-.516,50.37,50.37,0,0,1-13.719-20,51.587,51.587,0,0,1-2.482-9.041q-.371-2.065-.58-4.186-.245-2.525-.247-5.121v18.348h0c0,.089,0,.177,0,.266a51.171,51.171,0,0,0,15.213,36.662q.883.865,1.807,1.682a46.576,46.576,0,0,0,61.694.468q.732-.629,1.438-1.291a51.12,51.12,0,0,0,16.113-37.521c0-.089,0-.177,0-.266h0V255.841A52.88,52.88,0,0,1,1623.192,261.33Z" transform="translate(-9.983 -69.857)" fill="#f3b495"/>
    <path id="Path_1003" data-name="Path 1003" d="M1693.066,236.741a9.256,9.256,0,0,0-5.052,1.5v6.369a9.3,9.3,0,0,0,12.75-3.79A9.3,9.3,0,0,0,1693.066,236.741Z" transform="translate(-74.517 -62.192)" fill="#f3b495"/>
    <path id="Path_1004" data-name="Path 1004" d="M1623.476,168.579c-.137-27.635-21.631-49.994-48.129-49.994s-47.991,22.359-48.128,49.994c0,.089,0,.177,0,.266v31.911q0,2.593.247,5.121.206,2.121.58,4.186a51.588,51.588,0,0,0,2.482,9.041,50.37,50.37,0,0,0,13.719,20,46.572,46.572,0,0,0,61.619.516,50.333,50.333,0,0,0,14.307-20.52,51.525,51.525,0,0,0,2.483-9.041q.338-1.886.54-3.818a52.879,52.879,0,0,0,.288-5.489c0-1.226-.045-2.441-.127-3.645.043.025.083.053.127.077V168.845C1623.48,168.756,1623.477,168.668,1623.476,168.579Zm-18.08,15.158a3.989,3.989,0,0,1-3.989,3.989h-11.169a3.988,3.988,0,0,1-3.527-5.851,3.987,3.987,0,0,1,3.527-5.85h11.169a3.989,3.989,0,0,1,3.989,3.989c0,.031,0,.062,0,.093a3.968,3.968,0,0,1-.458,1.768A3.972,3.972,0,0,1,1605.4,183.737Zm-7.446,9.307a2.659,2.659,0,1,1-2.659-2.659A2.659,2.659,0,0,1,1597.951,193.043Zm-37.495-17.019a3.987,3.987,0,0,1,3.526,5.85,3.987,3.987,0,0,1-3.526,5.851h-11.169a3.987,3.987,0,0,1-3.526-5.851,3.967,3.967,0,0,1-.458-1.768c0-.031,0-.062,0-.093a3.989,3.989,0,0,1,3.989-3.989h11.169Zm-8.244,17.019a2.659,2.659,0,1,1,2.659,2.659A2.659,2.659,0,0,1,1552.212,193.043Zm42.323,26.06a22.081,22.081,0,0,1-38.376,0,22.007,22.007,0,0,1-2.884-10.9h44.144a22,22,0,0,1-2.884,10.9Z" transform="translate(-9.983 -14.772)" fill="#f5c09b"/>
    <path id="Path_1005" data-name="Path 1005" d="M1570.746,268.278a22.072,22.072,0,1,0,44.144,0Z" transform="translate(-27.454 -74.849)" fill="#fff"/>
    <circle id="Ellipse_85" data-name="Ellipse 85" cx="2.659" cy="2.659" r="2.659" transform="translate(1542.229 175.613)" fill="#000309"/>
    <circle id="Ellipse_86" data-name="Ellipse 86" cx="2.659" cy="2.659" r="2.659" transform="translate(1582.649 175.613)" fill="#000309"/>
    <path id="Path_1006" data-name="Path 1006" d="M1572.578,226.431h-11.169a3.986,3.986,0,0,1-3.526-2.128,3.987,3.987,0,0,0,3.526,5.851h11.169a3.987,3.987,0,0,0,3.526-5.851A3.986,3.986,0,0,1,1572.578,226.431Z" transform="translate(-22.106 -57.2)" fill="#f1a292"/>
    <path id="Path_1007" data-name="Path 1007" d="M1640.984,226.431h-11.169a3.987,3.987,0,0,1-3.527-2.128,3.987,3.987,0,0,0,3.527,5.851h11.169a3.987,3.987,0,0,0,3.527-5.851A3.986,3.986,0,0,1,1640.984,226.431Z" transform="translate(-49.559 -57.2)" fill="#f1a292"/>
    <g id="Group_254" data-name="Group 254" transform="translate(1535.314 161.253)">
      <path id="Path_1008" data-name="Path 1008" d="M1572.578,214.531h-11.169a3.989,3.989,0,0,0-3.989,3.989c0,.031,0,.062,0,.093a3.984,3.984,0,0,0,3.984,3.9h11.169a3.989,3.989,0,0,0,0-7.978Z" transform="translate(-1557.42 -214.531)" fill="#000309"/>
      <path id="Path_1009" data-name="Path 1009" d="M1640.984,214.531h-11.169a3.989,3.989,0,0,0,0,7.978h11.169a3.984,3.984,0,0,0,3.985-3.9c0-.031,0-.062,0-.093A3.989,3.989,0,0,0,1640.984,214.531Z" transform="translate(-1584.874 -214.531)" fill="#000309"/>
    </g>
    <path id="Path_1010" data-name="Path 1010" d="M1612.578,140.937h-.6c-.1,0-.2.011-.3.015v-.015c-8.381-.6-9.579,1.8-12.572,3.592s0,3.592,0,3.592,2.395.6,2.993,2.395,4.191,4.789,4.191,4.789h6.286a6.885,6.885,0,0,0,6.885-6.885v-.6A6.885,6.885,0,0,0,1612.578,140.937Z" transform="translate(-38.303 -23.705)" fill="#334f5d"/>
    <path id="Path_1011" data-name="Path 1011" d="M1675.857,163.849h-54.5V142.014a70.653,70.653,0,0,1-93.07-17.035,42.035,42.035,0,0,0-3.275,16.315v22.554H1523.2a1.2,1.2,0,0,0-1.2,1.2v3.627a1.2,1.2,0,0,0,1.2,1.2h152.66a1.2,1.2,0,0,0,1.2-1.2v-3.627A1.2,1.2,0,0,0,1675.857,163.849Z" transform="translate(-7.89 -17.338)" fill="#059184"/>
    <path id="Path_1012" data-name="Path 1012" d="M1588.475,135.192a70.306,70.306,0,0,0,37.094-10.516v-.72a42.178,42.178,0,0,0-42.177-42.178H1571.4a42.187,42.187,0,0,0-38.9,25.862A70.521,70.521,0,0,0,1588.475,135.192Z" transform="translate(-12.104)" fill="#38b095"/>
    <path id="Path_1013" data-name="Path 1013" d="M1617.395,145.414c-.6-11.648-8.935-20.887-19.159-20.887h-6.727c-10.224,0-18.56,9.239-19.16,20.887h-.058v13.924s24.086,17.735,24.086,26.438V162.82s9.033,19.476,9.033,26.438V159.339h12.043V145.414Z" transform="translate(-28.074 -17.156)" fill="#012438"/>
    <circle id="Ellipse_87" data-name="Ellipse 87" cx="2.095" cy="2.095" r="2.095" transform="translate(1558.354 182.844)" fill="#e1665e"/>
    <circle id="Ellipse_88" data-name="Ellipse 88" cx="2.095" cy="2.095" r="2.095" transform="translate(1569.13 182.844)" fill="#e1665e"/>
    <path id="Path_1014" data-name="Path 1014" d="M1612.578,137.937h-.6c-.1,0-.2.011-.3.015v-.015c-8.381-.6-9.579,1.8-12.572,3.592s0,3.592,0,3.592,2.395.6,2.993,2.395,4.191,4.789,4.191,4.789h6.286a6.885,6.885,0,0,0,6.885-6.885v-.6A6.885,6.885,0,0,0,1612.578,137.937Z" transform="translate(-38.303 -22.501)" fill="#334f5d"/>
  </g>
</svg>
