<svg xmlns="http://www.w3.org/2000/svg" xmlns:xlink="http://www.w3.org/1999/xlink" viewBox="0 0 363 363"><defs><style>.cls-1,.cls-15{fill:none;}.cls-2{clip-path:url(#clip-path);}.cls-3{fill:#ed937d;}.cls-4{fill:#eb8177;}.cls-5{fill:#f3b495;}.cls-6{fill:#f5c09b;}.cls-7{fill:#fff;}.cls-8{fill:#000309;}.cls-9{fill:#f1a292;}.cls-10{fill:#059184;}.cls-11{fill:#e1665e;}.cls-12{fill:#38b095;}.cls-13{fill:#012438;}.cls-14{fill:#334f5d;}.cls-15{stroke:#002941;stroke-miterlimit:10;stroke-width:3px;}</style><clipPath id="clip-path"><circle class="cls-1" cx="181.5" cy="181.5" r="180"/></clipPath></defs><title>Asset 7</title><g id="Layer_2" data-name="Layer 2"><g id="Layer_2-2" data-name="Layer 2"><g class="cls-2"><polyline class="cls-3" points="140.81 324.86 140.81 361.52 218.63 361.52 218.63 323.98"/><path class="cls-4" d="M140.81,317.65v7.21c5.93,16.33,21,27.94,38.76,27.94,18,0,33.36-12,39.06-28.82v-5.74"/><path class="cls-3" d="M256.85,236.52h0a11.71,11.71,0,0,0-16-3.31l-.08-.13-121.58.76v-.1A11.69,11.69,0,0,0,102.83,236c0,.05,0,.09.07.13a11.72,11.72,0,0,0,16.24,16.53l0,.09H240.76V253a12.06,12.06,0,0,0,12.22.45,10,10,0,0,0,4.53-4.58A12.1,12.1,0,0,0,256.85,236.52Z"/><path class="cls-5" d="M240.77,245.8v23.14h0c0,.12,0,.23,0,.34a64.48,64.48,0,0,1-20.33,47.33c-.59.55-1.19,1.1-1.81,1.63a58.75,58.75,0,0,1-77.82-.59q-1.17-1-2.28-2.13a64.52,64.52,0,0,1-19.19-46.24c0-.11,0-.22,0-.34h0V245.8Z"/><path class="cls-5" d="M113.64,242.78a11.68,11.68,0,0,0,5.7-1.48v-7.56A11.68,11.68,0,0,0,103,236,11.72,11.72,0,0,0,113.64,242.78Z"/><path class="cls-5" d="M247.14,231.37a11.68,11.68,0,0,0-6.37,1.89v8a11.73,11.73,0,0,0,16.08-4.78A11.71,11.71,0,0,0,247.14,231.37Z"/><path class="cls-6" d="M240.76,205.21c-.17-34.86-27.28-63.06-60.71-63.06s-60.53,28.2-60.7,63.06c0,.11,0,.22,0,.34V245.8c0,2.18.11,4.33.31,6.46q.27,2.67.73,5.28a64.36,64.36,0,0,0,3.14,11.4,63.52,63.52,0,0,0,17.3,25.24,58.75,58.75,0,0,0,77.73.65,63.5,63.5,0,0,0,18-25.89,64.36,64.36,0,0,0,3.14-11.4c.28-1.59.51-3.19.68-4.82a68.64,68.64,0,0,0,.36-6.92c0-1.55-.06-3.08-.16-4.6l.16.1V205.55C240.77,205.43,240.77,205.32,240.76,205.21Z"/><path class="cls-7" d="M152.21,255.19a28,28,0,0,0,.95,7.2,27.53,27.53,0,0,0,2.69,6.55,27.83,27.83,0,0,0,48.41,0,27.53,27.53,0,0,0,2.69-6.55,28,28,0,0,0,1-7.2Z"/><circle class="cls-8" cx="154.23" cy="236.07" r="3.35"/><circle class="cls-8" cx="205.21" cy="236.07" r="3.35"/><path class="cls-9" d="M142.73,222a5,5,0,0,0,4.45,7.38h14.09a5,5,0,0,0,4.45-7.38"/><path class="cls-9" d="M194.39,222a5,5,0,0,0,4.45,7.38h14.09a5,5,0,0,0,4.45-7.38"/><path class="cls-8" d="M161.27,214.6H147.18a5,5,0,0,0-5,5s0,.08,0,.12a5,5,0,0,0,5,4.92h14.09a5,5,0,0,0,0-10.07Z"/><path class="cls-8" d="M212.93,214.6H198.84a5,5,0,0,0,0,10.07h14.09a5,5,0,0,0,5-4.92s0-.08,0-.12A5,5,0,0,0,212.93,214.6Z"/><path class="cls-10" d="M309.48,196H240.73V167.56a53.2,53.2,0,0,0-53.2-53.21H172.4a53.18,53.18,0,0,0-53.2,53.21V196h-2.29a1.51,1.51,0,0,0-1.51,1.51v4.57a1.51,1.51,0,0,0,1.51,1.51H309.48a1.51,1.51,0,0,0,1.51-1.51v-4.57A1.51,1.51,0,0,0,309.48,196Z"/><circle class="cls-11" cx="173.86" cy="244.48" r="2.64"/><circle class="cls-11" cx="187.45" cy="244.48" r="2.64"/><path class="cls-12" d="M194,181.9a88.68,88.68,0,0,0,46.79-13.27v-.91a53.2,53.2,0,0,0-53.2-53.2H172.43a53.22,53.22,0,0,0-49.07,32.62A88.94,88.94,0,0,0,194,181.9Z"/><path class="cls-13" d="M210.27,173c-.75-14.69-11.27-26.34-24.16-26.34h-8.49c-12.9,0-23.41,11.65-24.17,26.34h-.07v17.57s30.38,22.37,30.38,33.35v-29s11.4,24.57,11.4,33.35V190.55h15.19V173Z"/><path class="cls-14" d="M191.3,156.81h-.76l-.38,0v0c-10.57-.75-12.08,2.27-15.86,4.53s0,4.53,0,4.53,3,.76,3.78,3,5.29,6,5.29,6h7.93a8.68,8.68,0,0,0,8.68-8.68v-.76A8.68,8.68,0,0,0,191.3,156.81Z"/></g><circle class="cls-15" cx="181.5" cy="181.5" r="180"/></g></g></svg>