<svg xmlns="http://www.w3.org/2000/svg" width="125.764" height="189.63" viewBox="0 0 125.764 189.63">
  <g id="Group_305" data-name="Group 305" transform="translate(-1147.904 -40.824)">
    <circle id="Ellipse_79" data-name="Ellipse 79" cx="10.997" cy="10.997" r="10.997" transform="translate(1251.674 135.181)" fill="#f27966"/>
    <circle id="Ellipse_80" data-name="Ellipse 80" cx="10.997" cy="10.997" r="10.997" transform="translate(1147.904 135.181)" fill="#f27966"/>
    <circle id="Ellipse_81" data-name="Ellipse 81" cx="3.948" cy="3.948" r="3.948" transform="translate(1154.672 141.948)" fill="#e2373d"/>
    <circle id="Ellipse_82" data-name="Ellipse 82" cx="3.948" cy="3.948" r="3.948" transform="translate(1259.006 141.948)" fill="#e2373d"/>
    <path id="Path_981" data-name="Path 981" d="M1266.337,124.362l32.079-26.932h18.433v64a4.639,4.639,0,0,1-4.639,4.639h-1.205Z" transform="translate(-51.641 -24.682)" fill="#4d140d"/>
    <path id="Path_982" data-name="Path 982" d="M1164.2,136.746V77.537s4.639-36.713,37.111-36.713H1267.8a125.94,125.94,0,0,1-8.364,32.017c-5.932,13.891-15.787,27.042-31.84,27.042-34.019,0-58.759,41.5-58.759,41.5h0A4.639,4.639,0,0,1,1164.2,136.746Z" transform="translate(-7.106 0)" fill="#741710"/>
    <path id="Path_983" data-name="Path 983" d="M1253.342,134.133h-63.1a17.339,17.339,0,0,0-17.339,17.339v39.5a41.131,41.131,0,0,0,12.047,29.084l17.079,17.079a27,27,0,0,0,38.188,0l19.334-19.334A41.13,41.13,0,0,0,1271.6,188.72V152.39A18.257,18.257,0,0,0,1253.342,134.133Z" transform="translate(-10.901 -40.686)" fill="#fa9979"/>
    <path id="Path_984" data-name="Path 984" d="M1253.342,134.133h-63.1a17.339,17.339,0,0,0-17.339,17.339v39.5a41.131,41.131,0,0,0,12.047,29.084l17.079,17.079a27,27,0,0,0,38.188,0l19.334-19.334A41.13,41.13,0,0,0,1271.6,188.72V152.39A18.257,18.257,0,0,0,1253.342,134.133Z" transform="translate(-10.901 -40.686)" fill="#f59879"/>
    <path id="Path_985" data-name="Path 985" d="M1302.309,187.735H1283.7a4.791,4.791,0,0,1-4.481-3.1,4.784,4.784,0,0,0,4.481,6.486h18.611a4.784,4.784,0,0,0,4.481-6.486A4.79,4.79,0,0,1,1302.309,187.735Z" transform="translate(-57.12 -62.705)" fill="#e06951"/>
    <path id="Path_986" data-name="Path 986" d="M1214.309,187.735H1195.7a4.791,4.791,0,0,1-4.481-3.1,4.783,4.783,0,0,0,4.481,6.486h18.611a4.783,4.783,0,0,0,4.481-6.486A4.791,4.791,0,0,1,1214.309,187.735Z" transform="translate(-18.749 -62.705)" fill="#e06951"/>
    <path id="Path_987" data-name="Path 987" d="M1283.7,176.517h18.611a4.79,4.79,0,0,1,4.481,3.1,4.784,4.784,0,0,0-4.481-6.486H1283.7a4.784,4.784,0,0,0-4.481,6.486A4.791,4.791,0,0,1,1283.7,176.517Z" transform="translate(-57.12 -57.691)" fill="#4f170a"/>
    <path id="Path_988" data-name="Path 988" d="M1283.94,185.337h18.611a4.79,4.79,0,0,0,4.481-3.1,4.79,4.79,0,0,0-4.481-3.1H1283.94a4.791,4.791,0,0,0-4.481,3.1A4.791,4.791,0,0,0,1283.94,185.337Z" transform="translate(-57.362 -60.307)" fill="#240203"/>
    <path id="Path_989" data-name="Path 989" d="M1214.309,173.133H1195.7a4.783,4.783,0,0,0-4.481,6.486,4.791,4.791,0,0,1,4.481-3.1h18.611a4.791,4.791,0,0,1,4.481,3.1,4.783,4.783,0,0,0-4.481-6.486Z" transform="translate(-18.749 -57.691)" fill="#4f170a"/>
    <path id="Path_990" data-name="Path 990" d="M1214.551,179.133H1195.94a4.791,4.791,0,0,0-4.481,3.1,4.791,4.791,0,0,0,4.481,3.1h18.611a4.791,4.791,0,0,0,4.481-3.1A4.791,4.791,0,0,0,1214.551,179.133Z" transform="translate(-18.991 -60.307)" fill="#240203"/>
    <ellipse id="Ellipse_83" data-name="Ellipse 83" cx="3.384" cy="5.076" rx="3.384" ry="5.076" transform="translate(1231.935 136.309)" fill="#000309"/>
    <ellipse id="Ellipse_84" data-name="Ellipse 84" cx="3.384" cy="5.076" rx="3.384" ry="5.076" transform="translate(1182.87 136.309)" fill="#000309"/>
    <path id="Path_991" data-name="Path 991" d="M1248.066,356.927c-10.546,5.688-27.643,5.688-38.188,0l-17.078-9.212c-.66-.356-1.285-.726-1.9-1.1v24.72h77.263V346.064c-.255.145-.5.293-.767.435Z" transform="translate(-18.749 -140.878)" fill="#f27a62"/>
    <path id="Path_992" data-name="Path 992" d="M1267.4,320.671l-19.334,14.552c-10.546,7.937-27.643,7.937-38.188,0L1192.8,322.369c-.66-.5-1.285-1.014-1.9-1.54v11.036c.61.526,1.236,1.043,1.9,1.54l17.078,12.854c10.545,7.937,27.642,7.937,38.188,0l19.334-14.552c.263-.2.512-.4.767-.607V320.064C1267.912,320.266,1267.663,320.473,1267.4,320.671Z" transform="translate(-18.749 -121.758)" fill="#e46657"/>
    <path id="Path_993" data-name="Path 993" d="M1240.217,279.342a27,27,0,0,1-38.188,0l-17.079-17.079A41.131,41.131,0,0,1,1172.9,233.18v21.995a41.121,41.121,0,0,0,10.151,27.038c.61.7,1.236,1.386,1.9,2.045l17.079,17.079a27,27,0,0,0,38.188,0L1259.552,282c.263-.263.512-.537.767-.806a41.121,41.121,0,0,0,11.279-28.277V230.924a41.13,41.13,0,0,1-12.046,29.084Z" transform="translate(-10.901 -82.89)" fill="#f27b67"/>
    <rect id="Rectangle_1570" data-name="Rectangle 1570" width="52.596" height="6.385" rx="3.192" transform="translate(1192.16 50.401)" fill="#963735"/>
    <rect id="Rectangle_1571" data-name="Rectangle 1571" width="37.986" height="7.981" rx="3.99" transform="translate(1181.933 69.556)" fill="#963735"/>
    <path id="Path_994" data-name="Path 994" d="M1232.161,286.955c-5.557-1.075-9.362-3.255-9.362-5.772,0-3.582,7.7-6.486,17.2-6.486s17.2,2.9,17.2,6.486a2.787,2.787,0,0,1-.448,1.468,67.778,67.778,0,0,1,7.116.634,13.3,13.3,0,0,0,1.228-5.594v-3.558H1214.9v3.558a13.361,13.361,0,0,0,13.362,13.361h2.145a2.508,2.508,0,0,1-.28-1.128C1230.131,288.867,1230.86,287.863,1232.161,286.955Z" transform="translate(-29.214 -101.73)" fill="#b81242"/>
    <path id="Path_995" data-name="Path 995" d="M1246.1,275.133c-9.5,0-17.2,2.9-17.2,6.486,0,2.517,3.805,4.7,9.362,5.772,3.683-2.569,11.99-4.362,21.656-4.362.995,0,1.973.021,2.936.058a2.787,2.787,0,0,0,.448-1.468C1263.306,278.037,1255.605,275.133,1246.1,275.133Z" transform="translate(-35.319 -102.166)" fill="#690013"/>
    <path id="Path_996" data-name="Path 996" d="M1268.527,289.191c-.963-.037-1.941-.058-2.936-.058-9.666,0-17.974,1.793-21.656,4.362-1.3.908-2.03,1.912-2.03,2.969a2.512,2.512,0,0,0,.28,1.128h21.325a13.361,13.361,0,0,0,12.133-7.767A67.776,67.776,0,0,0,1268.527,289.191Z" transform="translate(-40.987 -108.271)" fill="#ea2962"/>
    <rect id="Rectangle_1572" data-name="Rectangle 1572" width="42.861" height="12.407" rx="6.204" transform="translate(1189.638 153.792)" fill="#e55354"/>
    <rect id="Rectangle_1573" data-name="Rectangle 1573" width="43.989" height="2.256" transform="translate(1189.074 172.403)" fill="#d6dae6"/>
    <rect id="Rectangle_1574" data-name="Rectangle 1574" width="43.989" height="3.948" transform="translate(1189.074 174.658)" fill="#f2f0f3"/>
    <rect id="Rectangle_1575" data-name="Rectangle 1575" width="20.303" height="54.705" rx="10.151" transform="translate(1200.917 114.878)" fill="#e36557"/>
    <rect id="Rectangle_1576" data-name="Rectangle 1576" width="7.332" height="23.687" rx="3.666" transform="translate(1211.069 126.721)" fill="#f59879"/>
  </g>
</svg>
