<svg xmlns="http://www.w3.org/2000/svg" xmlns:xlink="http://www.w3.org/1999/xlink" viewBox="0 0 363 363"><defs><style>.cls-1,.cls-22{fill:none;}.cls-2{clip-path:url(#clip-path);}.cls-3{fill:#f27a62;}.cls-4{fill:#e46657;}.cls-5{fill:#f27b67;}.cls-6{fill:#4d140d;}.cls-7{fill:#741710;}.cls-8{fill:#963735;}.cls-9{fill:#e2373d;}.cls-10{fill:#f59879;}.cls-11{fill:#000309;}.cls-12{fill:#e55354;}.cls-13{fill:#e36557;}.cls-14{fill:#b81242;}.cls-15{fill:#690013;}.cls-16{fill:#ea2962;}.cls-17{fill:#f2f0f3;}.cls-18{fill:#d6dae6;}.cls-19{fill:#e06951;}.cls-20{fill:#4f170a;}.cls-21{fill:#240203;}.cls-22{stroke:#002941;stroke-miterlimit:10;stroke-width:3px;}</style><clipPath id="clip-path"><circle class="cls-1" cx="181.04" cy="181.45" r="180"/></clipPath></defs><title>Asset 4</title><g id="Layer_2" data-name="Layer 2"><g id="Layer_2-2" data-name="Layer 2"><g class="cls-2"><polyline class="cls-3" points="129.31 300.76 129.31 362.13 232.77 362.13 232.77 299.4"/><path class="cls-4" d="M129.31,279.72v21c.82.94,1.66,1.86,2.54,2.74l22.87,22.87a36.15,36.15,0,0,0,51.13,0l25.89-25.89c.35-.35.69-.72,1-1.08V279.77"/><path class="cls-5" d="M250.52,195.24a14.7,14.7,0,0,0-4.17.61H115.79v0a14.72,14.72,0,1,0-.07,28.22v20.84a55.05,55.05,0,0,0,13.59,36.2c.82.94,1.66,1.86,2.54,2.74l22.87,22.87a36.15,36.15,0,0,0,51.13,0l25.89-25.89c.35-.35.69-.72,1-1.08a55.06,55.06,0,0,0,15.1-37.86V224.44a14.43,14.43,0,0,0,2.65.25,14.73,14.73,0,0,0,0-29.45Z"/><path class="cls-6" d="M186.28,147.71l42.95-36.06h24.68v85.69a6.21,6.21,0,0,1-6.21,6.21h-1.61Z"/><path class="cls-7" d="M109.15,197.37V118.05s6.21-49.19,49.72-49.19h89.07s-2.31,22.07-11.2,42.9c-8,18.61-21.15,36.23-42.66,36.23-45.57,0-78.72,55.6-78.72,55.6h0A6.22,6.22,0,0,1,109.15,197.37Z"/><rect class="cls-8" x="156.12" y="81.69" width="70.46" height="8.55" rx="4.28"/><rect class="cls-8" x="142.42" y="107.36" width="50.89" height="10.69" rx="5.35"/><circle class="cls-9" cx="111.19" cy="209.59" r="5.29"/><circle class="cls-9" cx="250.89" cy="209.59" r="5.29"/><path class="cls-10" d="M223.43,139.36H138.94a23.22,23.22,0,0,0-23.22,23.22v52.9a55.07,55.07,0,0,0,16.13,38.94l22.87,22.87a36.15,36.15,0,0,0,51.13,0l25.89-25.89a55.08,55.08,0,0,0,16.13-39V163.81A24.45,24.45,0,0,0,223.43,139.36Z"/><ellipse class="cls-11" cx="213.89" cy="203.55" rx="4.53" ry="6.8"/><ellipse class="cls-11" cx="148.19" cy="203.55" rx="4.53" ry="6.8"/><rect class="cls-12" x="152.72" y="220.16" width="57.39" height="16.61" rx="8.31"/><rect class="cls-13" x="167.83" y="168.06" width="27.19" height="73.25" rx="13.59"/><rect class="cls-10" x="181.42" y="183.92" width="9.82" height="31.72" rx="4.91"/><path class="cls-14" d="M213,257.34a17.88,17.88,0,0,0,1.65-7.49v-4.77H147.44v4.77a17.89,17.89,0,0,0,17.89,17.89h2.87"/><path class="cls-15" d="M181,245.84c-12.72,0-23,3.89-23,8.68,0,3.37,5.09,6.29,12.53,7.73,4.94-3.44,16.06-5.84,29-5.84,1.33,0,2.64,0,3.93.08a3.72,3.72,0,0,0,.6-2C204.07,249.73,193.76,245.84,181,245.84Z"/><path class="cls-16" d="M203.47,256.49c-1.29-.05-2.6-.08-3.93-.08-12.94,0-24.06,2.4-29,5.84-1.74,1.22-2.71,2.56-2.71,4a3.3,3.3,0,0,0,.37,1.51h28.55A17.88,17.88,0,0,0,213,257.34,90.76,90.76,0,0,0,203.47,256.49Z"/><rect class="cls-17" x="151.97" y="245.74" width="58.9" height="7.65"/><rect class="cls-18" x="151.97" y="245.08" width="58.9" height="3.02"/><path class="cls-19" d="M196.19,177.5a6.26,6.26,0,0,0-.42,2.26,6.41,6.41,0,0,0,6.42,6.42h24.92a6.42,6.42,0,0,0,6-8.68"/><path class="cls-19" d="M129.73,177.5a6.4,6.4,0,0,0,6,8.68h24.92a6.41,6.41,0,0,0,6.42-6.42,6.26,6.26,0,0,0-.42-2.26"/><path class="cls-20" d="M233.11,177.5a6.57,6.57,0,0,0,.41-2.27,6.42,6.42,0,0,0-6.41-6.42H202.19a6.42,6.42,0,0,0-6.42,6.42,6.35,6.35,0,0,0,.42,2.27"/><path class="cls-20" d="M166.65,177.5a6.35,6.35,0,0,0,.42-2.27,6.42,6.42,0,0,0-6.42-6.42H135.73a6.43,6.43,0,0,0-6.42,6.42,6.58,6.58,0,0,0,.42,2.27"/><path class="cls-21" d="M202.19,181.65h24.92a6.43,6.43,0,0,0,6-4.15,6.42,6.42,0,0,0-6-4.16H202.19a6.4,6.4,0,0,0-6,4.16A6.41,6.41,0,0,0,202.19,181.65Z"/><path class="cls-21" d="M160.65,173.34H135.73a6.42,6.42,0,0,0-6,4.16,6.43,6.43,0,0,0,6,4.15h24.92a6.41,6.41,0,0,0,6-4.15A6.4,6.4,0,0,0,160.65,173.34Z"/></g><circle class="cls-22" cx="181.5" cy="181.5" r="180"/></g></g></svg>