<svg xmlns="http://www.w3.org/2000/svg" xmlns:xlink="http://www.w3.org/1999/xlink" width="220" height="220" viewBox="0 0 220 220">
  <defs>
    <linearGradient id="linear-gradient" x1="1.202" y1="0.5" x2="-0.512" y2="0.5" gradientUnits="objectBoundingBox">
      <stop offset="0" stop-color="#41bfbf"/>
      <stop offset="1" stop-color="#abd48d"/>
    </linearGradient>
    <linearGradient id="linear-gradient-2" x1="-11.393" y1="0.368" x2="7.97" y2="0.5" xlink:href="#linear-gradient"/>
    <linearGradient id="linear-gradient-3" x1="-3.149" y1="0.5" x2="1.345" y2="0.5" xlink:href="#linear-gradient"/>
    <linearGradient id="linear-gradient-4" x1="-111.671" y1="0.682" x2="-111.525" y2="0.283" gradientUnits="objectBoundingBox">
      <stop offset="0" stop-color="#83d4f6"/>
      <stop offset="1" stop-color="#fff"/>
    </linearGradient>
    <linearGradient id="linear-gradient-5" x1="-150.202" y1="0.5" x2="-149.202" y2="0.5" gradientUnits="objectBoundingBox">
      <stop offset="0" stop-color="#66cdf5"/>
      <stop offset="1" stop-color="#8d4b9c"/>
    </linearGradient>
    <linearGradient id="linear-gradient-6" x1="-364.446" y1="0.5" x2="-363.446" y2="0.5" gradientUnits="objectBoundingBox">
      <stop offset="0" stop-color="#f39254"/>
      <stop offset="0.538" stop-color="#ee716a"/>
      <stop offset="1" stop-color="#ec5a7b"/>
    </linearGradient>
    <linearGradient id="linear-gradient-7" x1="-226.05" y1="0.5" x2="-225.05" y2="0.5" xlink:href="#linear-gradient-5"/>
    <linearGradient id="linear-gradient-8" y1="0.5" x2="1" y2="0.5" gradientUnits="objectBoundingBox">
      <stop offset="0" stop-color="#8d4b9c"/>
      <stop offset="1" stop-color="#00c0f2"/>
    </linearGradient>
    <linearGradient id="linear-gradient-9" x1="0" y1="0" x2="1.838" y2="0" xlink:href="#linear-gradient-8"/>
  </defs>
  <g id="Group_366" data-name="Group 366" transform="translate(-60 -1088)">
    <circle id="Ellipse_49" data-name="Ellipse 49" cx="110" cy="110" r="110" transform="translate(60 1088)" fill="#dfdfdf"/>
    <g id="Group_139" data-name="Group 139" transform="translate(132.52 1102.651)">
      <path id="Path_191" data-name="Path 191" d="M1651.8,876.383,1588,831.722V689.286l63.8,44.661Z" transform="translate(-1538.7 -685.926)" fill="url(#linear-gradient)"/>
      <path id="Path_192" data-name="Path 192" d="M1696.342,906l4.849-3.351V759.717l-4.849,3.355Z" transform="translate(-1583.254 -715.538)" fill="url(#linear-gradient-2)"/>
      <path id="Path_193" data-name="Path 193" d="M1592.853,683.58,1588,686.946l63.8,44.81,4.833-3.349Z" transform="translate(-1538.7 -683.58)" fill="url(#linear-gradient-3)"/>
      <path id="Path_194" data-name="Path 194" d="M1644.07,817.187l-47.146-32.452v-2.8l47.146,32.452Z" transform="translate(-1542.37 -724.269)" fill="#fff"/>
      <path id="Path_195" data-name="Path 195" d="M1661.373,840.112,1639,824.734v-2.8l22.373,15.378Z" transform="translate(-1559.673 -740.783)" fill="#fff"/>
      <path id="Path_196" data-name="Path 196" d="M1617.576,809.935l-20.651-14.2v-2.8l20.651,14.2Z" transform="translate(-1542.177 -728.792)" fill="#fff"/>
      <path id="Path_197" data-name="Path 197" d="M1671.576,959.935l-20.651-14.2v-2.8l20.651,14.2Z" transform="translate(-1564.577 -790.885)" fill="#fff"/>
      <path id="Path_198" data-name="Path 198" d="M1652.326,844.944,1617,820.735v-2.8l35.326,24.209Z" transform="translate(-1550.626 -739.145)" fill="#fff"/>
      <path id="Path_199" data-name="Path 199" d="M1627,838.411l-30.072-20.677v-2.8L1627,835.615Z" transform="translate(-1542.202 -737.898)" fill="#fff"/>
      <path id="Path_200" data-name="Path 200" d="M1604.623,812.1l-7.7-5.369v-2.8l7.7,5.369Z" transform="translate(-1542.15 -733.326)" fill="#fff"/>
      <path id="Path_201" data-name="Path 201" d="M1636.468,771.782l-39.348-27.554V714.239l39.348,27.553Z" transform="translate(-1542.314 -696.188)" fill="url(#linear-gradient-4)"/>
      <path id="Path_202" data-name="Path 202" d="M1643.488,777.96l-6.738-13.68-22.63,7.51,29.367,20.523Z" transform="translate(-1549.322 -716.955)" fill="url(#linear-gradient-5)"/>
      <path id="Path_203" data-name="Path 203" d="M1629.9,751.608a6.069,6.069,0,1,1-5.826-6.736A6.306,6.306,0,0,1,1629.9,751.608Z" transform="translate(-1550.794 -708.916)" fill="url(#linear-gradient-6)"/>
      <path id="Path_204" data-name="Path 204" d="M1597.1,757.193l19.513,13.71-7-25.154-12.514,3.233Z" transform="translate(-1542.245 -709.289)" fill="url(#linear-gradient-7)"/>
      <path id="Path_205" data-name="Path 205" d="M1596.809,838.229a3.942,3.942,0,0,0,1.652,3.148c.913.525,1.652-.032,1.652-1.245a3.94,3.94,0,0,0-1.652-3.148C1597.548,836.459,1596.809,837.016,1596.809,838.229Z" transform="translate(-1542.094 -746.897)" fill="#fff"/>
      <path id="Path_206" data-name="Path 206" d="M1606.809,845.229a3.942,3.942,0,0,0,1.652,3.148c.913.525,1.652-.032,1.652-1.245a3.941,3.941,0,0,0-1.652-3.148C1607.548,843.459,1606.809,844.016,1606.809,845.229Z" transform="translate(-1546.229 -749.79)" fill="#fff"/>
      <path id="Path_207" data-name="Path 207" d="M1617.805,851.375a.737.737,0,0,1,.362.12,3.35,3.35,0,0,1,1.357,2.637c0,.425-.125.854-.407.854a.746.746,0,0,1-.362-.119,3.351,3.351,0,0,1-1.357-2.637c0-.425.126-.854.407-.854m0-.589c-.587,0-1,.54-1,1.443a3.941,3.941,0,0,0,1.652,3.148,1.332,1.332,0,0,0,.656.2c.586,0,1-.539,1-1.443a3.941,3.941,0,0,0-1.652-3.148,1.327,1.327,0,0,0-.656-.2Z" transform="translate(-1550.363 -752.683)" fill="#fff"/>
      <path id="Path_208" data-name="Path 208" d="M1627.805,858.375a.737.737,0,0,1,.362.12,3.35,3.35,0,0,1,1.357,2.637c0,.425-.126.854-.407.854a.748.748,0,0,1-.362-.119,3.351,3.351,0,0,1-1.357-2.637c0-.425.126-.854.407-.854m0-.589c-.586,0-1,.54-1,1.443a3.942,3.942,0,0,0,1.652,3.148,1.332,1.332,0,0,0,.656.2c.586,0,1-.539,1-1.443a3.941,3.941,0,0,0-1.652-3.148,1.326,1.326,0,0,0-.656-.2Z" transform="translate(-1554.498 -755.576)" fill="#fff"/>
      <path id="Path_209" data-name="Path 209" d="M1637.805,865.375a.739.739,0,0,1,.362.12,3.35,3.35,0,0,1,1.357,2.637c0,.425-.125.854-.407.854a.747.747,0,0,1-.362-.119,3.351,3.351,0,0,1-1.357-2.637c0-.425.126-.854.407-.854m0-.589c-.586,0-1,.54-1,1.443a3.942,3.942,0,0,0,1.652,3.148,1.332,1.332,0,0,0,.656.2c.586,0,1-.539,1-1.442a3.941,3.941,0,0,0-1.652-3.148,1.326,1.326,0,0,0-.656-.2Z" transform="translate(-1558.633 -758.469)" fill="#fff"/>
      <path id="Path_210" data-name="Path 210" d="M1530.662,867.35l-2.35,6.186a36.814,36.814,0,0,0-2.3,13.558c0,20.826,12.7,45.019,28.366,54.037a26.763,26.763,0,0,0,6.433,2.717l6.265,2.284,5.888-3.533,0,0c5.989-3.466,9.782-11.472,9.782-22.844,0-20.825-12.7-45.018-28.366-54.036-7.634-4.395-14.558-4.364-19.657-.779" transform="translate(-1520.125 -757.735)" fill="url(#linear-gradient-8)"/>
      <path id="Path_211" data-name="Path 211" d="M1516.013,893.091c0,20.826,12.7,45.019,28.366,54.037s28.366-.555,28.366-21.38-12.7-45.018-28.366-54.036S1516.013,872.265,1516.013,893.091Z" transform="translate(-1516.013 -760.198)" fill="url(#linear-gradient-9)"/>
      <g id="Group_133" data-name="Group 133" transform="translate(11.768 136.687)" style="isolation: isolate">
        <path id="Path_212" data-name="Path 212" d="M1559.749,918.151c-2.828-1.633-5.127-.322-5.136,2.926,0,.071.008.144.01.214l-9.924-.021a10.383,10.383,0,0,0-3.564-3.729c-2.827-1.632-5.125-.323-5.135,2.925a11.24,11.24,0,0,0,5.1,8.836,4.059,4.059,0,0,0,3.01.608l10.465,11.866c-.012.15-.022.3-.023.459a11.246,11.246,0,0,0,5.1,8.837c2.826,1.631,5.125.322,5.135-2.927a11.242,11.242,0,0,0-5.1-8.834,3.806,3.806,0,0,0-3.338-.5l-10.186-11.549a5.929,5.929,0,0,0,.072-.885c0-.034,0-.07,0-.105l9.986.021a10.322,10.322,0,0,0,3.5,3.623c2.825,1.631,5.124.32,5.133-2.926a11.245,11.245,0,0,0-5.1-8.836" transform="translate(-1536 -916.838)" fill="#fff"/>
      </g>
    </g>
  </g>
</svg>
