<svg id="Group_6" data-name="Group 6" xmlns="http://www.w3.org/2000/svg" width="220" height="60" viewBox="0 0 220 60">
  <rect id="Rectangle_1544" data-name="Rectangle 1544" width="220" height="60" rx="10" fill="#002942"/>
  <path id="Path_14" data-name="Path 14" d="M1698.966,280.31A4.653,4.653,0,0,1,1695.6,279a4.327,4.327,0,0,1-1.359-3.2,4.231,4.231,0,0,1,1.359-3.193,4.639,4.639,0,0,1,3.361-1.31,4.7,4.7,0,0,1,3.365,1.31,4.431,4.431,0,0,1,0,6.387A4.612,4.612,0,0,1,1698.966,280.31Zm-39.894,0a4.83,4.83,0,0,1-3.38-1.293,4.4,4.4,0,0,1,0-6.421,4.768,4.768,0,0,1,3.38-1.293,4.965,4.965,0,0,1,1.887.368,3.819,3.819,0,0,1,1.437.966l.089.1-1,.924-.1-.115a2.928,2.928,0,0,0-2.323-.942,3.318,3.318,0,0,0-2.316.89,3.234,3.234,0,0,0,0,4.628,3.541,3.541,0,0,0,4.695,0,2.344,2.344,0,0,0,.679-1.449h-3.21v-1.3h4.588l.018.118a4.467,4.467,0,0,1,.067.653,3.786,3.786,0,0,1-1.145,2.884A4.617,4.617,0,0,1,1659.072,280.31Zm53.043-.184H1710.7l-4.333-6.522.037,1.174v5.344h-1.414v-8.635h1.614l.044.066,4.074,6.143-.037-1.171v-5.038h1.429v8.638Zm-23.779,0H1686.9v-7.339h-2.486v-1.3h6.4v1.3h-2.486v7.339Zm-5.086,0h-1.429v-8.638h1.429Zm-8.033,0h-1.43v-7.339H1671.3v-1.3h6.4v1.3h-2.486Zm-4.82-.014h-5.481v-8.624h5.481v1.3h-4.048v2.37H1670v1.286h-3.653v2.37h4.048Zm26.254-2.005a3.266,3.266,0,0,0,2.316.9,3.182,3.182,0,0,0,2.316-.9,3.275,3.275,0,0,0,0-4.6,3.272,3.272,0,0,0-2.316-.9,3.167,3.167,0,0,0-2.312.9,3.28,3.28,0,0,0-.008,4.6Z" transform="translate(-1583.731 -261.539)" fill="#fff"/>
  <path id="Path_15" data-name="Path 15" d="M1686.989,690.078a6.376,6.376,0,1,0,6.351,6.376A6.254,6.254,0,0,0,1686.989,690.078Zm0,10.225a3.876,3.876,0,1,1,3.571-3.864A3.679,3.679,0,0,1,1686.989,700.3Zm-13.857-10.225a6.376,6.376,0,1,0,6.351,6.376A6.254,6.254,0,0,0,1673.133,690.078Zm0,10.225a3.876,3.876,0,1,1,3.571-3.864A3.679,3.679,0,0,1,1673.133,700.3Zm-16.488-8.278v2.7h6.433a5.707,5.707,0,0,1-1.455,3.4,6.543,6.543,0,0,1-4.963,1.981,7.2,7.2,0,0,1,0-14.388,6.843,6.843,0,0,1,4.844,1.932l1.9-1.913a9.314,9.314,0,0,0-6.73-2.732,9.893,9.893,0,1,0,0,19.785,8.746,8.746,0,0,0,9.195-9.108,8.4,8.4,0,0,0-.149-1.682h-9.079S1656.644,692.025,1656.644,692.025Zm67.442,2.1a5.892,5.892,0,0,0-5.423-4.062,6.039,6.039,0,0,0-5.969,6.376,6.211,6.211,0,0,0,6.284,6.376,6.277,6.277,0,0,0,5.275-2.829l-2.149-1.45a3.6,3.6,0,0,1-3.111,1.764,3.232,3.232,0,0,1-3.077-1.932l8.467-3.532S1724.086,694.126,1724.086,694.126Zm-8.634,2.13a3.489,3.489,0,0,1,3.307-3.715,2.439,2.439,0,0,1,2.35,1.349Zm-6.878,6.178h2.78V683.7h-2.78Zm-4.566-10.939h-.1a4.372,4.372,0,0,0-3.341-1.431,6.378,6.378,0,0,0,0,12.74,4.361,4.361,0,0,0,3.341-1.45h.1v.916c0,2.433-1.292,3.745-3.374,3.745a3.513,3.513,0,0,1-3.192-2.265l-2.417,1.017a6.046,6.046,0,0,0,5.6,3.763c3.259,0,6.021-1.932,6.021-6.645v-11.44h-2.628v1.05Zm-3.192,8.809a3.879,3.879,0,0,1,0-7.725c1.9,0,3.374,1.648,3.374,3.879A3.531,3.531,0,0,1,1700.816,700.3Zm36.288-16.6h-6.648v18.731h2.78V695.34h3.871a5.825,5.825,0,1,0,0-11.638Zm.082,9.022h-3.953V686.3h3.953a3.214,3.214,0,1,1,0,6.428Zm17.168-2.68a5.229,5.229,0,0,0-4.963,2.863l2.465,1.031a2.639,2.639,0,0,1,2.531-1.383,2.69,2.69,0,0,1,2.929,2.414v.2a6.2,6.2,0,0,0-2.9-.718c-2.661,0-5.36,1.465-5.36,4.212,0,2.515,2.183,4.13,4.614,4.13a3.907,3.907,0,0,0,3.537-1.831h.1v1.45h2.68v-7.175C1759.991,691.895,1757.527,690.045,1754.353,690.045ZM1754,700.3c-.909,0-2.182-.448-2.182-1.6,0-1.45,1.589-2,2.943-2a4.8,4.8,0,0,1,2.532.632A3.355,3.355,0,0,1,1754,700.3Zm15.765-9.859-3.192,8.125h-.1l-3.307-8.125h-2.992l4.963,11.357-2.828,6.312h2.9l7.635-17.67Zm-25.026,11.989h2.78V683.7h-2.78Z" transform="translate(-1576.131 -658.222)" fill="#fff" fill-rule="evenodd"/>
  <path id="Path_16" data-name="Path 16" d="M399.908,284.894l16.753,16.871,4.323-4.354c-5.907-3.61-13.819-8.453-17.378-10.63l-2.384-1.455A2.946,2.946,0,0,0,399.908,284.894Zm-2.557,2.02a3.126,3.126,0,0,0-.063.572v33.342a2.756,2.756,0,0,0,.047.4l17.043-17.166Zm26.475,12.234-4.881,4.916,4.8,4.831c2.541-1.551,4.3-2.628,4.5-2.747a2.562,2.562,0,0,0,1.337-2.211,2.466,2.466,0,0,0-1.331-2.1C428.058,301.728,426.322,300.672,423.826,299.148Zm-7.164,7.216-16.7,16.823a2.7,2.7,0,0,0,.959-.343L420.9,310.632Z" transform="translate(-374.022 -274.382)" fill="#fff"/>
</svg>
