<svg xmlns="http://www.w3.org/2000/svg" xmlns:xlink="http://www.w3.org/1999/xlink" width="133.123" height="44.02" viewBox="0 0 133.123 44.02">
  <defs>
    <linearGradient id="linear-gradient" y1="1" x2="1" gradientUnits="objectBoundingBox">
      <stop offset="0" stop-color="#41bbc0"/>
      <stop offset="1" stop-color="#abd48d"/>
    </linearGradient>
  </defs>
  <g id="Group_337" data-name="Group 337" transform="translate(-435.467 -359.48)">
    <path id="Union_1" data-name="Union 1" d="M357.978-2540.011a12.979,12.979,0,0,1-1.217-2.5l-.008-.021,0,0a3.213,3.213,0,0,1-.007-2.159,3.206,3.206,0,0,1,4.092-1.964,3.206,3.206,0,0,1,1.933,1.9c.008.023.017.046.025.069s.021.061.031.092a6.49,6.49,0,0,0,.566,1.15,6.408,6.408,0,0,0,8.841,2.053,6.4,6.4,0,0,0,2.642-3.287l0-.008.027-.075a3.2,3.2,0,0,1,.743-1.154,3.2,3.2,0,0,1,4.537.015,3.223,3.223,0,0,1,.8,3.182c-.019.066-.041.13-.065.194-.014.041-.031.083-.048.123a12.793,12.793,0,0,1-5.2,6.427,12.742,12.742,0,0,1-6.826,1.981A12.814,12.814,0,0,1,357.978-2540.011Zm18.215-11.454h0l-1.366-1.354a12.785,12.785,0,0,1-7.549,1.369l-.161-.021-.094-.013a12.806,12.806,0,0,1-4.431-1.492,12.815,12.815,0,0,1-4.967-17.439,12.844,12.844,0,0,1,14.527-6.149l.115.031.141.04a12.791,12.791,0,0,1,7.713,6.161,11.239,11.239,0,0,1,1.192,3.069l.042.222a3.2,3.2,0,0,1-2.415,3.837,3.208,3.208,0,0,1-3.841-2.413h0a6.4,6.4,0,0,0-.629-1.656,6.438,6.438,0,0,0-.908-1.264c-.065-.055-.128-.112-.189-.173h0a6.409,6.409,0,0,0-1.414-1.067,6.419,6.419,0,0,0-8.726,2.478l-.005.01c-.045.08-.086.161-.128.243l-.056.114c-.021.043-.04.087-.06.131-.032.074-.065.147-.094.221,0,.006,0,.012-.006.017a6.392,6.392,0,0,0,.334,5.451,6.421,6.421,0,0,0,8.711,2.542,6.4,6.4,0,0,0,1.186-.859,3.243,3.243,0,0,1,4.521.343c.029.033.057.067.084.1L380.73-2556h0c.048.048.1.1.14.148a3.2,3.2,0,0,1-.29,4.523,3.193,3.193,0,0,1-2.116.8A3.2,3.2,0,0,1,376.193-2551.466Zm69.933-4.807a12.833,12.833,0,0,1,2.234-18.011,12.838,12.838,0,0,1,15.243-.4l.009.006c.048.033.095.066.141.1a5.3,5.3,0,0,1,1.063,1.031,5.319,5.319,0,0,1,1.054,2.392,5.355,5.355,0,0,1-1.012,4.122,5.312,5.312,0,0,1-.977.989l-.038.03-1.263.983-4.362,3.4a3.21,3.21,0,0,1-4.643-.755,3.249,3.249,0,0,1,.751-4.347l1.478-1.151,2.56-1.993a.213.213,0,0,0-.059-.369,6.442,6.442,0,0,0-3.048-.275,6.393,6.393,0,0,0-3.232,1.489,6.439,6.439,0,0,0-1.014,8.6,6.418,6.418,0,0,0,9.155,1.316l.005,0,.017.023a3.209,3.209,0,0,1,4.54.609,3.255,3.255,0,0,1-.6,4.452v0h0a12.777,12.777,0,0,1-7.872,2.706A12.813,12.813,0,0,1,446.126-2556.273Zm-47.413,4.938a12.833,12.833,0,0,1-12.81-12.856A12.834,12.834,0,0,1,398.759-2577a12.835,12.835,0,0,1,12.81,12.857,12.832,12.832,0,0,1-12.833,12.81Zm-6.4-12.874a6.416,6.416,0,0,0,6.4,6.428,6.416,6.416,0,0,0,6.428-6.4,6.415,6.415,0,0,0-6.4-6.428h-.012A6.416,6.416,0,0,0,392.31-2564.208Zm81.843,12.71a3.209,3.209,0,0,1-2.2-3.045v-5.007q-.007-.344,0-.688v-13.555a3.208,3.208,0,0,1,3.208-3.208,3.208,3.208,0,0,1,3.208,3.208v.541a17.072,17.072,0,0,1,5.409-2.912l.057-.017v.005a3.207,3.207,0,0,1,4,2.072,3.207,3.207,0,0,1-1.937,4c-.035.014-.07.026-.105.038l-.018.006-.136.041a10.7,10.7,0,0,0-7.272,9.919c0,.142,0,.285,0,.427v5.131a3.208,3.208,0,0,1-3.208,3.208A3.223,3.223,0,0,1,474.153-2551.5Zm-49.408-.87a4.3,4.3,0,0,1-1.1-1.457l-.509-1.074-7.843-16.872-.4-.928a3.208,3.208,0,0,1-.179-1.367,3.22,3.22,0,0,1,3.051-2.93,3.205,3.205,0,0,1,2.943,1.635h0l.2.42,6.467,13.872a.18.18,0,0,0,.326,0l6.583-14.147,0,0a3.206,3.206,0,0,1,2.866-1.784,3.228,3.228,0,0,1,3.214,3.062,3.212,3.212,0,0,1-.373,1.653l-8.061,17.385-.491,1.034a4.284,4.284,0,0,1-1.124,1.5,4.265,4.265,0,0,1-2.782,1.022A4.26,4.26,0,0,1,424.745-2552.369Z" transform="translate(80 2937)" stroke="rgba(0,0,0,0)" stroke-miterlimit="10" stroke-width="1" fill="url(#linear-gradient)"/>
  </g>
</svg>
