<svg xmlns="http://www.w3.org/2000/svg" width="185" height="60" viewBox="0 0 185 60">
  <g id="Group_1" data-name="Group 1" transform="translate(-436 -360)">
    <path id="Path_1" data-name="Path 1" d="M696.964,360a17.957,17.957,0,1,0,17.924,17.99A17.957,17.957,0,0,0,696.964,360Zm-.063,26.895a8.978,8.978,0,1,1,8.995-8.962A8.978,8.978,0,0,1,696.9,386.895Z" transform="translate(-201.048)" fill="#ef7667"/>
    <path id="Path_2" data-name="Path 2" d="M944.386,360a4.489,4.489,0,0,0-4.011,2.5l-.006,0-9.212,19.8a.251.251,0,0,1-.455,0l-9.05-19.412-.274-.587h0a4.49,4.49,0,0,0-8.137,3.725l.564,1.3,10.974,23.61.712,1.5a5.987,5.987,0,0,0,10.9-.055l.688-1.447L948.362,366.6a4.489,4.489,0,0,0-3.975-6.6Z" transform="translate(-394.669 0)" fill="#ef7667"/>
    <path id="Path_3" data-name="Path 3" d="M1403.191,364.054a4.489,4.489,0,0,0-5.6-2.9v-.008l-.08.025a23.891,23.891,0,0,0-7.569,4.075v-.757a4.489,4.489,0,0,0-8.979,0v18.967q-.01.48,0,.963v7.005a4.489,4.489,0,0,0,8.979,0v-7.179q-.006-.3,0-.6a14.97,14.97,0,0,1,10.176-13.88c.063-.018.127-.036.19-.056l.025-.009c.05-.016.1-.034.148-.052A4.489,4.489,0,0,0,1403.191,364.054Z" transform="translate(-782.412 0)" fill="#ef7667"/>
    <path id="Path_4" data-name="Path 4" d="M470.6,389.389h0l-4.214-4.182c-.038-.047-.076-.094-.117-.14a4.538,4.538,0,0,0-6.326-.48,8.962,8.962,0,0,1-14.317-9.983l.01-.024c.042-.1.087-.207.132-.31.027-.061.055-.122.084-.182s.052-.107.078-.161c.057-.114.116-.227.178-.34l.008-.014a8.982,8.982,0,0,1,14.19-1.973h0c.085.085.174.165.264.242a8.968,8.968,0,0,1,2.151,4.087h0a4.489,4.489,0,0,0,8.754-1.993l-.06-.311a15.694,15.694,0,0,0-1.668-4.294,17.9,17.9,0,0,0-10.792-8.621l-.2-.055-.161-.044a17.943,17.943,0,1,0-7.177,35.1l.131.019.225.029a17.888,17.888,0,0,0,10.564-1.915l1.911,1.895h0A4.487,4.487,0,0,0,470.8,389.6C470.736,389.525,470.67,389.456,470.6,389.389Z" transform="translate(0 0)" fill="#ef7667"/>
    <path id="Path_5" data-name="Path 5" d="M467.426,604.105a4.486,4.486,0,0,0-1.041,1.616c-.012.035-.025.069-.037.1l0,.012a8.969,8.969,0,0,1-16.067,1.726,9.07,9.07,0,0,1-.792-1.609c-.014-.043-.028-.086-.044-.129s-.023-.064-.035-.1a4.49,4.49,0,0,0-8.421,3.116l0,.007.011.029a17.942,17.942,0,0,0,33.738.143c.023-.057.045-.114.067-.172.033-.09.063-.18.09-.271a4.492,4.492,0,0,0-7.466-4.475Z" transform="translate(-3.933 -200.789)" fill="#ef7667"/>
    <path id="Path_6" data-name="Path 6" d="M1164.336,372.8l-2.069,1.61a4.546,4.546,0,0,0-1.051,6.083,4.49,4.49,0,0,0,6.5,1.057l6.105-4.753,1.767-1.375.052-.041a7.481,7.481,0,0,0-.18-11.943l-.2-.141-.012-.009a17.959,17.959,0,1,0,.737,28.891h0a4.555,4.555,0,0,0,.836-6.23,4.489,4.489,0,0,0-6.352-.853l-.025-.032-.007.006a8.979,8.979,0,1,1-2.6-15.572.3.3,0,0,1,.084.517Z" transform="translate(-588.445 -0.041)" fill="#ef7667"/>
  </g>
</svg>
