<svg xmlns="http://www.w3.org/2000/svg" xmlns:xlink="http://www.w3.org/1999/xlink" width="212" height="130" viewBox="0 0 212 130">
  <defs>
    <linearGradient id="linear-gradient" x1="-0.032" y1="0.5" x2="0.873" y2="0.5" gradientUnits="objectBoundingBox">
      <stop offset="0.455" stop-color="#41bfbf"/>
      <stop offset="1" stop-color="#abd48d"/>
    </linearGradient>
    <linearGradient id="linear-gradient-2" x1="0.901" y1="0.5" x2="-0.099" y2="0.5" gradientUnits="objectBoundingBox">
      <stop offset="0" stop-color="#41bfbf"/>
      <stop offset="1" stop-color="#abd48d"/>
    </linearGradient>
    <linearGradient id="linear-gradient-3" x1="0.831" y1="0.286" x2="-0.459" y2="0.5" gradientUnits="objectBoundingBox">
      <stop offset="0" stop-color="#8183be"/>
      <stop offset="1" stop-color="#8d4b9c"/>
    </linearGradient>
    <linearGradient id="linear-gradient-4" x1="-0.083" y1="0.269" x2="1" y2="0.5" xlink:href="#linear-gradient-3"/>
    <linearGradient id="linear-gradient-5" x1="1.215" y1="0.5" x2="-0.433" y2="0.5" xlink:href="#linear-gradient-3"/>
    <linearGradient id="linear-gradient-6" x1="-0.14" y1="0.5" x2="1.109" y2="0.5" xlink:href="#linear-gradient-3"/>
  </defs>
  <g id="Group_39" data-name="Group 39" transform="translate(-1129.252 -354.058)">
    <path id="Path_113" data-name="Path 113" d="M1337.568,445.276l-91.417,52.981a23.733,23.733,0,0,1-23.774-.008l-88.515-51.089a9.159,9.159,0,0,1-4.609-8v6h0a9.157,9.157,0,0,0,4.605,7.957l88.515,51.088a23.732,23.732,0,0,0,23.774.009l91.417-52.981a7.311,7.311,0,0,0,3.681-6.445v-5.847A7.306,7.306,0,0,1,1337.568,445.276Z" transform="translate(0 -23.345)" fill="url(#linear-gradient)"/>
    <path id="Path_114" data-name="Path 114" d="M1133.867,409.123l91.74-52.732a17.644,17.644,0,0,1,17.548.007l94.417,54.055a7.3,7.3,0,0,1,0,12.675l-91.417,52.547a23.9,23.9,0,0,1-23.775-.008L1133.862,425A9.136,9.136,0,0,1,1133.867,409.123Z" transform="translate(0 0)" fill="url(#linear-gradient-2)"/>
    <path id="Path_115" data-name="Path 115" d="M1279.816,417.832l.023,3.953-.03-.017c0,6.476-9.658,11.726-21.569,11.726a34.2,34.2,0,0,1-13.527-2.6v.114l-.927-.542a19.519,19.519,0,0,1-2.513-1.468l-19.357-11.3c-3.889-2.079-6.33-4.954-6.439-8.14l-.017-.007-.024-3.954" transform="translate(-22.808 -13.928)" fill="url(#linear-gradient-3)"/>
    <path id="Path_116" data-name="Path 116" d="M1221.927,408.838c-3.98-2.128-6.449-5.088-6.449-8.361,0-6.476,9.656-11.727,21.569-11.727a32.185,32.185,0,0,1,15.642,3.658v0l.276.161.063.038,22.4,13.221.708.531c2.323,1.871,3.679,4.126,3.679,6.552,0,6.477-9.657,11.728-21.57,11.728a34.2,34.2,0,0,1-13.526-2.6v.113l-.927-.542a19.531,19.531,0,0,1-2.514-1.468Z" transform="translate(-22.819 -9.397)" fill="url(#linear-gradient-4)"/>
    <path id="Path_117" data-name="Path 117" d="M1317.274,433.719v5.074l-.1-.063c-.18,14.723-22.18,26.63-49.3,26.63a82.588,82.588,0,0,1-25.02-3.711,61.13,61.13,0,0,1-6.4-2.439,12.649,12.649,0,0,1-2.185-.9,8.915,8.915,0,0,1-1.2-.772,4.386,4.386,0,0,1-2-3.39H1231v-5.074h10.967V448.3a17.075,17.075,0,0,1,6.492,1.247c.193.083.379.17.562.259s.389.195.571.3a42.052,42.052,0,0,0,8.366,2.843,55.75,55.75,0,0,0,12.524,1.385c17.666,0,31.988-7.788,31.988-17.394a11.473,11.473,0,0,0-3.356-7.754,23.355,23.355,0,0,0-6.273-4.679l.009-.005a3.125,3.125,0,0,1-1.894-2.526h0V416.9" transform="translate(-26.957 -17.099)" fill="url(#linear-gradient-5)"/>
    <path id="Path_118" data-name="Path 118" d="M1241.848,441.8a17.13,17.13,0,0,1,6.633,1.25c.193.083.379.17.562.259s.389.195.571.3a42.057,42.057,0,0,0,8.366,2.843,55.754,55.754,0,0,0,12.524,1.385c17.666,0,31.988-7.788,31.988-17.394a11.47,11.47,0,0,0-3.356-7.753,23.341,23.341,0,0,0-6.273-4.68l.009-.005a3.121,3.121,0,0,1-1.9-2.533c0-2.007,2.993-3.635,6.685-3.635a10.443,10.443,0,0,1,4.361.884l.01-.006c.139.072.269.15.406.223.04.023.081.043.12.066a40.554,40.554,0,0,1,6.266,4.092c5.292,4.272,8.382,9.417,8.382,14.955,0,14.806-22.077,26.811-49.309,26.811a82.587,82.587,0,0,1-25.02-3.711,60.979,60.979,0,0,1-6.4-2.439,12.665,12.665,0,0,1-2.185-.9,8.918,8.918,0,0,1-1.2-.772,4.386,4.386,0,0,1-2-3.39C1231.09,444.424,1235.906,441.8,1241.848,441.8Z" transform="translate(-26.982 -15.713)" fill="url(#linear-gradient-6)"/>
  </g>
</svg>
