<svg xmlns="http://www.w3.org/2000/svg" width="30" height="30" viewBox="0 0 30 30">
  <g id="Group_332" data-name="Group 332" transform="translate(0 -0.43)">
    <circle id="Ellipse_28" data-name="Ellipse 28" cx="15" cy="15" r="15" transform="translate(0 0.43)" fill="#f39b90"/>
    <g id="Symbol" transform="translate(6 6.43)">
      <g id="Group_118" data-name="Group 118" transform="translate(0 0)">
        <path id="Path_148" data-name="Path 148" d="M14.306,10.772A4.616,4.616,0,0,0,11.672,13.4a6.583,6.583,0,0,0-.417,2.185c-.044.959-.055,1.266-.055,3.711s.011,2.752.055,3.711a6.678,6.678,0,0,0,.417,2.185,4.609,4.609,0,0,0,2.634,2.635,6.579,6.579,0,0,0,2.184.417c.959.044,1.266.055,3.71.055s2.751-.011,3.71-.055a6.674,6.674,0,0,0,2.184-.417,4.609,4.609,0,0,0,2.634-2.635,6.583,6.583,0,0,0,.417-2.185c.044-.959.055-1.266.055-3.711s-.011-2.752-.055-3.711a6.678,6.678,0,0,0-.417-2.185,4.6,4.6,0,0,0-2.63-2.631,6.58,6.58,0,0,0-2.184-.417c-.959-.044-1.266-.055-3.71-.055s-2.751.011-3.71.055A6.492,6.492,0,0,0,14.306,10.772Zm9.53,1.2a4.957,4.957,0,0,1,1.672.311,2.978,2.978,0,0,1,1.709,1.709,4.96,4.96,0,0,1,.311,1.672c.044.948.051,1.233.051,3.637s-.011,2.69-.051,3.637a4.96,4.96,0,0,1-.311,1.672,2.978,2.978,0,0,1-1.709,1.709,4.957,4.957,0,0,1-1.672.311c-.948.044-1.233.051-3.637.051s-2.689-.011-3.637-.051a4.957,4.957,0,0,1-1.672-.311,2.978,2.978,0,0,1-1.709-1.709,4.959,4.959,0,0,1-.311-1.672c-.044-.948-.051-1.233-.051-3.637s.011-2.69.051-3.637a4.959,4.959,0,0,1,.311-1.672,2.978,2.978,0,0,1,1.709-1.709,4.957,4.957,0,0,1,1.672-.311c.948-.044,1.233-.051,3.637-.051S22.889,11.928,23.837,11.972Z" transform="translate(-11.2 -10.3)" fill="#fff"/>
        <path id="Path_149" data-name="Path 149" d="M130.9,134.533A4.531,4.531,0,1,0,135.431,130,4.532,4.532,0,0,0,130.9,134.533Zm7.473,0a2.942,2.942,0,1,1-2.942-2.943A2.942,2.942,0,0,1,138.373,134.533Z" transform="translate(-126.431 -125.531)" fill="#fff"/>
        <circle id="Ellipse_39" data-name="Ellipse 39" cx="1.101" cy="1.101" r="1.101" transform="translate(12.693 3.109)" fill="#fff"/>
      </g>
    </g>
  </g>
</svg>
