<svg xmlns="http://www.w3.org/2000/svg" xmlns:xlink="http://www.w3.org/1999/xlink" viewBox="0 0 363 363"><defs><style>.cls-1,.cls-17{fill:none;}.cls-2{clip-path:url(#clip-path);}.cls-3{fill:#012438;}.cls-4{fill:#ee8f7b;}.cls-5{fill:#e87d77;}.cls-6{fill:#f5b496;}.cls-7{fill:#f6c09c;}.cls-8{fill:#e1665e;}.cls-9{fill:#030000;}.cls-10{fill:#e92861;}.cls-11{fill:#f09080;}.cls-12{fill:#ef6467;}.cls-13{fill:#e8d5d7;}.cls-14{fill:#334f5d;}.cls-15{fill:#f4b1a0;}.cls-16{fill:#b7144b;}.cls-17{stroke:#002941;stroke-miterlimit:10;stroke-width:3px;}</style><clipPath id="clip-path"><circle class="cls-1" cx="181.56" cy="181.95" r="180"/></clipPath></defs><title>Asset 5</title><g id="Layer_2" data-name="Layer 2"><g id="Layer_2-2" data-name="Layer 2"><g class="cls-2"><path class="cls-3" d="M257.54,179.7l-.19-2.82c-2.83-53.06-40.72-69.43-55.19-70.88l-5.7-.24s0,12.82,0,12.8c-1.44-15.86-6.85-21.72-26.67-21.72h0c-57.33,8.3-64.17,64.08-64.18,64.19h0V268.26c0,79.39,42.93,88.4,44.74,89.82l-.19-24.32h64.19l.19,25.67c44.55-25.67,42.85-113.83,42.85-113.83Z"/><polyline class="cls-4" points="150.12 304.89 150.12 334.71 159.18 334.71 190.88 334.71 214.31 334.71 214.31 303.4"/><path class="cls-5" d="M150.12,293v11.91a72.2,72.2,0,0,0,9.06,7.62c6.25,4.33,13.49,7.34,22.28,7.1a34.13,34.13,0,0,0,9.65-1.11c9.4-2.46,16.8-8.67,23.2-15.1V292.82"/><path class="cls-6" d="M126,240.3v21.16s2.26,10.57,12.84,21.15c3.52,3.52,7.21,7.71,11.32,11.71a73.06,73.06,0,0,0,9.06,7.62c6.25,4.33,13.49,7.33,22.28,7.1a34.45,34.45,0,0,0,9.8-1.15c9.33-2.49,16.68-8.66,23.05-15.07,3.51-3.53,6.73-7.13,9.82-10.21C234.7,272,237,261.46,237,261.46V240.67l.12-.37.25,0a11.88,11.88,0,0,0,2-.18v0h.09l4.53-1.51,0-.3a12.07,12.07,0,0,0-6.62-22.16l-.21-.2H125.39l-.18.22a12.07,12.07,0,0,0-5.87,22.41l.11,0c.16.1.32.2.48.28l4.43,1.13a1.55,1.55,0,0,1,0,.21c.42,0,.84.07,1.26.07l.38,0"/><path class="cls-7" d="M197,144.3l-.65.08a96.1,96.1,0,0,1-3,15.73,56.85,56.85,0,0,1-8.55,18.18,42.39,42.39,0,0,1-17.71,12.05,37.5,37.5,0,0,1-7.9,1.74,38.66,38.66,0,0,1-4.37.24H126v48l.4,0A49.86,49.86,0,0,0,138.8,260c3.52,3.52,7.21,7.72,11.32,11.71a72.27,72.27,0,0,0,9.06,7.63l.45.3c6.14,4.16,13.24,7,21.83,6.8a34.49,34.49,0,0,0,9.65-1.11l.47-.14a39.89,39.89,0,0,0,11.7-5.55,75.29,75.29,0,0,0,11-9.42c3.51-3.53,6.73-7.13,9.82-10.22a49.8,49.8,0,0,0,12.43-19.68c.14,0,.27,0,.41,0V180.66C232.85,142.22,202.52,143.71,197,144.3Z"/><circle class="cls-8" cx="174.67" cy="243.72" r="2.64"/><circle class="cls-8" cx="188.26" cy="243.72" r="2.64"/><ellipse class="cls-9" cx="153.14" cy="223.7" rx="6.04" ry="9.06"/><path class="cls-10" d="M192,257.27a7.16,7.16,0,0,0-4.74-1.85,6.68,6.68,0,0,0-5.77,3,6.64,6.64,0,0,0-5.76-3,7.75,7.75,0,0,0-7.45,7.55c0,3.77,2.47,12.81,13.18,12.84h.06c5.07,0,8.29-2.05,10.28-4.59a14.15,14.15,0,0,0,2.91-8.25A7.76,7.76,0,0,0,192,257.27Z"/><ellipse class="cls-9" cx="210.54" cy="223.7" rx="6.04" ry="9.06"/><path class="cls-11" d="M142.59,204.07a3.72,3.72,0,0,0-.77,2.27,3.77,3.77,0,0,0,3.77,3.77h16.62a3.77,3.77,0,0,0,3.77-3.77,3.72,3.72,0,0,0-.77-2.27"/><path class="cls-11" d="M198.47,204.07a3.72,3.72,0,0,0-.77,2.27,3.77,3.77,0,0,0,3.77,3.77h16.62a3.77,3.77,0,0,0,3.77-3.77,3.72,3.72,0,0,0-.77-2.27"/><path class="cls-12" d="M119.92,228.23a4.5,4.5,0,0,0,6,4.27V224a4.5,4.5,0,0,0-6,4.26Z"/><path class="cls-13" d="M243.71,238.49c-.21-1.54-1.12-2.7-2.21-2.7-1.25,0-2.27,1.52-2.27,3.39a5,5,0,0,0,.1,1c.28,1.41,1.14,2.44,2.17,2.44,1.25,0,2.26-1.52,2.26-3.4A5.21,5.21,0,0,0,243.71,238.49Z"/><path class="cls-13" d="M122.18,235.79c-1.19,0-2.15,1.38-2.25,3.12,0,.09,0,.18,0,.27,0,1.88,1,3.4,2.26,3.4,1,0,1.84-1,2.14-2.33a4.61,4.61,0,0,0,.13-1.07C124.45,237.31,123.43,235.79,122.18,235.79Z"/><path class="cls-12" d="M243,228.23a4.53,4.53,0,0,0-4.53-4.53A4.44,4.44,0,0,0,237,224v8.53a4.44,4.44,0,0,0,1.51.27A4.53,4.53,0,0,0,243,228.23Z"/><path class="cls-14" d="M147.86,133.08h12.08a6.8,6.8,0,1,0,0-13.59H147.86a6.8,6.8,0,1,0,0,13.59Z"/><path class="cls-14" d="M143.33,156.49h26.43a6,6,0,1,0,0-12.08H143.33a6,6,0,1,0,0,12.08Z"/><path class="cls-15" d="M159.18,243.76A10.91,10.91,0,1,0,163,252,10.88,10.88,0,0,0,159.18,243.76Z"/><circle class="cls-15" cx="210.91" cy="252.02" r="10.95"/><circle class="cls-14" cx="236.02" cy="308.46" r="7.17"/><circle class="cls-14" cx="231.11" cy="326.96" r="3.02"/><path class="cls-6" d="M196.39,144.38l.65-.08c.81-.08,2.15-.19,3.87-.19a117.5,117.5,0,0,1-3.26,15.25c-2.29,7.94-5.72,16.19-10.87,23.09a53.7,53.7,0,0,1-22.5,15.32,47.78,47.78,0,0,1-10,2.22,50,50,0,0,1-5.55.3H126v-8l32.66-6.57,32.47-29.46,5.29-12.08"/><path class="cls-3" d="M162.21,198H145.59a3.78,3.78,0,0,0,0,7.55h16.62a3.78,3.78,0,0,0,0-7.55Z"/><path class="cls-3" d="M218.09,198H201.47a3.8,3.8,0,0,0-3.7,4.53,3.88,3.88,0,0,0,.7,1.51,3.76,3.76,0,0,0,3,1.51h16.62a3.76,3.76,0,0,0,3-1.51,3.88,3.88,0,0,0,.7-1.51,3.8,3.8,0,0,0-3.7-4.53Z"/><rect class="cls-16" x="171.46" y="264.28" width="20.39" height="2.27" rx="1.13"/><path d="M196.87,127.23a52.75,52.75,0,0,1-3.31,17c-.38,1-.8,1.93-1.24,2.84a34.72,34.72,0,0,1-11.25,13.36,40.86,40.86,0,0,1-7.9,4.35,56.16,56.16,0,0,1-12,3.42,86.75,86.75,0,0,1-14.78,1.17,22.27,22.27,0,0,0-9.07,1.77c-12.3,5.37-12.83,21.22-12.83,21.22h30.36a38.66,38.66,0,0,0,4.37-.24,37.5,37.5,0,0,0,7.9-1.74,42.39,42.39,0,0,0,17.71-12.05,56.85,56.85,0,0,0,8.55-18.18,96.1,96.1,0,0,0,3-15.73c.09-.78.16-1.51.22-2.2.33-3.72.33-6.07.33-6.07v-.76C196.94,132.45,196.92,129.76,196.87,127.23Z"/></g><circle class="cls-17" cx="181.5" cy="181.5" r="180"/></g></g></svg>