<svg xmlns="http://www.w3.org/2000/svg" xmlns:xlink="http://www.w3.org/1999/xlink" viewBox="0 0 363 363"><defs><style>.cls-1,.cls-21{fill:none;}.cls-2{clip-path:url(#clip-path);}.cls-3{fill:#f27966;}.cls-4{fill:#e46658;}.cls-5{fill:#f67967;}.cls-6{fill:#e06555;}.cls-7{fill:#f59879;}.cls-8{fill:#f48d6e;}.cls-9{fill:#f37967;}.cls-10{fill:#e36658;}.cls-11{fill:#f58166;}.cls-12{fill:#d0e0e6;}.cls-13{fill:#040104;}.cls-14{fill:#f0f4f7;}.cls-15{fill:#acb9c7;}.cls-16{fill:#f39778;}.cls-17{fill:#f57965;}.cls-18{fill:#f6a97b;}.cls-19{fill:#f28f6f;}.cls-20{fill:#d2dfe8;}.cls-21{stroke:#002941;stroke-miterlimit:10;stroke-width:3px;}</style><clipPath id="clip-path"><circle class="cls-1" cx="181.5" cy="181.5" r="180"/></clipPath></defs><title>Asset 8</title><g id="Layer_2" data-name="Layer 2"><g id="Layer_2-2" data-name="Layer 2"><g class="cls-2"><rect class="cls-3" x="124.83" y="274.99" width="114.03" height="86.84"/><path class="cls-4" d="M124.83,281.78v31.84a52.21,52.21,0,0,0,6,5.92c22.65,18.88,37.75,20.39,49.08,20.39h4.53c11.33,0,26.43-1.51,49.09-20.39a53,53,0,0,0,5.28-5.07V281.78Z"/><path class="cls-5" d="M103.46,202H108a0,0,0,0,1,0,0v33.23a0,0,0,0,1,0,0h-4.53a16.61,16.61,0,0,1-16.61-16.61v0A16.61,16.61,0,0,1,103.46,202Z"/><path class="cls-6" d="M95.16,213.36h7.55a5.29,5.29,0,0,1,5.29,5.29v0a5.29,5.29,0,0,1-5.29,5.29H95.16a0,0,0,0,1,0,0V213.36a0,0,0,0,1,0,0Z" transform="translate(203.15 437.3) rotate(-180)"/><path class="cls-5" d="M270.35,202h4.53a0,0,0,0,1,0,0v33.23a0,0,0,0,1,0,0h-4.53a16.61,16.61,0,0,1-16.61-16.61v0A16.61,16.61,0,0,1,270.35,202Z" transform="translate(528.63 437.3) rotate(-180)"/><path class="cls-6" d="M253.74,213.36h7.55a5.29,5.29,0,0,1,5.29,5.29v0a5.29,5.29,0,0,1-5.29,5.29h-7.55a0,0,0,0,1,0,0V213.36A0,0,0,0,1,253.74,213.36Z"/><path class="cls-7" d="M254.87,179.76v68s0,32.47-22.65,51.35-37.76,20.39-49.09,20.39H178.6c-11.32,0-26.43-1.51-49.08-20.39s-22.66-51.35-22.66-51.35V163.9c0-30.86,33.14-55.88,74-55.88s74,25,74,55.88Z"/><path class="cls-8" d="M232.22,274.91c-22.66,18.88-37.76,20.39-49.09,20.39H178.6c-11.32,0-26.43-1.51-49.08-20.39s-22.66-51.35-22.66-51.35v24.16s0,32.47,22.66,51.35,37.76,20.39,49.08,20.39h4.53c11.33,0,26.43-1.51,49.09-20.39s22.65-51.35,22.65-51.35V223.56S254.87,256,232.22,274.91Z"/><rect class="cls-9" x="155.57" y="258.67" width="49.84" height="15.86" rx="7.93"/><path class="cls-10" d="M197.48,267.73h-34a7.93,7.93,0,0,1-7.16-4.53,7.92,7.92,0,0,0,7.16,11.33h34a7.92,7.92,0,0,0,7.16-11.33A7.93,7.93,0,0,1,197.48,267.73Z"/><rect class="cls-11" x="126.5" y="188.06" width="37" height="16.61" rx="8.31"/><rect class="cls-11" x="198.24" y="188.06" width="37" height="16.61" rx="8.31"/><rect class="cls-12" x="126.5" y="182.02" width="37" height="16.61" rx="8.31"/><rect class="cls-12" x="198.24" y="182.02" width="37" height="16.61" rx="8.31"/><ellipse class="cls-13" cx="144.24" cy="209.96" rx="6.42" ry="9.06"/><ellipse class="cls-13" cx="217.49" cy="209.96" rx="6.42" ry="9.06"/><rect class="cls-14" x="133.29" y="183.53" width="17.37" height="4.53" rx="2.27"/><rect class="cls-14" x="205.03" y="183.53" width="17.37" height="4.53" rx="2.27"/><path class="cls-15" d="M155.19,192.6H134.8a8.31,8.31,0,0,1-7.73-5.29,8.4,8.4,0,0,0-.57,3,8.31,8.31,0,0,0,8.3,8.31h20.39a8.31,8.31,0,0,0,8.31-8.31,8.2,8.2,0,0,0-.58-3A8.3,8.3,0,0,1,155.19,192.6Z"/><path class="cls-15" d="M226.93,192.6H206.54a8.31,8.31,0,0,1-7.73-5.29,8.4,8.4,0,0,0-.57,3,8.31,8.31,0,0,0,8.3,8.31h20.39a8.31,8.31,0,0,0,8.31-8.31,8.2,8.2,0,0,0-.58-3A8.3,8.3,0,0,1,226.93,192.6Z"/><path class="cls-16" d="M174.86,203.92h11.26a8.72,8.72,0,0,1,8.72,8.72v12.8a14.35,14.35,0,0,1-14.35,14.35h0a14.35,14.35,0,0,1-14.35-14.35v-12.8A8.72,8.72,0,0,1,174.86,203.92Z"/><path class="cls-17" d="M180.48,235.26h0a14.36,14.36,0,0,1-14.32-14.38v4.53a14.35,14.35,0,0,0,14.32,14.38h0a14.35,14.35,0,0,0,14.38-14.31V221A14.35,14.35,0,0,1,180.48,235.26Z"/><rect class="cls-18" x="169.16" y="206.57" width="7.55" height="18.12" rx="3.78"/><rect class="cls-19" x="137.45" y="152.95" width="86.09" height="2.27" rx="1.13"/><rect class="cls-19" x="126.12" y="162.77" width="111.01" height="2.27" rx="1.13"/><path class="cls-20" d="M180.87,108c-38.34,0-69.86,22-73.63,50.2v9.08c0-.76,7.55-25.68,23.41-28.7s21.14-2.26,21.14-2.26h58.15s5.29-.76,21.15,2.26,23.41,27.94,23.41,28.7v-9.08C250.73,130,219.2,108,180.87,108Z"/></g><circle class="cls-21" cx="181.5" cy="181.5" r="180"/></g></g></svg>