<svg xmlns="http://www.w3.org/2000/svg" width="113.543" height="170.603" viewBox="0 0 113.543 170.603">
  <g id="Group_310" data-name="Group 310" transform="translate(-124.67 -83.234)">
    <path id="Path_532" data-name="Path 532" d="M124.67,181.234v.288c0-.1,0-.192,0-.288Z" transform="translate(0 -41.517)" fill="#fff" opacity="0.14"/>
    <path id="Path_533" data-name="Path 533" d="M321.664,181.234c0,.1,0,.192,0,.288v-.288Z" transform="translate(-83.455 -41.517)" fill="#fff" opacity="0.14"/>
    <path id="Path_534" data-name="Path 534" d="M230.739,181.234H222.67a46.916,46.916,0,0,1,8.173.728A2.865,2.865,0,0,1,230.739,181.234Z" transform="translate(-41.517 -41.517)" fill="#fff" opacity="0.14"/>
    <path id="Path_535" data-name="Path 535" d="M205.3,181.234H181.67l4.226,4.226A46.493,46.493,0,0,1,205.3,181.234Z" transform="translate(-24.147 -41.517)" fill="#fff" opacity="0.14"/>
    <path id="Path_536" data-name="Path 536" d="M134.468,204.865v-4.611h9.085a47.03,47.03,0,0,1,2.994-3.668,4.9,4.9,0,0,1-6.315-4.689V181.234H124.674c0,.1,0,.192,0,.288a56.551,56.551,0,0,0,5.5,24.408A9.17,9.17,0,0,1,134.468,204.865Z" transform="translate(0 -41.517)" fill="#fff" opacity="0.14"/>
    <path id="Path_537" data-name="Path 537" d="M168.306,193.313a46.881,46.881,0,0,1,5.973-4.581v-7.5h-5.764V191.9A4.888,4.888,0,0,1,168.306,193.313Z" transform="translate(-18.486 -41.517)" fill="#fff" opacity="0.14"/>
    <path id="Path_538" data-name="Path 538" d="M272.657,181.234v3.17a4.323,4.323,0,0,1-8.645,0v-3.17H246.144a2.859,2.859,0,0,1-.715,1.882,46.746,46.746,0,0,1,24.277,16.85H279v4.9a9.164,9.164,0,0,1,4.748,1.327,56.545,56.545,0,0,0,5.626-24.67c0-.1,0-.192,0-.288Z" transform="translate(-51.158 -41.517)" fill="#fff" opacity="0.14"/>
    <path id="Path_539" data-name="Path 539" d="M178.67,178.234v1.729H180.4Z" transform="translate(-22.877 -40.246)" fill="#fff" opacity="0.14"/>
    <path id="Path_540" data-name="Path 540" d="M303.5,258.836v-4.611c-.077,0-.152-.01-.229-.012C303.421,255.735,303.5,257.276,303.5,258.836Z" transform="translate(-75.663 -72.434)" fill="#fff" opacity="0.14"/>
    <path id="Path_541" data-name="Path 541" d="M141.67,254.226v4.611c0-1.56.08-3.1.23-4.622C141.823,254.216,141.748,254.226,141.67,254.226Z" transform="translate(-7.202 -72.434)" fill="#fff" opacity="0.14"/>
    <path id="Path_542" data-name="Path 542" d="M147.125,220a46.727,46.727,0,0,1,3.63-5.764H141.67v4.611A9.176,9.176,0,0,1,146.131,220Z" transform="translate(-7.202 -55.497)" fill="#fff" opacity="0.14"/>
    <path id="Path_543" data-name="Path 543" d="M147.125,220a46.727,46.727,0,0,1,3.63-5.764H141.67v4.611A9.176,9.176,0,0,1,146.131,220Z" transform="translate(-7.202 -55.497)" fill="#fff" opacity="0.14"/>
    <path id="Path_544" data-name="Path 544" d="M184.625,185.46l-4.226-4.226H178.67v7.5A46.671,46.671,0,0,1,184.625,185.46Z" transform="translate(-22.877 -41.517)" fill="#fff" opacity="0.14"/>
    <path id="Path_545" data-name="Path 545" d="M184.625,185.46l-4.226-4.226H178.67v7.5A46.671,46.671,0,0,1,184.625,185.46Z" transform="translate(-22.877 -41.517)" fill="#fff" opacity="0.14"/>
    <path id="Path_546" data-name="Path 546" d="M292.38,219.786a9.178,9.178,0,0,1,4.461-1.153v-4.9H287.55a46.71,46.71,0,0,1,3.836,6.052Z" transform="translate(-69.002 -55.285)" fill="#fff" opacity="0.14"/>
    <path id="Path_547" data-name="Path 547" d="M292.38,219.786a9.178,9.178,0,0,1,4.461-1.153v-4.9H287.55a46.71,46.71,0,0,1,3.836,6.052Z" transform="translate(-69.002 -55.285)" fill="#fff" opacity="0.14"/>
    <path id="Path_548" data-name="Path 548" d="M141.67,262.234a47.105,47.105,0,0,0,.4,6.052,46.583,46.583,0,0,1,1.19-6.052Z" transform="translate(-7.202 -75.832)" fill="#fff" opacity="0.14"/>
    <path id="Path_549" data-name="Path 549" d="M302.1,268.286a47,47,0,0,0,.4-6.052H300.9A46.387,46.387,0,0,1,302.1,268.286Z" transform="translate(-74.66 -75.832)" fill="#fff" opacity="0.14"/>
    <path id="Path_550" data-name="Path 550" d="M169.673,194.242a46.886,46.886,0,0,0-5.973,4.581,4.906,4.906,0,0,1-3.273,3.273,47.03,47.03,0,0,0-2.994,3.668h12.241Z" transform="translate(-13.879 -47.027)" fill="#fff" opacity="0.14"/>
    <path id="Path_551" data-name="Path 551" d="M169.673,194.242a46.886,46.886,0,0,0-5.973,4.581,4.906,4.906,0,0,1-3.273,3.273,47.03,47.03,0,0,0-2.994,3.668h12.241Z" transform="translate(-13.879 -47.027)" fill="#fff" opacity="0.14"/>
    <path id="Path_552" data-name="Path 552" d="M219.358,184.116a2.875,2.875,0,0,1-2.777-2.154A46.545,46.545,0,0,0,189,185.46l7.878,7.878v-5.764l6.089,6.089a47.038,47.038,0,0,1,5.438-.326,46.459,46.459,0,0,1,23.981,6.628H245.8a46.745,46.745,0,0,0-24.277-16.85A2.864,2.864,0,0,1,219.358,184.116Z" transform="translate(-27.254 -41.517)" fill="#fff" opacity="0.14"/>
    <path id="Path_553" data-name="Path 553" d="M219.358,184.116a2.875,2.875,0,0,1-2.777-2.154A46.545,46.545,0,0,0,189,185.46l7.878,7.878v-5.764l6.089,6.089a47.038,47.038,0,0,1,5.438-.326,46.459,46.459,0,0,1,23.981,6.628H245.8a46.745,46.745,0,0,0-24.277-16.85A2.864,2.864,0,0,1,219.358,184.116Z" transform="translate(-27.254 -41.517)" fill="#fff" opacity="0.14"/>
    <path id="Path_554" data-name="Path 554" d="M144.878,253.543c-.034-.086-.069-.172-.1-.259a9.177,9.177,0,0,1-2.875.536c-.15,1.521-.23,3.062-.23,4.622h1.594A46.265,46.265,0,0,1,144.878,253.543Z" transform="translate(-7.202 -72.04)" fill="#fff" opacity="0.14"/>
    <path id="Path_555" data-name="Path 555" d="M144.878,253.543c-.034-.086-.069-.172-.1-.259a9.177,9.177,0,0,1-2.875.536c-.15,1.521-.23,3.062-.23,4.622h1.594A46.265,46.265,0,0,1,144.878,253.543Z" transform="translate(-7.202 -72.04)" fill="#fff" opacity="0.14"/>
    <path id="Path_556" data-name="Path 556" d="M298.207,253.284c-.033.087-.068.173-.1.259a46.241,46.241,0,0,1,1.614,4.9h1.594c0-1.56-.08-3.1-.229-4.622A9.177,9.177,0,0,1,298.207,253.284Z" transform="translate(-73.474 -72.04)" fill="#fff" opacity="0.14"/>
    <path id="Path_557" data-name="Path 557" d="M298.207,253.284c-.033.087-.068.173-.1.259a46.241,46.241,0,0,1,1.614,4.9h1.594c0-1.56-.08-3.1-.229-4.622A9.177,9.177,0,0,1,298.207,253.284Z" transform="translate(-73.474 -72.04)" fill="#fff" opacity="0.14"/>
    <path id="Path_558" data-name="Path 558" d="M272.266,219.786h9.262a46.71,46.71,0,0,0-3.836-6.052H264.278A46.849,46.849,0,0,1,272.266,219.786Z" transform="translate(-59.144 -55.285)" fill="#fff" opacity="0.14"/>
    <path id="Path_559" data-name="Path 559" d="M272.266,219.786h9.262a46.71,46.71,0,0,0-3.836-6.052H264.278A46.849,46.849,0,0,1,272.266,219.786Z" transform="translate(-59.144 -55.285)" fill="#fff" opacity="0.14"/>
    <path id="Path_560" data-name="Path 560" d="M272.266,219.786h9.262a46.71,46.71,0,0,0-3.836-6.052H264.278A46.849,46.849,0,0,1,272.266,219.786Z" transform="translate(-59.144 -55.285)" fill="#fff" opacity="0.14"/>
    <path id="Path_561" data-name="Path 561" d="M160.4,209.124a46.506,46.506,0,0,1,26.531-12.354l-6.089-6.089v5.764l-7.878-7.878A46.674,46.674,0,0,0,167,191.837V203.36H154.764a46.725,46.725,0,0,0-3.63,5.764Z" transform="translate(-11.211 -44.623)" fill="#fff" opacity="0.14"/>
    <path id="Path_562" data-name="Path 562" d="M160.4,209.124a46.506,46.506,0,0,1,26.531-12.354l-6.089-6.089v5.764l-7.878-7.878A46.674,46.674,0,0,0,167,191.837V203.36H154.764a46.725,46.725,0,0,0-3.63,5.764Z" transform="translate(-11.211 -44.623)" fill="#fff" opacity="0.14"/>
    <path id="Path_563" data-name="Path 563" d="M160.4,209.124a46.506,46.506,0,0,1,26.531-12.354l-6.089-6.089v5.764l-7.878-7.878A46.674,46.674,0,0,0,167,191.837V203.36H154.764a46.725,46.725,0,0,0-3.63,5.764Z" transform="translate(-11.211 -44.623)" fill="#fff" opacity="0.14"/>
    <path id="Path_564" data-name="Path 564" d="M142.073,272.734a47.1,47.1,0,0,0-.4,6.052,46.453,46.453,0,0,0,7.755,25.761,24.36,24.36,0,0,0,6.51-4.29A46.545,46.545,0,0,1,142.073,272.734Z" transform="translate(-7.202 -80.28)" fill="#fff" opacity="0.14"/>
    <path id="Path_565" data-name="Path 565" d="M292.969,272.734a46.541,46.541,0,0,1-13.607,27.28,20.781,20.781,0,0,0,6.027,4.889,46.471,46.471,0,0,0,7.983-26.117A47,47,0,0,0,292.969,272.734Z" transform="translate(-65.534 -80.28)" fill="#fff" opacity="0.14"/>
    <path id="Path_566" data-name="Path 566" d="M166.564,319.81s-.051.055-.144.146a46.8,46.8,0,0,0,11.095,7.951V325h43.227v2.614a46.82,46.82,0,0,0,10.773-7.9c-.133-.16-.27-.314-.4-.48Z" transform="translate(-17.687 -99.979)" fill="#fff" opacity="0.14"/>
    <path id="Path_567" data-name="Path 567" d="M229.882,262.234a46.688,46.688,0,0,1-82.461,0H143.56a46.583,46.583,0,0,0-1.19,6.052,46.545,46.545,0,0,0,13.861,27.523c.093-.091.144-.146.144-.146l64.552-.576c.129.165.266.32.4.48a46.541,46.541,0,0,0,13.607-27.28,46.39,46.39,0,0,0-1.19-6.052Z" transform="translate(-7.498 -75.832)" fill="#fff" opacity="0.14"/>
    <path id="Path_568" data-name="Path 568" d="M229.882,262.234a46.688,46.688,0,0,1-82.461,0H143.56a46.583,46.583,0,0,0-1.19,6.052,46.545,46.545,0,0,0,13.861,27.523c.093-.091.144-.146.144-.146l64.552-.576c.129.165.266.32.4.48a46.541,46.541,0,0,0,13.607-27.28,46.39,46.39,0,0,0-1.19-6.052Z" transform="translate(-7.498 -75.832)" fill="#fff" opacity="0.14"/>
    <path id="Path_569" data-name="Path 569" d="M242.654,208.862a46.459,46.459,0,0,0-23.981-6.628,47.038,47.038,0,0,0-5.438.326l6.3,6.3Z" transform="translate(-37.52 -50.413)" fill="#fff" opacity="0.14"/>
    <path id="Path_570" data-name="Path 570" d="M242.654,208.862a46.459,46.459,0,0,0-23.981-6.628,47.038,47.038,0,0,0-5.438.326l6.3,6.3Z" transform="translate(-37.52 -50.413)" fill="#fff" opacity="0.14"/>
    <path id="Path_571" data-name="Path 571" d="M242.654,208.862a46.459,46.459,0,0,0-23.981-6.628,47.038,47.038,0,0,0-5.438.326l6.3,6.3Z" transform="translate(-37.52 -50.413)" fill="#fff" opacity="0.14"/>
    <path id="Path_572" data-name="Path 572" d="M238.209,139.717a56.768,56.768,0,0,0-113.535,0c0,.1,0,.192,0,.288a56.551,56.551,0,0,0,5.5,24.408,9.17,9.17,0,0,1,4.3-1.065v-4.611h21.325V137.988l1.729,1.729,4.226,4.226,7.878,7.878v-5.764l6.089,6.089,6.3,6.3h45.821v4.9a9.164,9.164,0,0,1,4.748,1.327,56.545,56.545,0,0,0,5.626-24.67C238.213,139.909,238.21,139.814,238.209,139.717Z" transform="translate(0 0)" fill="#01243a"/>
    <path id="Path_573" data-name="Path 573" d="M298.067,258.633a46.259,46.259,0,0,0-1.614-4.9,46.526,46.526,0,0,1-2.247,4.9Z" transform="translate(-71.822 -72.231)" fill="#fff" opacity="0.14"/>
    <path id="Path_574" data-name="Path 574" d="M298.067,258.633a46.259,46.259,0,0,0-1.614-4.9,46.526,46.526,0,0,1-2.247,4.9Z" transform="translate(-71.822 -72.231)" fill="#fff" opacity="0.14"/>
    <path id="Path_575" data-name="Path 575" d="M298.067,258.633a46.259,46.259,0,0,0-1.614-4.9,46.526,46.526,0,0,1-2.247,4.9Z" transform="translate(-71.822 -72.231)" fill="#fff" opacity="0.14"/>
    <path id="Path_576" data-name="Path 576" d="M144.435,258.633H148.3a46.51,46.51,0,0,1-2.247-4.9A46.262,46.262,0,0,0,144.435,258.633Z" transform="translate(-8.373 -72.231)" fill="#fff" opacity="0.14"/>
    <path id="Path_577" data-name="Path 577" d="M144.435,258.633H148.3a46.51,46.51,0,0,1-2.247-4.9A46.262,46.262,0,0,0,144.435,258.633Z" transform="translate(-8.373 -72.231)" fill="#fff" opacity="0.14"/>
    <path id="Path_578" data-name="Path 578" d="M144.435,258.633H148.3a46.51,46.51,0,0,1-2.247-4.9A46.262,46.262,0,0,0,144.435,258.633Z" transform="translate(-8.373 -72.231)" fill="#fff" opacity="0.14"/>
    <path id="Path_579" data-name="Path 579" d="M168.17,215.153a8.056,8.056,0,0,1,11.284,0H218.89a8.056,8.056,0,0,1,11.284,0h.967a46.848,46.848,0,0,0-7.988-6.052H200.036l-6.3-6.3A46.506,46.506,0,0,0,167.2,215.153Z" transform="translate(-18.019 -50.653)" fill="#fff" opacity="0.14"/>
    <path id="Path_580" data-name="Path 580" d="M168.17,215.153a8.056,8.056,0,0,1,11.284,0H218.89a8.056,8.056,0,0,1,11.284,0h.967a46.848,46.848,0,0,0-7.988-6.052H200.036l-6.3-6.3A46.506,46.506,0,0,0,167.2,215.153Z" transform="translate(-18.019 -50.653)" fill="#fff" opacity="0.14"/>
    <path id="Path_581" data-name="Path 581" d="M168.17,215.153a8.056,8.056,0,0,1,11.284,0H218.89a8.056,8.056,0,0,1,11.284,0h.967a46.848,46.848,0,0,0-7.988-6.052H200.036l-6.3-6.3A46.506,46.506,0,0,0,167.2,215.153Z" transform="translate(-18.019 -50.653)" fill="#fff" opacity="0.14"/>
    <path id="Path_582" data-name="Path 582" d="M168.17,215.153a8.056,8.056,0,0,1,11.284,0H218.89a8.056,8.056,0,0,1,11.284,0h.967a46.848,46.848,0,0,0-7.988-6.052H200.036l-6.3-6.3A46.506,46.506,0,0,0,167.2,215.153Z" transform="translate(-18.019 -50.653)" fill="#fff" opacity="0.14"/>
    <path id="Path_583" data-name="Path 583" d="M295.2,224.234h-.994c.082.154.158.312.239.467Q294.81,224.45,295.2,224.234Z" transform="translate(-71.822 -59.733)" fill="#fff" opacity="0.14"/>
    <path id="Path_584" data-name="Path 584" d="M295.2,224.234h-.994c.082.154.158.312.239.467Q294.81,224.45,295.2,224.234Z" transform="translate(-71.822 -59.733)" fill="#fff" opacity="0.14"/>
    <path id="Path_585" data-name="Path 585" d="M295.2,224.234h-.994c.082.154.158.312.239.467Q294.81,224.45,295.2,224.234Z" transform="translate(-71.822 -59.733)" fill="#fff" opacity="0.14"/>
    <path id="Path_586" data-name="Path 586" d="M150.4,224.234h-.994q.389.216.755.467C150.245,224.546,150.322,224.388,150.4,224.234Z" transform="translate(-10.481 -59.733)" fill="#fff" opacity="0.14"/>
    <path id="Path_587" data-name="Path 587" d="M150.4,224.234h-.994q.389.216.755.467C150.245,224.546,150.322,224.388,150.4,224.234Z" transform="translate(-10.481 -59.733)" fill="#fff" opacity="0.14"/>
    <path id="Path_588" data-name="Path 588" d="M150.4,224.234h-.994q.389.216.755.467C150.245,224.546,150.322,224.388,150.4,224.234Z" transform="translate(-10.481 -59.733)" fill="#fff" opacity="0.14"/>
    <path id="Path_589" data-name="Path 589" d="M298,253.479c.034-.086.069-.172.1-.259-.08-.028-.16-.056-.239-.088C297.914,253.247,297.959,253.363,298,253.479Z" transform="translate(-73.373 -71.976)" fill="#fff" opacity="0.14"/>
    <path id="Path_590" data-name="Path 590" d="M298,253.479c.034-.086.069-.172.1-.259-.08-.028-.16-.056-.239-.088C297.914,253.247,297.959,253.363,298,253.479Z" transform="translate(-73.373 -71.976)" fill="#fff" opacity="0.14"/>
    <path id="Path_591" data-name="Path 591" d="M298,253.479c.034-.086.069-.172.1-.259-.08-.028-.16-.056-.239-.088C297.914,253.247,297.959,253.363,298,253.479Z" transform="translate(-73.373 -71.976)" fill="#fff" opacity="0.14"/>
    <path id="Path_592" data-name="Path 592" d="M298,253.479c.034-.086.069-.172.1-.259-.08-.028-.16-.056-.239-.088C297.914,253.247,297.959,253.363,298,253.479Z" transform="translate(-73.373 -71.976)" fill="#fff" opacity="0.14"/>
    <path id="Path_593" data-name="Path 593" d="M147.058,253.22c.033.087.069.173.1.259q.067-.174.137-.347C147.218,253.163,147.138,253.191,147.058,253.22Z" transform="translate(-9.484 -71.976)" fill="#fff" opacity="0.14"/>
    <path id="Path_594" data-name="Path 594" d="M147.058,253.22c.033.087.069.173.1.259q.067-.174.137-.347C147.218,253.163,147.138,253.191,147.058,253.22Z" transform="translate(-9.484 -71.976)" fill="#fff" opacity="0.14"/>
    <path id="Path_595" data-name="Path 595" d="M147.058,253.22c.033.087.069.173.1.259q.067-.174.137-.347C147.218,253.163,147.138,253.191,147.058,253.22Z" transform="translate(-9.484 -71.976)" fill="#fff" opacity="0.14"/>
    <path id="Path_596" data-name="Path 596" d="M283.794,230.609a9.217,9.217,0,0,1,3.844-5.908c-.081-.155-.157-.312-.239-.467h-9.262A46.9,46.9,0,0,1,283.794,230.609Z" transform="translate(-65.015 -59.733)" fill="#fff" opacity="0.14"/>
    <path id="Path_597" data-name="Path 597" d="M283.794,230.609a9.217,9.217,0,0,1,3.844-5.908c-.081-.155-.157-.312-.239-.467h-9.262A46.9,46.9,0,0,1,283.794,230.609Z" transform="translate(-65.015 -59.733)" fill="#fff" opacity="0.14"/>
    <path id="Path_598" data-name="Path 598" d="M283.794,230.609a9.217,9.217,0,0,1,3.844-5.908c-.081-.155-.157-.312-.239-.467h-9.262A46.9,46.9,0,0,1,283.794,230.609Z" transform="translate(-65.015 -59.733)" fill="#fff" opacity="0.14"/>
    <path id="Path_599" data-name="Path 599" d="M283.794,230.609a9.217,9.217,0,0,1,3.844-5.908c-.081-.155-.157-.312-.239-.467h-9.262A46.9,46.9,0,0,1,283.794,230.609Z" transform="translate(-65.015 -59.733)" fill="#fff" opacity="0.14"/>
    <path id="Path_600" data-name="Path 600" d="M154.564,230.609a46.97,46.97,0,0,1,5.656-6.375h-9.262c-.082.154-.158.312-.239.467A9.221,9.221,0,0,1,154.564,230.609Z" transform="translate(-11.036 -59.733)" fill="#fff" opacity="0.14"/>
    <path id="Path_601" data-name="Path 601" d="M154.564,230.609a46.97,46.97,0,0,1,5.656-6.375h-9.262c-.082.154-.158.312-.239.467A9.221,9.221,0,0,1,154.564,230.609Z" transform="translate(-11.036 -59.733)" fill="#fff" opacity="0.14"/>
    <path id="Path_602" data-name="Path 602" d="M154.564,230.609a46.97,46.97,0,0,1,5.656-6.375h-9.262c-.082.154-.158.312-.239.467A9.221,9.221,0,0,1,154.564,230.609Z" transform="translate(-11.036 -59.733)" fill="#fff" opacity="0.14"/>
    <path id="Path_603" data-name="Path 603" d="M154.564,230.609a46.97,46.97,0,0,1,5.656-6.375h-9.262c-.082.154-.158.312-.239.467A9.221,9.221,0,0,1,154.564,230.609Z" transform="translate(-11.036 -59.733)" fill="#fff" opacity="0.14"/>
    <path id="Path_604" data-name="Path 604" d="M213.113,268.806v10.719h-9.764a19.175,19.175,0,0,1-21.969,0h-8.612v-10.5a56.624,56.624,0,0,1-12.836-6.791h-8.8a46.688,46.688,0,0,0,82.461,0h-8.222A56.588,56.588,0,0,1,213.113,268.806Z" transform="translate(-11.211 -75.832)" fill="#fff" opacity="0.14"/>
    <path id="Path_605" data-name="Path 605" d="M213.113,268.806v10.719h-9.764a19.175,19.175,0,0,1-21.969,0h-8.612v-10.5a56.624,56.624,0,0,1-12.836-6.791h-8.8a46.688,46.688,0,0,0,82.461,0h-8.222A56.588,56.588,0,0,1,213.113,268.806Z" transform="translate(-11.211 -75.832)" fill="#fff" opacity="0.14"/>
    <path id="Path_606" data-name="Path 606" d="M213.113,268.806v10.719h-9.764a19.175,19.175,0,0,1-21.969,0h-8.612v-10.5a56.624,56.624,0,0,1-12.836-6.791h-8.8a46.688,46.688,0,0,0,82.461,0h-8.222A56.588,56.588,0,0,1,213.113,268.806Z" transform="translate(-11.211 -75.832)" fill="#fff" opacity="0.14"/>
    <path id="Path_607" data-name="Path 607" d="M179.235,264.539h1.176a16.792,16.792,0,0,1,.282-2.305H166.4a56.624,56.624,0,0,0,12.836,6.791Z" transform="translate(-17.678 -75.832)" fill="#fff" opacity="0.14"/>
    <path id="Path_608" data-name="Path 608" d="M179.235,264.539h1.176a16.792,16.792,0,0,1,.282-2.305H166.4a56.624,56.624,0,0,0,12.836,6.791Z" transform="translate(-17.678 -75.832)" fill="#fff" opacity="0.14"/>
    <path id="Path_609" data-name="Path 609" d="M179.235,264.539h1.176a16.792,16.792,0,0,1,.282-2.305H166.4a56.624,56.624,0,0,0,12.836,6.791Z" transform="translate(-17.678 -75.832)" fill="#fff" opacity="0.14"/>
    <path id="Path_610" data-name="Path 610" d="M179.235,264.539h1.176a16.792,16.792,0,0,1,.282-2.305H166.4a56.624,56.624,0,0,0,12.836,6.791Z" transform="translate(-17.678 -75.832)" fill="#fff" opacity="0.14"/>
    <path id="Path_611" data-name="Path 611" d="M256.751,264.539v4.266a56.587,56.587,0,0,0,12.26-6.572h-14.87a16.8,16.8,0,0,1,.282,2.305Z" transform="translate(-54.849 -75.832)" fill="#fff" opacity="0.14"/>
    <path id="Path_612" data-name="Path 612" d="M256.751,264.539v4.266a56.587,56.587,0,0,0,12.26-6.572h-14.87a16.8,16.8,0,0,1,.282,2.305Z" transform="translate(-54.849 -75.832)" fill="#fff" opacity="0.14"/>
    <path id="Path_613" data-name="Path 613" d="M256.751,264.539v4.266a56.587,56.587,0,0,0,12.26-6.572h-14.87a16.8,16.8,0,0,1,.282,2.305Z" transform="translate(-54.849 -75.832)" fill="#fff" opacity="0.14"/>
    <path id="Path_614" data-name="Path 614" d="M256.751,264.539v4.266a56.587,56.587,0,0,0,12.26-6.572h-14.87a16.8,16.8,0,0,1,.282,2.305Z" transform="translate(-54.849 -75.832)" fill="#fff" opacity="0.14"/>
    <path id="Path_615" data-name="Path 615" d="M150.165,250.153a9.191,9.191,0,0,1-2.792,1.717q-.069.173-.137.347a46.51,46.51,0,0,0,2.247,4.9h8.8A57.118,57.118,0,0,1,150.165,250.153Z" transform="translate(-9.56 -70.714)" fill="#fff" opacity="0.14"/>
    <path id="Path_616" data-name="Path 616" d="M150.165,250.153a9.191,9.191,0,0,1-2.792,1.717q-.069.173-.137.347a46.51,46.51,0,0,0,2.247,4.9h8.8A57.118,57.118,0,0,1,150.165,250.153Z" transform="translate(-9.56 -70.714)" fill="#fff" opacity="0.14"/>
    <path id="Path_617" data-name="Path 617" d="M150.165,250.153a9.191,9.191,0,0,1-2.792,1.717q-.069.173-.137.347a46.51,46.51,0,0,0,2.247,4.9h8.8A57.118,57.118,0,0,1,150.165,250.153Z" transform="translate(-9.56 -70.714)" fill="#fff" opacity="0.14"/>
    <path id="Path_618" data-name="Path 618" d="M150.165,250.153a9.191,9.191,0,0,1-2.792,1.717q-.069.173-.137.347a46.51,46.51,0,0,0,2.247,4.9h8.8A57.118,57.118,0,0,1,150.165,250.153Z" transform="translate(-9.56 -70.714)" fill="#fff" opacity="0.14"/>
    <path id="Path_619" data-name="Path 619" d="M287.789,250.629a57.107,57.107,0,0,1-7.848,6.689h8.222a46.513,46.513,0,0,0,2.247-4.9c-.046-.116-.09-.232-.137-.347A9.2,9.2,0,0,1,287.789,250.629Z" transform="translate(-65.779 -70.915)" fill="#fff" opacity="0.14"/>
    <path id="Path_620" data-name="Path 620" d="M287.789,250.629a57.107,57.107,0,0,1-7.848,6.689h8.222a46.513,46.513,0,0,0,2.247-4.9c-.046-.116-.09-.232-.137-.347A9.2,9.2,0,0,1,287.789,250.629Z" transform="translate(-65.779 -70.915)" fill="#fff" opacity="0.14"/>
    <path id="Path_621" data-name="Path 621" d="M287.789,250.629a57.107,57.107,0,0,1-7.848,6.689h8.222a46.513,46.513,0,0,0,2.247-4.9c-.046-.116-.09-.232-.137-.347A9.2,9.2,0,0,1,287.789,250.629Z" transform="translate(-65.779 -70.915)" fill="#fff" opacity="0.14"/>
    <path id="Path_622" data-name="Path 622" d="M287.789,250.629a57.107,57.107,0,0,1-7.848,6.689h8.222a46.513,46.513,0,0,0,2.247-4.9c-.046-.116-.09-.232-.137-.347A9.2,9.2,0,0,1,287.789,250.629Z" transform="translate(-65.779 -70.915)" fill="#fff" opacity="0.14"/>
    <path id="Path_623" data-name="Path 623" d="M226.295,230H210.157a8.041,8.041,0,0,1,2.427-5.764H173.148A8.041,8.041,0,0,1,175.575,230H159.437a8.041,8.041,0,0,1,2.427-5.764H160.9a46.969,46.969,0,0,0-5.656,6.375,9.147,9.147,0,0,1-2.923,8.564,57.119,57.119,0,0,0,8.116,6.963h14.294c1.567-8.195,9.089-14.409,18.139-14.409s16.572,6.214,18.139,14.409h14.87a57.108,57.108,0,0,0,7.848-6.689,9.165,9.165,0,0,1-3.231-8.838,46.9,46.9,0,0,0-5.657-6.375h-.967A8.041,8.041,0,0,1,226.295,230Z" transform="translate(-11.713 -59.733)" fill="#fff" opacity="0.14"/>
    <path id="Path_624" data-name="Path 624" d="M226.295,230H210.157a8.041,8.041,0,0,1,2.427-5.764H173.148A8.041,8.041,0,0,1,175.575,230H159.437a8.041,8.041,0,0,1,2.427-5.764H160.9a46.969,46.969,0,0,0-5.656,6.375,9.147,9.147,0,0,1-2.923,8.564,57.119,57.119,0,0,0,8.116,6.963h14.294c1.567-8.195,9.089-14.409,18.139-14.409s16.572,6.214,18.139,14.409h14.87a57.108,57.108,0,0,0,7.848-6.689,9.165,9.165,0,0,1-3.231-8.838,46.9,46.9,0,0,0-5.657-6.375h-.967A8.041,8.041,0,0,1,226.295,230Z" transform="translate(-11.713 -59.733)" fill="#fff" opacity="0.14"/>
    <path id="Path_625" data-name="Path 625" d="M226.295,230H210.157a8.041,8.041,0,0,1,2.427-5.764H173.148A8.041,8.041,0,0,1,175.575,230H159.437a8.041,8.041,0,0,1,2.427-5.764H160.9a46.969,46.969,0,0,0-5.656,6.375,9.147,9.147,0,0,1-2.923,8.564,57.119,57.119,0,0,0,8.116,6.963h14.294c1.567-8.195,9.089-14.409,18.139-14.409s16.572,6.214,18.139,14.409h14.87a57.108,57.108,0,0,0,7.848-6.689,9.165,9.165,0,0,1-3.231-8.838,46.9,46.9,0,0,0-5.657-6.375h-.967A8.041,8.041,0,0,1,226.295,230Z" transform="translate(-11.713 -59.733)" fill="#fff" opacity="0.14"/>
    <path id="Path_626" data-name="Path 626" d="M226.295,230H210.157a8.041,8.041,0,0,1,2.427-5.764H173.148A8.041,8.041,0,0,1,175.575,230H159.437a8.041,8.041,0,0,1,2.427-5.764H160.9a46.969,46.969,0,0,0-5.656,6.375,9.147,9.147,0,0,1-2.923,8.564,57.119,57.119,0,0,0,8.116,6.963h14.294c1.567-8.195,9.089-14.409,18.139-14.409s16.572,6.214,18.139,14.409h14.87a57.108,57.108,0,0,0,7.848-6.689,9.165,9.165,0,0,1-3.231-8.838,46.9,46.9,0,0,0-5.657-6.375h-.967A8.041,8.041,0,0,1,226.295,230Z" transform="translate(-11.713 -59.733)" fill="#fff" opacity="0.14"/>
    <path id="Path_627" data-name="Path 627" d="M226.295,230H210.157a8.041,8.041,0,0,1,2.427-5.764H173.148A8.041,8.041,0,0,1,175.575,230H159.437a8.041,8.041,0,0,1,2.427-5.764H160.9a46.969,46.969,0,0,0-5.656,6.375,9.147,9.147,0,0,1-2.923,8.564,57.119,57.119,0,0,0,8.116,6.963h14.294c1.567-8.195,9.089-14.409,18.139-14.409s16.572,6.214,18.139,14.409h14.87a57.108,57.108,0,0,0,7.848-6.689,9.165,9.165,0,0,1-3.231-8.838,46.9,46.9,0,0,0-5.657-6.375h-.967A8.041,8.041,0,0,1,226.295,230Z" transform="translate(-11.713 -59.733)" fill="#fff" opacity="0.14"/>
    <path id="Path_628" data-name="Path 628" d="M132.01,232.527a3.168,3.168,0,0,1,1.686-2.8,56.628,56.628,0,0,1-3.1-5.644,9.207,9.207,0,0,0-2.041,14.844,3.163,3.163,0,0,1,4.571,2.361,9.234,9.234,0,0,0,1.766.173v-5.778A3.169,3.169,0,0,1,132.01,232.527Z" transform="translate(-0.424 -59.669)" fill="#fff" opacity="0.14"/>
    <path id="Path_629" data-name="Path 629" d="M138.513,228.588v-6.354a9.169,9.169,0,0,0-4.3,1.065,56.637,56.637,0,0,0,3.1,5.644A3.143,3.143,0,0,1,138.513,228.588Z" transform="translate(-4.044 -58.886)" fill="#fff" opacity="0.14"/>
    <path id="Path_630" data-name="Path 630" d="M138.513,228.588v-6.354a9.169,9.169,0,0,0-4.3,1.065,56.637,56.637,0,0,0,3.1,5.644A3.143,3.143,0,0,1,138.513,228.588Z" transform="translate(-4.044 -58.886)" fill="#fff" opacity="0.14"/>
    <path id="Path_631" data-name="Path 631" d="M142.974,240.925q-.288-1.2-.513-2.424c-.17-.237-.337-.477-.5-.717V241.5c-.1,0-.193-.006-.288-.014v5.778c.078,0,.153-.01.23-.012A46.577,46.577,0,0,1,142.974,240.925Z" transform="translate(-7.202 -65.474)" fill="#fff" opacity="0.14"/>
    <path id="Path_632" data-name="Path 632" d="M142.974,240.925q-.288-1.2-.513-2.424c-.17-.237-.337-.477-.5-.717V241.5c-.1,0-.193-.006-.288-.014v5.778c.078,0,.153-.01.23-.012A46.577,46.577,0,0,1,142.974,240.925Z" transform="translate(-7.202 -65.474)" fill="#fff" opacity="0.14"/>
    <path id="Path_633" data-name="Path 633" d="M141.67,229.436c.1-.009.191-.014.288-.014v2.622c.167.24.333.48.5.717a46.856,46.856,0,0,1-.791-8.527Z" transform="translate(-7.202 -59.733)" fill="#fff" opacity="0.14"/>
    <path id="Path_634" data-name="Path 634" d="M141.67,229.436c.1-.009.191-.014.288-.014v2.622c.167.24.333.48.5.717a46.856,46.856,0,0,1-.791-8.527Z" transform="translate(-7.202 -59.733)" fill="#fff" opacity="0.14"/>
    <path id="Path_635" data-name="Path 635" d="M141.67,228.025c.069-.006.139-.011.21-.011v1.911c.121.175.242.349.366.522a34.16,34.16,0,0,1-.576-6.213Z" transform="translate(-7.202 -59.733)" fill="#fff" opacity="0.14"/>
    <path id="Path_636" data-name="Path 636" d="M146.131,223.387a9.176,9.176,0,0,0-4.461-1.153v1.153Z" transform="translate(-7.202 -58.886)" fill="#fff" opacity="0.14"/>
    <path id="Path_637" data-name="Path 637" d="M146.131,223.387a9.176,9.176,0,0,0-4.461-1.153v1.153Z" transform="translate(-7.202 -58.886)" fill="#fff" opacity="0.14"/>
    <path id="Path_638" data-name="Path 638" d="M146.131,223.387a9.176,9.176,0,0,0-4.461-1.153v1.153Z" transform="translate(-7.202 -58.886)" fill="#fff" opacity="0.14"/>
    <path id="Path_639" data-name="Path 639" d="M142.069,249.562a9.177,9.177,0,0,0,2.875-.536,46.4,46.4,0,0,1-1.8-5.792A46.582,46.582,0,0,0,142.069,249.562Z" transform="translate(-7.371 -67.782)" fill="#fff" opacity="0.14"/>
    <path id="Path_640" data-name="Path 640" d="M142.069,249.562a9.177,9.177,0,0,0,2.875-.536,46.4,46.4,0,0,1-1.8-5.792A46.582,46.582,0,0,0,142.069,249.562Z" transform="translate(-7.371 -67.782)" fill="#fff" opacity="0.14"/>
    <path id="Path_641" data-name="Path 641" d="M142.069,249.562a9.177,9.177,0,0,0,2.875-.536,46.4,46.4,0,0,1-1.8-5.792A46.582,46.582,0,0,0,142.069,249.562Z" transform="translate(-7.371 -67.782)" fill="#fff" opacity="0.14"/>
    <path id="Path_642" data-name="Path 642" d="M143.043,239.028q.226,1.223.513,2.424c.1-.43.212-.858.326-1.283Q143.456,239.6,143.043,239.028Z" transform="translate(-7.784 -66.001)" fill="#fff" opacity="0.14"/>
    <path id="Path_643" data-name="Path 643" d="M143.043,239.028q.226,1.223.513,2.424c.1-.43.212-.858.326-1.283Q143.456,239.6,143.043,239.028Z" transform="translate(-7.784 -66.001)" fill="#fff" opacity="0.14"/>
    <path id="Path_644" data-name="Path 644" d="M143.043,239.028q.226,1.223.513,2.424c.1-.43.212-.858.326-1.283Q143.456,239.6,143.043,239.028Z" transform="translate(-7.784 -66.001)" fill="#fff" opacity="0.14"/>
    <path id="Path_645" data-name="Path 645" d="M146.886,224.7q-.366-.251-.755-.467H141.67a46.856,46.856,0,0,0,.791,8.527q.412.576.839,1.141A46.316,46.316,0,0,1,146.886,224.7Z" transform="translate(-7.202 -59.733)" fill="#fff" opacity="0.14"/>
    <path id="Path_646" data-name="Path 646" d="M146.886,224.7q-.366-.251-.755-.467H141.67a46.856,46.856,0,0,0,.791,8.527q.412.576.839,1.141A46.316,46.316,0,0,1,146.886,224.7Z" transform="translate(-7.202 -59.733)" fill="#fff" opacity="0.14"/>
    <path id="Path_647" data-name="Path 647" d="M146.886,224.7q-.366-.251-.755-.467H141.67a46.856,46.856,0,0,0,.791,8.527q.412.576.839,1.141A46.316,46.316,0,0,1,146.886,224.7Z" transform="translate(-7.202 -59.733)" fill="#fff" opacity="0.14"/>
    <path id="Path_648" data-name="Path 648" d="M146.886,224.7q-.366-.251-.755-.467H141.67a46.856,46.856,0,0,0,.791,8.527q.412.576.839,1.141A46.316,46.316,0,0,1,146.886,224.7Z" transform="translate(-7.202 -59.733)" fill="#fff" opacity="0.14"/>
    <path id="Path_649" data-name="Path 649" d="M147.388,244.8q-1.644-1.827-3.129-3.794c-.115.425-.222.853-.326,1.283a46.4,46.4,0,0,0,1.8,5.792c.08-.028.16-.056.239-.088C146.408,246.911,146.876,245.844,147.388,244.8Z" transform="translate(-8.161 -66.839)" fill="#fff" opacity="0.14"/>
    <path id="Path_650" data-name="Path 650" d="M147.388,244.8q-1.644-1.827-3.129-3.794c-.115.425-.222.853-.326,1.283a46.4,46.4,0,0,0,1.8,5.792c.08-.028.16-.056.239-.088C146.408,246.911,146.876,245.844,147.388,244.8Z" transform="translate(-8.161 -66.839)" fill="#fff" opacity="0.14"/>
    <path id="Path_651" data-name="Path 651" d="M147.388,244.8q-1.644-1.827-3.129-3.794c-.115.425-.222.853-.326,1.283a46.4,46.4,0,0,0,1.8,5.792c.08-.028.16-.056.239-.088C146.408,246.911,146.876,245.844,147.388,244.8Z" transform="translate(-8.161 -66.839)" fill="#fff" opacity="0.14"/>
    <path id="Path_652" data-name="Path 652" d="M147.388,244.8q-1.644-1.827-3.129-3.794c-.115.425-.222.853-.326,1.283a46.4,46.4,0,0,0,1.8,5.792c.08-.028.16-.056.239-.088C146.408,246.911,146.876,245.844,147.388,244.8Z" transform="translate(-8.161 -66.839)" fill="#fff" opacity="0.14"/>
    <path id="Path_653" data-name="Path 653" d="M148.085,225.044a46.317,46.317,0,0,0-3.586,9.2q1.484,1.965,3.129,3.794a46.694,46.694,0,0,1,4.3-7.086A9.222,9.222,0,0,0,148.085,225.044Z" transform="translate(-8.4 -60.076)" fill="#fff" opacity="0.14"/>
    <path id="Path_654" data-name="Path 654" d="M148.085,225.044a46.317,46.317,0,0,0-3.586,9.2q1.484,1.965,3.129,3.794a46.694,46.694,0,0,1,4.3-7.086A9.222,9.222,0,0,0,148.085,225.044Z" transform="translate(-8.4 -60.076)" fill="#fff" opacity="0.14"/>
    <path id="Path_655" data-name="Path 655" d="M148.085,225.044a46.317,46.317,0,0,0-3.586,9.2q1.484,1.965,3.129,3.794a46.694,46.694,0,0,1,4.3-7.086A9.222,9.222,0,0,0,148.085,225.044Z" transform="translate(-8.4 -60.076)" fill="#fff" opacity="0.14"/>
    <path id="Path_656" data-name="Path 656" d="M148.085,225.044a46.317,46.317,0,0,0-3.586,9.2q1.484,1.965,3.129,3.794a46.694,46.694,0,0,1,4.3-7.086A9.222,9.222,0,0,0,148.085,225.044Z" transform="translate(-8.4 -60.076)" fill="#fff" opacity="0.14"/>
    <path id="Path_657" data-name="Path 657" d="M148.085,225.044a46.317,46.317,0,0,0-3.586,9.2q1.484,1.965,3.129,3.794a46.694,46.694,0,0,1,4.3-7.086A9.222,9.222,0,0,0,148.085,225.044Z" transform="translate(-8.4 -60.076)" fill="#fff" opacity="0.14"/>
    <path id="Path_658" data-name="Path 658" d="M147.473,250.784a9.192,9.192,0,0,0,2.792-1.717q-.7-.726-1.378-1.477C148.376,248.633,147.908,249.7,147.473,250.784Z" transform="translate(-9.66 -69.628)" fill="#fff" opacity="0.14"/>
    <path id="Path_659" data-name="Path 659" d="M147.473,250.784a9.192,9.192,0,0,0,2.792-1.717q-.7-.726-1.378-1.477C148.376,248.633,147.908,249.7,147.473,250.784Z" transform="translate(-9.66 -69.628)" fill="#fff" opacity="0.14"/>
    <path id="Path_660" data-name="Path 660" d="M147.473,250.784a9.192,9.192,0,0,0,2.792-1.717q-.7-.726-1.378-1.477C148.376,248.633,147.908,249.7,147.473,250.784Z" transform="translate(-9.66 -69.628)" fill="#fff" opacity="0.14"/>
    <path id="Path_661" data-name="Path 661" d="M147.473,250.784a9.192,9.192,0,0,0,2.792-1.717q-.7-.726-1.378-1.477C148.376,248.633,147.908,249.7,147.473,250.784Z" transform="translate(-9.66 -69.628)" fill="#fff" opacity="0.14"/>
    <path id="Path_662" data-name="Path 662" d="M147.473,250.784a9.192,9.192,0,0,0,2.792-1.717q-.7-.726-1.378-1.477C148.376,248.633,147.908,249.7,147.473,250.784Z" transform="translate(-9.66 -69.628)" fill="#fff" opacity="0.14"/>
    <path id="Path_663" data-name="Path 663" d="M151.305,243.859a9.147,9.147,0,0,0,2.923-8.564,46.689,46.689,0,0,0-4.3,7.086Q150.6,243.133,151.305,243.859Z" transform="translate(-10.7 -64.419)" fill="#fff" opacity="0.14"/>
    <path id="Path_664" data-name="Path 664" d="M151.305,243.859a9.147,9.147,0,0,0,2.923-8.564,46.689,46.689,0,0,0-4.3,7.086Q150.6,243.133,151.305,243.859Z" transform="translate(-10.7 -64.419)" fill="#fff" opacity="0.14"/>
    <path id="Path_665" data-name="Path 665" d="M151.305,243.859a9.147,9.147,0,0,0,2.923-8.564,46.689,46.689,0,0,0-4.3,7.086Q150.6,243.133,151.305,243.859Z" transform="translate(-10.7 -64.419)" fill="#fff" opacity="0.14"/>
    <path id="Path_666" data-name="Path 666" d="M151.305,243.859a9.147,9.147,0,0,0,2.923-8.564,46.689,46.689,0,0,0-4.3,7.086Q150.6,243.133,151.305,243.859Z" transform="translate(-10.7 -64.419)" fill="#fff" opacity="0.14"/>
    <path id="Path_667" data-name="Path 667" d="M151.305,243.859a9.147,9.147,0,0,0,2.923-8.564,46.689,46.689,0,0,0-4.3,7.086Q150.6,243.133,151.305,243.859Z" transform="translate(-10.7 -64.419)" fill="#fff" opacity="0.14"/>
    <path id="Path_668" data-name="Path 668" d="M151.305,243.859a9.147,9.147,0,0,0,2.923-8.564,46.689,46.689,0,0,0-4.3,7.086Q150.6,243.133,151.305,243.859Z" transform="translate(-10.7 -64.419)" fill="#fff" opacity="0.14"/>
    <path id="Path_669" data-name="Path 669" d="M306.552,232.72a3.169,3.169,0,0,1-2.882,3.156v5.778a9.245,9.245,0,0,0,1.767-.173,3.163,3.163,0,0,1,4.571-2.361,9.2,9.2,0,0,0-1.59-14.582,56.555,56.555,0,0,1-3.141,5.646A3.162,3.162,0,0,1,306.552,232.72Z" transform="translate(-75.832 -59.862)" fill="#fff" opacity="0.14"/>
    <path id="Path_670" data-name="Path 670" d="M303.67,228.588a3.149,3.149,0,0,1,1.607.619,56.556,56.556,0,0,0,3.141-5.646,9.164,9.164,0,0,0-4.748-1.327v6.354Z" transform="translate(-75.832 -58.886)" fill="#fff" opacity="0.14"/>
    <path id="Path_671" data-name="Path 671" d="M303.67,228.588a3.149,3.149,0,0,1,1.607.619,56.556,56.556,0,0,0,3.141-5.646,9.164,9.164,0,0,0-4.748-1.327v6.354Z" transform="translate(-75.832 -58.886)" fill="#fff" opacity="0.14"/>
    <path id="Path_672" data-name="Path 672" d="M302.423,242.1v-2.9q-.346.481-.7.955c-.1.459-.206.914-.316,1.368a46.491,46.491,0,0,1,1.075,6.328c.077,0,.152.012.229.012v-5.778C302.616,242.1,302.521,242.1,302.423,242.1Z" transform="translate(-74.873 -66.075)" fill="#fff" opacity="0.14"/>
    <path id="Path_673" data-name="Path 673" d="M302.423,242.1v-2.9q-.346.481-.7.955c-.1.459-.206.914-.316,1.368a46.491,46.491,0,0,1,1.075,6.328c.077,0,.152.012.229.012v-5.778C302.616,242.1,302.521,242.1,302.423,242.1Z" transform="translate(-74.873 -66.075)" fill="#fff" opacity="0.14"/>
    <path id="Path_674" data-name="Path 674" d="M300.391,223.387v-1.153a9.178,9.178,0,0,0-4.461,1.153Z" transform="translate(-72.553 -58.886)" fill="#fff" opacity="0.14"/>
    <path id="Path_675" data-name="Path 675" d="M300.391,223.387v-1.153a9.178,9.178,0,0,0-4.461,1.153Z" transform="translate(-72.553 -58.886)" fill="#fff" opacity="0.14"/>
    <path id="Path_676" data-name="Path 676" d="M300.391,223.387v-1.153a9.178,9.178,0,0,0-4.461,1.153Z" transform="translate(-72.553 -58.886)" fill="#fff" opacity="0.14"/>
    <path id="Path_677" data-name="Path 677" d="M302.655,232.862v-3.44c.1,0,.193.006.288.014v-5.2a46.865,46.865,0,0,1-.988,9.583Q302.31,233.343,302.655,232.862Z" transform="translate(-75.105 -59.733)" fill="#fff" opacity="0.14"/>
    <path id="Path_678" data-name="Path 678" d="M302.655,232.862v-3.44c.1,0,.193.006.288.014v-5.2a46.865,46.865,0,0,1-.988,9.583Q302.31,233.343,302.655,232.862Z" transform="translate(-75.105 -59.733)" fill="#fff" opacity="0.14"/>
    <path id="Path_679" data-name="Path 679" d="M302.655,232.862v-3.44c.1,0,.193.006.288.014v-5.2a46.865,46.865,0,0,1-.988,9.583Q302.31,233.343,302.655,232.862Z" transform="translate(-75.105 -59.733)" fill="#fff" opacity="0.14"/>
    <path id="Path_680" data-name="Path 680" d="M301.158,249.562a46.49,46.49,0,0,0-1.075-6.328,46.39,46.39,0,0,1-1.8,5.792A9.178,9.178,0,0,0,301.158,249.562Z" transform="translate(-73.549 -67.782)" fill="#fff" opacity="0.14"/>
    <path id="Path_681" data-name="Path 681" d="M301.158,249.562a46.49,46.49,0,0,0-1.075-6.328,46.39,46.39,0,0,1-1.8,5.792A9.178,9.178,0,0,0,301.158,249.562Z" transform="translate(-73.549 -67.782)" fill="#fff" opacity="0.14"/>
    <path id="Path_682" data-name="Path 682" d="M301.158,249.562a46.49,46.49,0,0,0-1.075-6.328,46.39,46.39,0,0,1-1.8,5.792A9.178,9.178,0,0,0,301.158,249.562Z" transform="translate(-73.549 -67.782)" fill="#fff" opacity="0.14"/>
    <path id="Path_683" data-name="Path 683" d="M301.282,242.228c.109-.455.22-.909.316-1.368-.16.213-.323.423-.486.634C301.174,241.737,301.223,241.984,301.282,242.228Z" transform="translate(-74.747 -66.777)" fill="#fff" opacity="0.14"/>
    <path id="Path_684" data-name="Path 684" d="M301.282,242.228c.109-.455.22-.909.316-1.368-.16.213-.323.423-.486.634C301.174,241.737,301.223,241.984,301.282,242.228Z" transform="translate(-74.747 -66.777)" fill="#fff" opacity="0.14"/>
    <path id="Path_685" data-name="Path 685" d="M301.282,242.228c.109-.455.22-.909.316-1.368-.16.213-.323.423-.486.634C301.174,241.737,301.223,241.984,301.282,242.228Z" transform="translate(-74.747 -66.777)" fill="#fff" opacity="0.14"/>
    <path id="Path_686" data-name="Path 686" d="M298.362,234.451c.163-.211.326-.421.486-.634a46.867,46.867,0,0,0,.988-9.583h-4.461q-.389.216-.754.467A46.343,46.343,0,0,1,298.362,234.451Z" transform="translate(-71.998 -59.733)" fill="#fff" opacity="0.14"/>
    <path id="Path_687" data-name="Path 687" d="M298.362,234.451c.163-.211.326-.421.486-.634a46.867,46.867,0,0,0,.988-9.583h-4.461q-.389.216-.754.467A46.343,46.343,0,0,1,298.362,234.451Z" transform="translate(-71.998 -59.733)" fill="#fff" opacity="0.14"/>
    <path id="Path_688" data-name="Path 688" d="M298.362,234.451c.163-.211.326-.421.486-.634a46.867,46.867,0,0,0,.988-9.583h-4.461q-.389.216-.754.467A46.343,46.343,0,0,1,298.362,234.451Z" transform="translate(-71.998 -59.733)" fill="#fff" opacity="0.14"/>
    <path id="Path_689" data-name="Path 689" d="M298.362,234.451c.163-.211.326-.421.486-.634a46.867,46.867,0,0,0,.988-9.583h-4.461q-.389.216-.754.467A46.343,46.343,0,0,1,298.362,234.451Z" transform="translate(-71.998 -59.733)" fill="#fff" opacity="0.14"/>
    <path id="Path_690" data-name="Path 690" d="M295.766,245.615c.436.911.834,1.842,1.211,2.784.079.031.16.059.239.088a46.394,46.394,0,0,0,1.8-5.792c-.059-.244-.108-.492-.171-.734Q297.382,243.852,295.766,245.615Z" transform="translate(-72.483 -67.243)" fill="#fff" opacity="0.14"/>
    <path id="Path_691" data-name="Path 691" d="M295.766,245.615c.436.911.834,1.842,1.211,2.784.079.031.16.059.239.088a46.394,46.394,0,0,0,1.8-5.792c-.059-.244-.108-.492-.171-.734Q297.382,243.852,295.766,245.615Z" transform="translate(-72.483 -67.243)" fill="#fff" opacity="0.14"/>
    <path id="Path_692" data-name="Path 692" d="M295.766,245.615c.436.911.834,1.842,1.211,2.784.079.031.16.059.239.088a46.394,46.394,0,0,0,1.8-5.792c-.059-.244-.108-.492-.171-.734Q297.382,243.852,295.766,245.615Z" transform="translate(-72.483 -67.243)" fill="#fff" opacity="0.14"/>
    <path id="Path_693" data-name="Path 693" d="M295.766,245.615c.436.911.834,1.842,1.211,2.784.079.031.16.059.239.088a46.394,46.394,0,0,0,1.8-5.792c-.059-.244-.108-.492-.171-.734Q297.382,243.852,295.766,245.615Z" transform="translate(-72.483 -67.243)" fill="#fff" opacity="0.14"/>
    <path id="Path_694" data-name="Path 694" d="M295.536,234.794a46.342,46.342,0,0,0-3.741-9.75,9.217,9.217,0,0,0-3.844,5.908,46.683,46.683,0,0,1,4.5,7.5Q294.072,236.688,295.536,234.794Z" transform="translate(-69.173 -60.076)" fill="#fff" opacity="0.14"/>
    <path id="Path_695" data-name="Path 695" d="M295.536,234.794a46.342,46.342,0,0,0-3.741-9.75,9.217,9.217,0,0,0-3.844,5.908,46.683,46.683,0,0,1,4.5,7.5Q294.072,236.688,295.536,234.794Z" transform="translate(-69.173 -60.076)" fill="#fff" opacity="0.14"/>
    <path id="Path_696" data-name="Path 696" d="M295.536,234.794a46.342,46.342,0,0,0-3.741-9.75,9.217,9.217,0,0,0-3.844,5.908,46.683,46.683,0,0,1,4.5,7.5Q294.072,236.688,295.536,234.794Z" transform="translate(-69.173 -60.076)" fill="#fff" opacity="0.14"/>
    <path id="Path_697" data-name="Path 697" d="M295.536,234.794a46.342,46.342,0,0,0-3.741-9.75,9.217,9.217,0,0,0-3.844,5.908,46.683,46.683,0,0,1,4.5,7.5Q294.072,236.688,295.536,234.794Z" transform="translate(-69.173 -60.076)" fill="#fff" opacity="0.14"/>
    <path id="Path_698" data-name="Path 698" d="M295.536,234.794a46.342,46.342,0,0,0-3.741-9.75,9.217,9.217,0,0,0-3.844,5.908,46.683,46.683,0,0,1,4.5,7.5Q294.072,236.688,295.536,234.794Z" transform="translate(-69.173 -60.076)" fill="#fff" opacity="0.14"/>
    <path id="Path_699" data-name="Path 699" d="M294.831,248.3q-.625.681-1.273,1.341a9.2,9.2,0,0,0,2.484,1.443C295.665,250.144,295.267,249.213,294.831,248.3Z" transform="translate(-71.548 -69.929)" fill="#fff" opacity="0.14"/>
    <path id="Path_700" data-name="Path 700" d="M294.831,248.3q-.625.681-1.273,1.341a9.2,9.2,0,0,0,2.484,1.443C295.665,250.144,295.267,249.213,294.831,248.3Z" transform="translate(-71.548 -69.929)" fill="#fff" opacity="0.14"/>
    <path id="Path_701" data-name="Path 701" d="M294.831,248.3q-.625.681-1.273,1.341a9.2,9.2,0,0,0,2.484,1.443C295.665,250.144,295.267,249.213,294.831,248.3Z" transform="translate(-71.548 -69.929)" fill="#fff" opacity="0.14"/>
    <path id="Path_702" data-name="Path 702" d="M294.831,248.3q-.625.681-1.273,1.341a9.2,9.2,0,0,0,2.484,1.443C295.665,250.144,295.267,249.213,294.831,248.3Z" transform="translate(-71.548 -69.929)" fill="#fff" opacity="0.14"/>
    <path id="Path_703" data-name="Path 703" d="M294.831,248.3q-.625.681-1.273,1.341a9.2,9.2,0,0,0,2.484,1.443C295.665,250.144,295.267,249.213,294.831,248.3Z" transform="translate(-71.548 -69.929)" fill="#fff" opacity="0.14"/>
    <path id="Path_704" data-name="Path 704" d="M287.833,235.295a9.164,9.164,0,0,0,3.231,8.838q.647-.661,1.273-1.341A46.682,46.682,0,0,0,287.833,235.295Z" transform="translate(-69.053 -64.419)" fill="#fff" opacity="0.14"/>
    <path id="Path_705" data-name="Path 705" d="M287.833,235.295a9.164,9.164,0,0,0,3.231,8.838q.647-.661,1.273-1.341A46.682,46.682,0,0,0,287.833,235.295Z" transform="translate(-69.053 -64.419)" fill="#fff" opacity="0.14"/>
    <path id="Path_706" data-name="Path 706" d="M287.833,235.295a9.164,9.164,0,0,0,3.231,8.838q.647-.661,1.273-1.341A46.682,46.682,0,0,0,287.833,235.295Z" transform="translate(-69.053 -64.419)" fill="#fff" opacity="0.14"/>
    <path id="Path_707" data-name="Path 707" d="M287.833,235.295a9.164,9.164,0,0,0,3.231,8.838q.647-.661,1.273-1.341A46.682,46.682,0,0,0,287.833,235.295Z" transform="translate(-69.053 -64.419)" fill="#fff" opacity="0.14"/>
    <path id="Path_708" data-name="Path 708" d="M287.833,235.295a9.164,9.164,0,0,0,3.231,8.838q.647-.661,1.273-1.341A46.682,46.682,0,0,0,287.833,235.295Z" transform="translate(-69.053 -64.419)" fill="#fff" opacity="0.14"/>
    <path id="Path_709" data-name="Path 709" d="M287.833,235.295a9.164,9.164,0,0,0,3.231,8.838q.647-.661,1.273-1.341A46.682,46.682,0,0,0,287.833,235.295Z" transform="translate(-69.053 -64.419)" fill="#fff" opacity="0.14"/>
    <path id="Path_710" data-name="Path 710" d="M132.113,249.234a3.149,3.149,0,0,0-1.438.348,9.182,9.182,0,0,0,4.571,2.361A3.168,3.168,0,0,0,132.113,249.234Z" transform="translate(-2.544 -70.324)" fill="#fff" opacity="0.14"/>
    <path id="Path_711" data-name="Path 711" d="M138.356,233.875a3.169,3.169,0,0,0,1.2,5.956v-4.119Q138.936,234.806,138.356,233.875Z" transform="translate(-5.084 -63.818)" fill="#fff" opacity="0.14"/>
    <path id="Path_712" data-name="Path 712" d="M138.356,233.875a3.169,3.169,0,0,0,1.2,5.956v-4.119Q138.936,234.806,138.356,233.875Z" transform="translate(-5.084 -63.818)" fill="#fff" opacity="0.14"/>
    <path id="Path_713" data-name="Path 713" d="M140.791,233.259a3.143,3.143,0,0,0-1.2.355q.581.93,1.2,1.837Z" transform="translate(-6.323 -63.557)" fill="#fff" opacity="0.14"/>
    <path id="Path_714" data-name="Path 714" d="M140.791,233.259a3.143,3.143,0,0,0-1.2.355q.581.93,1.2,1.837Z" transform="translate(-6.323 -63.557)" fill="#fff" opacity="0.14"/>
    <path id="Path_715" data-name="Path 715" d="M140.791,233.259a3.143,3.143,0,0,0-1.2.355q.581.93,1.2,1.837Z" transform="translate(-6.323 -63.557)" fill="#fff" opacity="0.14"/>
    <path id="Path_716" data-name="Path 716" d="M138.356,233.614a3.169,3.169,0,0,0,1.2,5.956v-6.311A3.143,3.143,0,0,0,138.356,233.614Z" transform="translate(-5.084 -63.557)" fill="#e88049"/>
    <path id="Path_717" data-name="Path 717" d="M141.67,241.182c.1.009.191.014.288.014v-3.718c-.1-.138-.193-.276-.288-.416Z" transform="translate(-7.202 -65.168)" fill="#fff" opacity="0.14"/>
    <path id="Path_718" data-name="Path 718" d="M141.67,241.182c.1.009.191.014.288.014v-3.718c-.1-.138-.193-.276-.288-.416Z" transform="translate(-7.202 -65.168)" fill="#fff" opacity="0.14"/>
    <path id="Path_719" data-name="Path 719" d="M141.67,233.248v2.192c.1.139.192.277.288.416v-2.622C141.861,233.234,141.765,233.24,141.67,233.248Z" transform="translate(-7.202 -63.546)" fill="#fff" opacity="0.14"/>
    <path id="Path_720" data-name="Path 720" d="M141.67,233.248v2.192c.1.139.192.277.288.416v-2.622C141.861,233.234,141.765,233.24,141.67,233.248Z" transform="translate(-7.202 -63.546)" fill="#fff" opacity="0.14"/>
    <path id="Path_721" data-name="Path 721" d="M141.67,233.248v2.192c.1.139.192.277.288.416v-2.622C141.861,233.234,141.765,233.24,141.67,233.248Z" transform="translate(-7.202 -63.546)" fill="#fff" opacity="0.14"/>
    <path id="Path_722" data-name="Path 722" d="M141.67,233.248v2.192c.1.139.192.277.288.416v-2.622C141.861,233.234,141.765,233.24,141.67,233.248Z" transform="translate(-7.202 -63.546)" fill="#fff" opacity="0.14"/>
    <path id="Path_723" data-name="Path 723" d="M303.67,240.025a3.166,3.166,0,0,0,1.607-5.692q-.774,1.223-1.607,2.4Z" transform="translate(-75.832 -64.012)" fill="#fff" opacity="0.14"/>
    <path id="Path_724" data-name="Path 724" d="M303.67,240.025a3.166,3.166,0,0,0,1.607-5.692q-.774,1.223-1.607,2.4Z" transform="translate(-75.832 -64.012)" fill="#fff" opacity="0.14"/>
    <path id="Path_725" data-name="Path 725" d="M305.277,233.878a3.149,3.149,0,0,0-1.607-.619v3.024Q304.5,235.1,305.277,233.878Z" transform="translate(-75.832 -63.557)" fill="#fff" opacity="0.14"/>
    <path id="Path_726" data-name="Path 726" d="M305.277,233.878a3.149,3.149,0,0,0-1.607-.619v3.024Q304.5,235.1,305.277,233.878Z" transform="translate(-75.832 -63.557)" fill="#fff" opacity="0.14"/>
    <path id="Path_727" data-name="Path 727" d="M305.277,233.878a3.149,3.149,0,0,0-1.607-.619v3.024Q304.5,235.1,305.277,233.878Z" transform="translate(-75.832 -63.557)" fill="#fff" opacity="0.14"/>
    <path id="Path_728" data-name="Path 728" d="M305.277,233.878a3.149,3.149,0,0,0-1.607-.619v6.311a3.166,3.166,0,0,0,1.607-5.692Z" transform="translate(-75.832 -63.557)" fill="#e88049"/>
    <path id="Path_729" data-name="Path 729" d="M303.17,238.907v2.9c.1,0,.193-.006.288-.014v-3.288C303.363,238.64,303.266,238.774,303.17,238.907Z" transform="translate(-75.62 -65.779)" fill="#fff" opacity="0.14"/>
    <path id="Path_730" data-name="Path 730" d="M303.17,238.907v2.9c.1,0,.193-.006.288-.014v-3.288C303.363,238.64,303.266,238.774,303.17,238.907Z" transform="translate(-75.62 -65.779)" fill="#fff" opacity="0.14"/>
    <path id="Path_731" data-name="Path 731" d="M303.17,238.907v2.9c.1,0,.193-.006.288-.014v-3.288C303.363,238.64,303.266,238.774,303.17,238.907Z" transform="translate(-75.62 -65.779)" fill="#fff" opacity="0.14"/>
    <path id="Path_732" data-name="Path 732" d="M303.17,236.674c.1-.134.193-.267.288-.4v-3.024c-.1-.009-.191-.014-.288-.014Z" transform="translate(-75.62 -63.546)" fill="#fff" opacity="0.14"/>
    <path id="Path_733" data-name="Path 733" d="M303.17,236.674c.1-.134.193-.267.288-.4v-3.024c-.1-.009-.191-.014-.288-.014Z" transform="translate(-75.62 -63.546)" fill="#fff" opacity="0.14"/>
    <path id="Path_734" data-name="Path 734" d="M303.17,236.674c.1-.134.193-.267.288-.4v-3.024c-.1-.009-.191-.014-.288-.014Z" transform="translate(-75.62 -63.546)" fill="#fff" opacity="0.14"/>
    <path id="Path_735" data-name="Path 735" d="M303.17,236.674c.1-.134.193-.267.288-.4v-3.024c-.1-.009-.191-.014-.288-.014Z" transform="translate(-75.62 -63.546)" fill="#fff" opacity="0.14"/>
    <g id="Group_237" data-name="Group 237" transform="translate(124.67 140.005)">
      <path id="Path_736" data-name="Path 736" d="M134.468,228.131V223.52a9.234,9.234,0,0,1-1.766-.173,9.056,9.056,0,0,1-1.288-.349l-3.284-2.011a9.207,9.207,0,0,1,2.041-14.844,56.551,56.551,0,0,1-5.5-24.408v87.895A40.649,40.649,0,0,0,142.223,266a24.361,24.361,0,0,0,6.51-4.29,46.545,46.545,0,0,1-13.861-27.523A47.1,47.1,0,0,1,134.468,228.131Z" transform="translate(-124.67 -181.734)"/>
      <path id="Path_737" data-name="Path 737" d="M298.12,206.4a9.221,9.221,0,0,1-4.748,17.117v4.611a46.857,46.857,0,0,1-14.01,33.332,20.769,20.769,0,0,0,6.027,4.888c8.282,4.546,18.358,3.854,18.358,3.854V181.734A56.541,56.541,0,0,1,298.12,206.4Z" transform="translate(-190.204 -181.734)"/>
    </g>
    <path id="Path_738" data-name="Path 738" d="M306.735,251.942a9.185,9.185,0,0,0,4.571-2.361,3.163,3.163,0,0,0-4.571,2.361Z" transform="translate(-77.13 -70.324)" fill="#fff" opacity="0.14"/>
    <g id="Group_238" data-name="Group 238" transform="translate(125.246 163.348)">
      <path id="Path_739" data-name="Path 739" d="M125.67,231.456a9.238,9.238,0,0,0,9.222,9.222V234.9a3.169,3.169,0,0,1,0-6.311v-6.354a9.231,9.231,0,0,0-9.222,9.222Z" transform="translate(-125.67 -222.234)" fill="#fd9654"/>
      <path id="Path_740" data-name="Path 740" d="M308.418,223.561a9.169,9.169,0,0,0-4.748-1.327v6.354a3.169,3.169,0,0,1,0,6.311v5.778a9.215,9.215,0,0,0,4.748-17.117Z" transform="translate(-201.078 -222.234)" fill="#fd9654"/>
    </g>
    <path id="Path_741" data-name="Path 741" d="M185.67,355.065v13.8H228.9v-14.1a46.674,46.674,0,0,1-43.227.3Z" transform="translate(-25.842 -115.033)" fill="#e2783c"/>
    <path id="Path_742" data-name="Path 742" d="M207,339.225a46.466,46.466,0,0,1-21.325-5.16v12.1a46.674,46.674,0,0,0,43.227-.3v-12.1A46.47,46.47,0,0,1,207,339.225Z" transform="translate(-25.842 -106.137)" fill="#fff" opacity="0.14"/>
    <path id="Path_743" data-name="Path 743" d="M207,339.225a46.466,46.466,0,0,1-21.325-5.16v12.1a46.674,46.674,0,0,0,43.227-.3v-12.1A46.47,46.47,0,0,1,207,339.225Z" transform="translate(-25.842 -106.137)" fill="#c85a1f"/>
    <path id="Path_744" data-name="Path 744" d="M185.67,329.234v2.909a46.674,46.674,0,0,0,43.227-.3v-2.614Z" transform="translate(-25.842 -104.215)" fill="#fff" opacity="0.14"/>
    <path id="Path_745" data-name="Path 745" d="M185.67,329.234v2.909a46.674,46.674,0,0,0,43.227-.3v-2.614Z" transform="translate(-25.842 -104.215)" fill="#fff" opacity="0.14"/>
    <path id="Path_746" data-name="Path 746" d="M234.052,233.817c-.1.459-.206.914-.316,1.368a46.4,46.4,0,0,1-1.8,5.792c-.033.087-.068.173-.1.259a46.673,46.673,0,0,1-86.955,0c-.034-.086-.069-.172-.1-.259a46.4,46.4,0,0,1-1.8-5.792q-.288-1.2-.513-2.424a46.856,46.856,0,0,1-.791-8.527v21.9a47.1,47.1,0,0,0,.4,6.052,46.685,46.685,0,0,0,92.967-6.052v-21.9A46.865,46.865,0,0,1,234.052,233.817Z" transform="translate(-7.202 -59.733)" fill="#f39454"/>
    <path id="Path_747" data-name="Path 747" d="M221.472,292.234a21.084,21.084,0,0,1-13.752,0h-4.108a19.175,19.175,0,0,0,21.969,0h-4.109Z" transform="translate(-33.443 -88.541)" fill="#fff" opacity="0.14"/>
    <path id="Path_748" data-name="Path 748" d="M221.472,292.234a21.084,21.084,0,0,1-13.752,0h-4.108a19.175,19.175,0,0,0,21.969,0h-4.109Z" transform="translate(-33.443 -88.541)" fill="#fff" opacity="0.14"/>
    <path id="Path_749" data-name="Path 749" d="M221.472,292.234a21.084,21.084,0,0,1-13.752,0h-4.108a19.175,19.175,0,0,0,21.969,0h-4.109Z" transform="translate(-33.443 -88.541)" fill="#fff" opacity="0.14"/>
    <path id="Path_750" data-name="Path 750" d="M221.472,292.234a21.084,21.084,0,0,1-13.752,0h-4.108a19.175,19.175,0,0,0,21.969,0h-4.109Z" transform="translate(-33.443 -88.541)" fill="#fff" opacity="0.14"/>
    <path id="Path_751" data-name="Path 751" d="M192.992,264.539v-.576h32.276v.576h2.282a16.8,16.8,0,0,0-.282-2.305H190.992a16.8,16.8,0,0,0-.282,2.305Z" transform="translate(-27.977 -75.832)" fill="#fff" opacity="0.14"/>
    <path id="Path_752" data-name="Path 752" d="M192.992,264.539v-.576h32.276v.576h2.282a16.8,16.8,0,0,0-.282-2.305H190.992a16.8,16.8,0,0,0-.282,2.305Z" transform="translate(-27.977 -75.832)" fill="#fff" opacity="0.14"/>
    <path id="Path_753" data-name="Path 753" d="M192.992,264.539v-.576h32.276v.576h2.282a16.8,16.8,0,0,0-.282-2.305H190.992a16.8,16.8,0,0,0-.282,2.305Z" transform="translate(-27.977 -75.832)" fill="#fff" opacity="0.14"/>
    <path id="Path_754" data-name="Path 754" d="M192.992,264.539v-.576h32.276v.576h2.282a16.8,16.8,0,0,0-.282-2.305H190.992a16.8,16.8,0,0,0-.282,2.305Z" transform="translate(-27.977 -75.832)" fill="#fff" opacity="0.14"/>
    <path id="Path_755" data-name="Path 755" d="M192.992,264.539v-.576h32.276v.576h2.282a16.8,16.8,0,0,0-.282-2.305H190.992a16.8,16.8,0,0,0-.282,2.305Z" transform="translate(-27.977 -75.832)" fill="#fff" opacity="0.14"/>
    <path id="Path_756" data-name="Path 756" d="M209.338,237.234c-9.05,0-16.572,6.214-18.139,14.409h36.277C225.91,243.448,218.388,237.234,209.338,237.234Zm-6.916,12.1a2.305,2.305,0,1,1,2.305-2.305A2.306,2.306,0,0,1,202.421,249.338Zm13.833,0a2.305,2.305,0,1,1,2.305-2.305A2.306,2.306,0,0,1,216.254,249.338Z" transform="translate(-28.184 -65.241)" fill="#fff" opacity="0.14"/>
    <path id="Path_757" data-name="Path 757" d="M209.338,237.234c-9.05,0-16.572,6.214-18.139,14.409h36.277C225.91,243.448,218.388,237.234,209.338,237.234Zm-6.916,12.1a2.305,2.305,0,1,1,2.305-2.305A2.306,2.306,0,0,1,202.421,249.338Zm13.833,0a2.305,2.305,0,1,1,2.305-2.305A2.306,2.306,0,0,1,216.254,249.338Z" transform="translate(-28.184 -65.241)" fill="#fff" opacity="0.14"/>
    <path id="Path_758" data-name="Path 758" d="M209.338,237.234c-9.05,0-16.572,6.214-18.139,14.409h36.277C225.91,243.448,218.388,237.234,209.338,237.234Zm-6.916,12.1a2.305,2.305,0,1,1,2.305-2.305A2.306,2.306,0,0,1,202.421,249.338Zm13.833,0a2.305,2.305,0,1,1,2.305-2.305A2.306,2.306,0,0,1,216.254,249.338Z" transform="translate(-28.184 -65.241)" fill="#fff" opacity="0.14"/>
    <path id="Path_759" data-name="Path 759" d="M209.338,237.234c-9.05,0-16.572,6.214-18.139,14.409h36.277C225.91,243.448,218.388,237.234,209.338,237.234Zm-6.916,12.1a2.305,2.305,0,1,1,2.305-2.305A2.306,2.306,0,0,1,202.421,249.338Zm13.833,0a2.305,2.305,0,1,1,2.305-2.305A2.306,2.306,0,0,1,216.254,249.338Z" transform="translate(-28.184 -65.241)" fill="#fff" opacity="0.14"/>
    <path id="Path_760" data-name="Path 760" d="M209.338,237.234c-9.05,0-16.572,6.214-18.139,14.409h36.277C225.91,243.448,218.388,237.234,209.338,237.234Zm-6.916,12.1a2.305,2.305,0,1,1,2.305-2.305A2.306,2.306,0,0,1,202.421,249.338Zm13.833,0a2.305,2.305,0,1,1,2.305-2.305A2.306,2.306,0,0,1,216.254,249.338Z" transform="translate(-28.184 -65.241)" fill="#fff" opacity="0.14"/>
    <path id="Path_761" data-name="Path 761" d="M209.338,237.234c-9.05,0-16.572,6.214-18.139,14.409h36.277C225.91,243.448,218.388,237.234,209.338,237.234Zm-6.916,12.1a2.305,2.305,0,1,1,2.305-2.305A2.306,2.306,0,0,1,202.421,249.338Zm13.833,0a2.305,2.305,0,1,1,2.305-2.305A2.306,2.306,0,0,1,216.254,249.338Z" transform="translate(-28.184 -65.241)" fill="#fff" opacity="0.14"/>
    <ellipse id="Ellipse_55" data-name="Ellipse 55" cx="2.5" cy="3" rx="2.5" ry="3" transform="translate(171.8 178.837)" fill="#fff" opacity="0.14"/>
    <ellipse id="Ellipse_56" data-name="Ellipse 56" cx="2.5" cy="3" rx="2.5" ry="3" transform="translate(171.8 178.837)" fill="#fff" opacity="0.14"/>
    <ellipse id="Ellipse_57" data-name="Ellipse 57" cx="2.5" cy="3" rx="2.5" ry="3" transform="translate(171.8 178.837)" fill="#fff" opacity="0.14"/>
    <ellipse id="Ellipse_58" data-name="Ellipse 58" cx="2.5" cy="3" rx="2.5" ry="3" transform="translate(171.8 178.837)" fill="#fff" opacity="0.14"/>
    <ellipse id="Ellipse_59" data-name="Ellipse 59" cx="2.5" cy="3" rx="2.5" ry="3" transform="translate(171.8 178.837)" fill="#fff" opacity="0.14"/>
    <ellipse id="Ellipse_60" data-name="Ellipse 60" cx="2.5" cy="3" rx="2.5" ry="3" transform="translate(171.8 178.837)" fill="#fff" opacity="0.14"/>
    <ellipse id="Ellipse_61" data-name="Ellipse 61" cx="2.5" cy="3" rx="2.5" ry="3" transform="translate(171.8 178.837)" fill="#fff" opacity="0.14"/>
    <ellipse id="Ellipse_62" data-name="Ellipse 62" cx="2.5" cy="3" rx="2.5" ry="3" transform="translate(171.8 178.837)" fill="#e88b50"/>
    <ellipse id="Ellipse_63" data-name="Ellipse 63" cx="2.5" cy="3" rx="2.5" ry="3" transform="translate(185.8 178.837)" fill="#fff" opacity="0.14"/>
    <ellipse id="Ellipse_64" data-name="Ellipse 64" cx="2.5" cy="3" rx="2.5" ry="3" transform="translate(185.8 178.837)" fill="#fff" opacity="0.14"/>
    <ellipse id="Ellipse_65" data-name="Ellipse 65" cx="2.5" cy="3" rx="2.5" ry="3" transform="translate(185.8 178.837)" fill="#fff" opacity="0.14"/>
    <ellipse id="Ellipse_66" data-name="Ellipse 66" cx="2.5" cy="3" rx="2.5" ry="3" transform="translate(185.8 178.837)" fill="#fff" opacity="0.14"/>
    <ellipse id="Ellipse_67" data-name="Ellipse 67" cx="2.5" cy="3" rx="2.5" ry="3" transform="translate(185.8 178.837)" fill="#fff" opacity="0.14"/>
    <ellipse id="Ellipse_68" data-name="Ellipse 68" cx="2.5" cy="3" rx="2.5" ry="3" transform="translate(185.8 178.837)" fill="#fff" opacity="0.14"/>
    <ellipse id="Ellipse_69" data-name="Ellipse 69" cx="2.5" cy="3" rx="2.5" ry="3" transform="translate(185.8 178.837)" fill="#fff" opacity="0.14"/>
    <ellipse id="Ellipse_70" data-name="Ellipse 70" cx="2.5" cy="3" rx="2.5" ry="3" transform="translate(185.8 178.837)" fill="#e88b50"/>
    <rect id="Rectangle_1560" data-name="Rectangle 1560" width="32" height="1" transform="translate(164.8 187.837)" fill="#fff" opacity="0.14"/>
    <rect id="Rectangle_1561" data-name="Rectangle 1561" width="32" height="1" transform="translate(164.8 187.837)" fill="#fff" opacity="0.14"/>
    <rect id="Rectangle_1562" data-name="Rectangle 1562" width="32" height="1" transform="translate(164.8 187.837)" fill="#fff" opacity="0.14"/>
    <rect id="Rectangle_1563" data-name="Rectangle 1563" width="32" height="1" transform="translate(164.8 187.837)" fill="#fff" opacity="0.14"/>
    <rect id="Rectangle_1564" data-name="Rectangle 1564" width="32" height="1" transform="translate(164.8 187.837)" fill="#fff" opacity="0.14"/>
    <rect id="Rectangle_1565" data-name="Rectangle 1565" width="32" height="1" transform="translate(164.8 187.837)" fill="#fff" opacity="0.14"/>
    <path id="Path_762" data-name="Path 762" d="M217.616,293.387a20.11,20.11,0,0,0,6.876-1.153H210.74A20.113,20.113,0,0,0,217.616,293.387Z" transform="translate(-36.463 -88.541)" fill="#fff" opacity="0.14"/>
    <path id="Path_763" data-name="Path 763" d="M217.616,293.387a20.11,20.11,0,0,0,6.876-1.153H210.74A20.113,20.113,0,0,0,217.616,293.387Z" transform="translate(-36.463 -88.541)" fill="#fff" opacity="0.14"/>
    <path id="Path_764" data-name="Path 764" d="M217.616,293.387a20.11,20.11,0,0,0,6.876-1.153H210.74A20.113,20.113,0,0,0,217.616,293.387Z" transform="translate(-36.463 -88.541)" fill="#fff" opacity="0.14"/>
    <path id="Path_765" data-name="Path 765" d="M217.616,293.387a20.11,20.11,0,0,0,6.876-1.153H210.74A20.113,20.113,0,0,0,217.616,293.387Z" transform="translate(-36.463 -88.541)" fill="#fff" opacity="0.14"/>
    <path id="Path_766" data-name="Path 766" d="M217.616,293.387a20.11,20.11,0,0,0,6.876-1.153H210.74A20.113,20.113,0,0,0,217.616,293.387Z" transform="translate(-36.463 -88.541)" fill="#fff" opacity="0.14"/>
    <path id="Path_767" data-name="Path 767" d="M225.547,292.234H203.612a19.175,19.175,0,0,0,21.969,0Z" transform="translate(-33.443 -88.541)" fill="#ccdbf0"/>
    <g id="Group_239" data-name="Group 239" transform="translate(140.232 102.254)">
      <path id="Path_768" data-name="Path 768" d="M156.569,158.234a4.9,4.9,0,0,0-4.9,4.9v19.02a4.9,4.9,0,0,0,9.8,0v-19.02A4.9,4.9,0,0,0,156.569,158.234Z" transform="translate(-151.67 -134.027)" fill="#0a3442"/>
      <path id="Path_769" data-name="Path 769" d="M203.857,116.234a5.187,5.187,0,0,0-5.187,5.187v13.833a5.187,5.187,0,1,0,10.374,0V121.421A5.187,5.187,0,0,0,203.857,116.234Z" transform="translate(-171.581 -116.234)" fill="#0a3442"/>
      <path id="Path_770" data-name="Path 770" d="M239.552,154.234a2.882,2.882,0,0,0-2.882,2.882V169.8a2.882,2.882,0,0,0,5.764,0v-12.68A2.882,2.882,0,0,0,239.552,154.234Z" transform="translate(-187.679 -132.332)" fill="#0a3442"/>
      <path id="Path_771" data-name="Path 771" d="M281.993,133.234a4.323,4.323,0,0,0-4.323,4.323v26.513a4.323,4.323,0,1,0,8.645,0V137.557A4.323,4.323,0,0,0,281.993,133.234Z" transform="translate(-205.049 -123.436)" fill="#0a3442"/>
    </g>
    <path id="Path_772" data-name="Path 772" d="M241.729,284.355h9.764V273.636q-1.43.553-2.9,1.029A17.59,17.59,0,0,1,241.729,284.355Z" transform="translate(-49.591 -80.662)" fill="#fff" opacity="0.14"/>
    <path id="Path_773" data-name="Path 773" d="M241.729,284.355h9.764V273.636q-1.43.553-2.9,1.029A17.59,17.59,0,0,1,241.729,284.355Z" transform="translate(-49.591 -80.662)" fill="#fff" opacity="0.14"/>
    <path id="Path_774" data-name="Path 774" d="M241.729,284.355h9.764V273.636q-1.43.553-2.9,1.029A17.59,17.59,0,0,1,241.729,284.355Z" transform="translate(-49.591 -80.662)" fill="#fff" opacity="0.14"/>
    <path id="Path_775" data-name="Path 775" d="M241.729,284.355h9.764V273.636q-1.43.553-2.9,1.029A17.59,17.59,0,0,1,241.729,284.355Z" transform="translate(-49.591 -80.662)" fill="#fff" opacity="0.14"/>
    <path id="Path_776" data-name="Path 776" d="M190.363,274.623c-.569-.192-1.133-.4-1.693-.606v10.5h8.612A17.57,17.57,0,0,1,190.363,274.623Z" transform="translate(-27.113 -80.823)" fill="#fff" opacity="0.14"/>
    <path id="Path_777" data-name="Path 777" d="M190.363,274.623c-.569-.192-1.133-.4-1.693-.606v10.5h8.612A17.57,17.57,0,0,1,190.363,274.623Z" transform="translate(-27.113 -80.823)" fill="#fff" opacity="0.14"/>
    <path id="Path_778" data-name="Path 778" d="M190.363,274.623c-.569-.192-1.133-.4-1.693-.606v10.5h8.612A17.57,17.57,0,0,1,190.363,274.623Z" transform="translate(-27.113 -80.823)" fill="#fff" opacity="0.14"/>
    <path id="Path_779" data-name="Path 779" d="M190.363,274.623c-.569-.192-1.133-.4-1.693-.606v10.5h8.612A17.57,17.57,0,0,1,190.363,274.623Z" transform="translate(-27.113 -80.823)" fill="#fff" opacity="0.14"/>
    <path id="Path_780" data-name="Path 780" d="M254.212,266.234q.023.43.023.865a16.81,16.81,0,0,1-.592,4.431q1.466-.476,2.9-1.029v-4.266Z" transform="translate(-54.638 -77.526)" fill="#fff" opacity="0.14"/>
    <path id="Path_781" data-name="Path 781" d="M254.212,266.234q.023.43.023.865a16.81,16.81,0,0,1-.592,4.431q1.466-.476,2.9-1.029v-4.266Z" transform="translate(-54.638 -77.526)" fill="#fff" opacity="0.14"/>
    <path id="Path_782" data-name="Path 782" d="M254.212,266.234q.023.43.023.865a16.81,16.81,0,0,1-.592,4.431q1.466-.476,2.9-1.029v-4.266Z" transform="translate(-54.638 -77.526)" fill="#fff" opacity="0.14"/>
    <path id="Path_783" data-name="Path 783" d="M254.212,266.234q.023.43.023.865a16.81,16.81,0,0,1-.592,4.431q1.466-.476,2.9-1.029v-4.266Z" transform="translate(-54.638 -77.526)" fill="#fff" opacity="0.14"/>
    <path id="Path_784" data-name="Path 784" d="M254.212,266.234q.023.43.023.865a16.81,16.81,0,0,1-.592,4.431q1.466-.476,2.9-1.029v-4.266Z" transform="translate(-54.638 -77.526)" fill="#fff" opacity="0.14"/>
    <path id="Path_785" data-name="Path 785" d="M189.823,267.1c0-.29.009-.578.023-.865H188.67v4.486c.561.21,1.125.414,1.693.606A16.822,16.822,0,0,1,189.823,267.1Z" transform="translate(-27.113 -77.526)" fill="#fff" opacity="0.14"/>
    <path id="Path_786" data-name="Path 786" d="M189.823,267.1c0-.29.009-.578.023-.865H188.67v4.486c.561.21,1.125.414,1.693.606A16.822,16.822,0,0,1,189.823,267.1Z" transform="translate(-27.113 -77.526)" fill="#fff" opacity="0.14"/>
    <path id="Path_787" data-name="Path 787" d="M189.823,267.1c0-.29.009-.578.023-.865H188.67v4.486c.561.21,1.125.414,1.693.606A16.822,16.822,0,0,1,189.823,267.1Z" transform="translate(-27.113 -77.526)" fill="#fff" opacity="0.14"/>
    <path id="Path_788" data-name="Path 788" d="M189.823,267.1c0-.29.009-.578.023-.865H188.67v4.486c.561.21,1.125.414,1.693.606A16.822,16.822,0,0,1,189.823,267.1Z" transform="translate(-27.113 -77.526)" fill="#fff" opacity="0.14"/>
    <path id="Path_789" data-name="Path 789" d="M189.823,267.1c0-.29.009-.578.023-.865H188.67v4.486c.561.21,1.125.414,1.693.606A16.822,16.822,0,0,1,189.823,267.1Z" transform="translate(-27.113 -77.526)" fill="#fff" opacity="0.14"/>
    <path id="Path_790" data-name="Path 790" d="M225.749,198.695H189.22l-6.3-6.3-6.089-6.089v5.764l-7.878-7.878-4.226-4.226L163,178.234v20.749H141.67v5.764a46.856,46.856,0,0,0,.791,8.527q.226,1.223.513,2.424a46.394,46.394,0,0,0,1.8,5.792c.033.087.069.173.1.259a46.675,46.675,0,0,0,86.955,0c-.046-.116-.091-.232-.137-.347.079.031.16.059.239.088a46.4,46.4,0,0,0,1.8-5.792c.109-.455.22-.909.316-1.368a46.865,46.865,0,0,0,.988-9.583v-6.052Zm-30.478,21.037a2.305,2.305,0,1,1-2.305,2.305A2.306,2.306,0,0,1,195.271,219.732Zm-13.833,0a2.305,2.305,0,1,1-2.305,2.305A2.306,2.306,0,0,1,181.439,219.732Zm-26.513-9.222a8.069,8.069,0,0,1,16.138,0Zm51.28,23.739a17.59,17.59,0,0,1-6.867,9.69,19.175,19.175,0,0,1-21.969,0,17.57,17.57,0,0,1-6.919-9.894,16.822,16.822,0,0,1-.541-4.227c0-.29.009-.578.023-.865h36.841q.022.43.023.865A16.809,16.809,0,0,1,206.207,234.249Zm-.561-23.739a8.069,8.069,0,0,1,16.138,0Z" transform="translate(-7.202 -40.246)" fill="#f5a463"/>
    <path id="Path_791" data-name="Path 791" d="M197.984,282.656h.7a5.158,5.158,0,0,1-1.848-3.746,4.455,4.455,0,0,1,.614-2.217,56.289,56.289,0,0,1-5.837-1.625,17.57,17.57,0,0,0,6.919,9.894h.062Z" transform="translate(-28.358 -81.269)" fill="#fff" opacity="0.14"/>
    <path id="Path_792" data-name="Path 792" d="M197.984,282.656h.7a5.158,5.158,0,0,1-1.848-3.746,4.455,4.455,0,0,1,.614-2.217,56.289,56.289,0,0,1-5.837-1.625,17.57,17.57,0,0,0,6.919,9.894h.062Z" transform="translate(-28.358 -81.269)" fill="#fff" opacity="0.14"/>
    <path id="Path_793" data-name="Path 793" d="M197.984,282.656h.7a5.158,5.158,0,0,1-1.848-3.746,4.455,4.455,0,0,1,.614-2.217,56.289,56.289,0,0,1-5.837-1.625,17.57,17.57,0,0,0,6.919,9.894h.062Z" transform="translate(-28.358 -81.269)" fill="#fff" opacity="0.14"/>
    <path id="Path_794" data-name="Path 794" d="M197.984,282.656h.7a5.158,5.158,0,0,1-1.848-3.746,4.455,4.455,0,0,1,.614-2.217,56.289,56.289,0,0,1-5.837-1.625,17.57,17.57,0,0,0,6.919,9.894h.062Z" transform="translate(-28.358 -81.269)" fill="#fff" opacity="0.14"/>
    <path id="Path_795" data-name="Path 795" d="M197.984,282.656h.7a5.158,5.158,0,0,1-1.848-3.746,4.455,4.455,0,0,1,.614-2.217,56.289,56.289,0,0,1-5.837-1.625,17.57,17.57,0,0,0,6.919,9.894h.062Z" transform="translate(-28.358 -81.269)" fill="#fff" opacity="0.14"/>
    <path id="Path_796" data-name="Path 796" d="M248.484,275.422a56.246,56.246,0,0,1-5.723,1.533,4.419,4.419,0,0,1,.551,2.1,5.159,5.159,0,0,1-1.847,3.746h1.271l-1.153,2.305h.034A17.59,17.59,0,0,0,248.484,275.422Z" transform="translate(-49.479 -81.419)" fill="#fff" opacity="0.14"/>
    <path id="Path_797" data-name="Path 797" d="M248.484,275.422a56.246,56.246,0,0,1-5.723,1.533,4.419,4.419,0,0,1,.551,2.1,5.159,5.159,0,0,1-1.847,3.746h1.271l-1.153,2.305h.034A17.59,17.59,0,0,0,248.484,275.422Z" transform="translate(-49.479 -81.419)" fill="#fff" opacity="0.14"/>
    <path id="Path_798" data-name="Path 798" d="M248.484,275.422a56.246,56.246,0,0,1-5.723,1.533,4.419,4.419,0,0,1,.551,2.1,5.159,5.159,0,0,1-1.847,3.746h1.271l-1.153,2.305h.034A17.59,17.59,0,0,0,248.484,275.422Z" transform="translate(-49.479 -81.419)" fill="#fff" opacity="0.14"/>
    <path id="Path_799" data-name="Path 799" d="M248.484,275.422a56.246,56.246,0,0,1-5.723,1.533,4.419,4.419,0,0,1,.551,2.1,5.159,5.159,0,0,1-1.847,3.746h1.271l-1.153,2.305h.034A17.59,17.59,0,0,0,248.484,275.422Z" transform="translate(-49.479 -81.419)" fill="#fff" opacity="0.14"/>
    <path id="Path_800" data-name="Path 800" d="M248.484,275.422a56.246,56.246,0,0,1-5.723,1.533,4.419,4.419,0,0,1,.551,2.1,5.159,5.159,0,0,1-1.847,3.746h1.271l-1.153,2.305h.034A17.59,17.59,0,0,0,248.484,275.422Z" transform="translate(-49.479 -81.419)" fill="#fff" opacity="0.14"/>
    <path id="Path_801" data-name="Path 801" d="M244.3,272h-1.869a5.933,5.933,0,0,1,.741,1.065,56.255,56.255,0,0,0,5.723-1.533,16.809,16.809,0,0,0,.592-4.431q0-.435-.023-.865h-2.282v2.305Z" transform="translate(-49.887 -77.526)" fill="#fff" opacity="0.14"/>
    <path id="Path_802" data-name="Path 802" d="M244.3,272h-1.869a5.933,5.933,0,0,1,.741,1.065,56.255,56.255,0,0,0,5.723-1.533,16.809,16.809,0,0,0,.592-4.431q0-.435-.023-.865h-2.282v2.305Z" transform="translate(-49.887 -77.526)" fill="#fff" opacity="0.14"/>
    <path id="Path_803" data-name="Path 803" d="M244.3,272h-1.869a5.933,5.933,0,0,1,.741,1.065,56.255,56.255,0,0,0,5.723-1.533,16.809,16.809,0,0,0,.592-4.431q0-.435-.023-.865h-2.282v2.305Z" transform="translate(-49.887 -77.526)" fill="#fff" opacity="0.14"/>
    <path id="Path_804" data-name="Path 804" d="M244.3,272h-1.869a5.933,5.933,0,0,1,.741,1.065,56.255,56.255,0,0,0,5.723-1.533,16.809,16.809,0,0,0,.592-4.431q0-.435-.023-.865h-2.282v2.305Z" transform="translate(-49.887 -77.526)" fill="#fff" opacity="0.14"/>
    <path id="Path_805" data-name="Path 805" d="M244.3,272h-1.869a5.933,5.933,0,0,1,.741,1.065,56.255,56.255,0,0,0,5.723-1.533,16.809,16.809,0,0,0,.592-4.431q0-.435-.023-.865h-2.282v2.305Z" transform="translate(-49.887 -77.526)" fill="#fff" opacity="0.14"/>
    <path id="Path_806" data-name="Path 806" d="M244.3,272h-1.869a5.933,5.933,0,0,1,.741,1.065,56.255,56.255,0,0,0,5.723-1.533,16.809,16.809,0,0,0,.592-4.431q0-.435-.023-.865h-2.282v2.305Z" transform="translate(-49.887 -77.526)" fill="#fff" opacity="0.14"/>
    <path id="Path_807" data-name="Path 807" d="M191.211,271.326a56.3,56.3,0,0,0,5.837,1.625,6.015,6.015,0,0,1,.678-.953h-2.445l-2.305-3.458v-2.305h-2.282c-.014.286-.023.575-.023.865A16.822,16.822,0,0,0,191.211,271.326Z" transform="translate(-27.96 -77.526)" fill="#fff" opacity="0.14"/>
    <path id="Path_808" data-name="Path 808" d="M191.211,271.326a56.3,56.3,0,0,0,5.837,1.625,6.015,6.015,0,0,1,.678-.953h-2.445l-2.305-3.458v-2.305h-2.282c-.014.286-.023.575-.023.865A16.822,16.822,0,0,0,191.211,271.326Z" transform="translate(-27.96 -77.526)" fill="#fff" opacity="0.14"/>
    <path id="Path_809" data-name="Path 809" d="M191.211,271.326a56.3,56.3,0,0,0,5.837,1.625,6.015,6.015,0,0,1,.678-.953h-2.445l-2.305-3.458v-2.305h-2.282c-.014.286-.023.575-.023.865A16.822,16.822,0,0,0,191.211,271.326Z" transform="translate(-27.96 -77.526)" fill="#fff" opacity="0.14"/>
    <path id="Path_810" data-name="Path 810" d="M191.211,271.326a56.3,56.3,0,0,0,5.837,1.625,6.015,6.015,0,0,1,.678-.953h-2.445l-2.305-3.458v-2.305h-2.282c-.014.286-.023.575-.023.865A16.822,16.822,0,0,0,191.211,271.326Z" transform="translate(-27.96 -77.526)" fill="#fff" opacity="0.14"/>
    <path id="Path_811" data-name="Path 811" d="M191.211,271.326a56.3,56.3,0,0,0,5.837,1.625,6.015,6.015,0,0,1,.678-.953h-2.445l-2.305-3.458v-2.305h-2.282c-.014.286-.023.575-.023.865A16.822,16.822,0,0,0,191.211,271.326Z" transform="translate(-27.96 -77.526)" fill="#fff" opacity="0.14"/>
    <path id="Path_812" data-name="Path 812" d="M191.211,271.326a56.3,56.3,0,0,0,5.837,1.625,6.015,6.015,0,0,1,.678-.953h-2.445l-2.305-3.458v-2.305h-2.282c-.014.286-.023.575-.023.865A16.822,16.822,0,0,0,191.211,271.326Z" transform="translate(-27.96 -77.526)" fill="#fff" opacity="0.14"/>
    <g id="Group_240" data-name="Group 240" transform="translate(162.71 188.708)">
      <path id="Path_813" data-name="Path 813" d="M196.434,275.168a4.455,4.455,0,0,1,.614-2.217,6.015,6.015,0,0,1,.678-.953h-2.445l-2.305-3.458v-2.305h-2.282c-.014.286-.023.575-.023.865a16.822,16.822,0,0,0,.541,4.227,17.57,17.57,0,0,0,6.919,9.894h.062l-.605-2.305h.7A5.158,5.158,0,0,1,196.434,275.168Z" transform="translate(-190.67 -266.234)" fill="#7f0a36"/>
      <path id="Path_814" data-name="Path 814" d="M249.053,266.234H246.77v2.305L243.889,272H242.02a5.934,5.934,0,0,1,.741,1.065,4.419,4.419,0,0,1,.551,2.1,5.159,5.159,0,0,1-1.847,3.746h1.271l-1.153,2.305h.034a17.59,17.59,0,0,0,6.867-9.69,16.809,16.809,0,0,0,.592-4.431Q249.076,266.664,249.053,266.234Z" transform="translate(-212.189 -266.234)" fill="#7f0a36"/>
    </g>
    <path id="Path_815" data-name="Path 815" d="M205.833,268.539a21.762,21.762,0,0,1,9.951,0h11.162v-2.305H194.67v2.305Z" transform="translate(-29.655 -77.526)" fill="#fff" opacity="0.14"/>
    <path id="Path_816" data-name="Path 816" d="M205.833,268.539a21.762,21.762,0,0,1,9.951,0h11.162v-2.305H194.67v2.305Z" transform="translate(-29.655 -77.526)" fill="#fff" opacity="0.14"/>
    <path id="Path_817" data-name="Path 817" d="M205.833,268.539a21.762,21.762,0,0,1,9.951,0h11.162v-2.305H194.67v2.305Z" transform="translate(-29.655 -77.526)" fill="#fff" opacity="0.14"/>
    <path id="Path_818" data-name="Path 818" d="M205.833,268.539a21.762,21.762,0,0,1,9.951,0h11.162v-2.305H194.67v2.305Z" transform="translate(-29.655 -77.526)" fill="#fff" opacity="0.14"/>
    <path id="Path_819" data-name="Path 819" d="M205.833,268.539a21.762,21.762,0,0,1,9.951,0h11.162v-2.305H194.67v2.305Z" transform="translate(-29.655 -77.526)" fill="#fff" opacity="0.14"/>
    <path id="Path_820" data-name="Path 820" d="M205.833,268.539a21.762,21.762,0,0,1,9.951,0h11.162v-2.305H194.67v2.305Z" transform="translate(-29.655 -77.526)" fill="#fff" opacity="0.14"/>
    <path id="Path_821" data-name="Path 821" d="M205.833,268.539a21.762,21.762,0,0,1,9.951,0h11.162v-2.305H194.67v2.305Z" transform="translate(-29.655 -77.526)" fill="#fff" opacity="0.14"/>
    <path id="Path_822" data-name="Path 822" d="M202.67,288.234l.605,2.305h4.046a11.751,11.751,0,0,1-3.956-2.305Z" transform="translate(-33.044 -86.846)" fill="#fff" opacity="0.14"/>
    <path id="Path_823" data-name="Path 823" d="M202.67,288.234l.605,2.305h4.046a11.751,11.751,0,0,1-3.956-2.305Z" transform="translate(-33.044 -86.846)" fill="#fff" opacity="0.14"/>
    <path id="Path_824" data-name="Path 824" d="M202.67,288.234l.605,2.305h4.046a11.751,11.751,0,0,1-3.956-2.305Z" transform="translate(-33.044 -86.846)" fill="#fff" opacity="0.14"/>
    <path id="Path_825" data-name="Path 825" d="M202.67,288.234l.605,2.305h4.046a11.751,11.751,0,0,1-3.956-2.305Z" transform="translate(-33.044 -86.846)" fill="#fff" opacity="0.14"/>
    <path id="Path_826" data-name="Path 826" d="M202.67,288.234l.605,2.305h4.046a11.751,11.751,0,0,1-3.956-2.305Z" transform="translate(-33.044 -86.846)" fill="#fff" opacity="0.14"/>
    <path id="Path_827" data-name="Path 827" d="M202.67,288.234l.605,2.305h4.046a11.751,11.751,0,0,1-3.956-2.305Z" transform="translate(-33.044 -86.846)" fill="#fff" opacity="0.14"/>
    <path id="Path_828" data-name="Path 828" d="M238.675,290.539l1.153-2.305h-1.271a11.754,11.754,0,0,1-3.957,2.305Z" transform="translate(-46.571 -86.846)" fill="#fff" opacity="0.14"/>
    <path id="Path_829" data-name="Path 829" d="M238.675,290.539l1.153-2.305h-1.271a11.754,11.754,0,0,1-3.957,2.305Z" transform="translate(-46.571 -86.846)" fill="#fff" opacity="0.14"/>
    <path id="Path_830" data-name="Path 830" d="M238.675,290.539l1.153-2.305h-1.271a11.754,11.754,0,0,1-3.957,2.305Z" transform="translate(-46.571 -86.846)" fill="#fff" opacity="0.14"/>
    <path id="Path_831" data-name="Path 831" d="M238.675,290.539l1.153-2.305h-1.271a11.754,11.754,0,0,1-3.957,2.305Z" transform="translate(-46.571 -86.846)" fill="#fff" opacity="0.14"/>
    <path id="Path_832" data-name="Path 832" d="M238.675,290.539l1.153-2.305h-1.271a11.754,11.754,0,0,1-3.957,2.305Z" transform="translate(-46.571 -86.846)" fill="#fff" opacity="0.14"/>
    <path id="Path_833" data-name="Path 833" d="M238.675,290.539l1.153-2.305h-1.271a11.754,11.754,0,0,1-3.957,2.305Z" transform="translate(-46.571 -86.846)" fill="#fff" opacity="0.14"/>
    <path id="Path_834" data-name="Path 834" d="M237.715,273.692h1.869l2.882-3.458H231.3A12.324,12.324,0,0,1,237.715,273.692Z" transform="translate(-45.174 -79.221)" fill="#fff" opacity="0.14"/>
    <path id="Path_835" data-name="Path 835" d="M237.715,273.692h1.869l2.882-3.458H231.3A12.324,12.324,0,0,1,237.715,273.692Z" transform="translate(-45.174 -79.221)" fill="#fff" opacity="0.14"/>
    <path id="Path_836" data-name="Path 836" d="M237.715,273.692h1.869l2.882-3.458H231.3A12.324,12.324,0,0,1,237.715,273.692Z" transform="translate(-45.174 -79.221)" fill="#fff" opacity="0.14"/>
    <path id="Path_837" data-name="Path 837" d="M237.715,273.692h1.869l2.882-3.458H231.3A12.324,12.324,0,0,1,237.715,273.692Z" transform="translate(-45.174 -79.221)" fill="#fff" opacity="0.14"/>
    <path id="Path_838" data-name="Path 838" d="M237.715,273.692h1.869l2.882-3.458H231.3A12.324,12.324,0,0,1,237.715,273.692Z" transform="translate(-45.174 -79.221)" fill="#fff" opacity="0.14"/>
    <path id="Path_839" data-name="Path 839" d="M237.715,273.692h1.869l2.882-3.458H231.3A12.324,12.324,0,0,1,237.715,273.692Z" transform="translate(-45.174 -79.221)" fill="#fff" opacity="0.14"/>
    <path id="Path_840" data-name="Path 840" d="M237.715,273.692h1.869l2.882-3.458H231.3A12.324,12.324,0,0,1,237.715,273.692Z" transform="translate(-45.174 -79.221)" fill="#fff" opacity="0.14"/>
    <path id="Path_841" data-name="Path 841" d="M205.833,270.234H194.67l2.305,3.458h2.445A12.326,12.326,0,0,1,205.833,270.234Z" transform="translate(-29.655 -79.221)" fill="#fff" opacity="0.14"/>
    <path id="Path_842" data-name="Path 842" d="M205.833,270.234H194.67l2.305,3.458h2.445A12.326,12.326,0,0,1,205.833,270.234Z" transform="translate(-29.655 -79.221)" fill="#fff" opacity="0.14"/>
    <path id="Path_843" data-name="Path 843" d="M205.833,270.234H194.67l2.305,3.458h2.445A12.326,12.326,0,0,1,205.833,270.234Z" transform="translate(-29.655 -79.221)" fill="#fff" opacity="0.14"/>
    <path id="Path_844" data-name="Path 844" d="M205.833,270.234H194.67l2.305,3.458h2.445A12.326,12.326,0,0,1,205.833,270.234Z" transform="translate(-29.655 -79.221)" fill="#fff" opacity="0.14"/>
    <path id="Path_845" data-name="Path 845" d="M205.833,270.234H194.67l2.305,3.458h2.445A12.326,12.326,0,0,1,205.833,270.234Z" transform="translate(-29.655 -79.221)" fill="#fff" opacity="0.14"/>
    <path id="Path_846" data-name="Path 846" d="M205.833,270.234H194.67l2.305,3.458h2.445A12.326,12.326,0,0,1,205.833,270.234Z" transform="translate(-29.655 -79.221)" fill="#fff" opacity="0.14"/>
    <path id="Path_847" data-name="Path 847" d="M205.833,270.234H194.67l2.305,3.458h2.445A12.326,12.326,0,0,1,205.833,270.234Z" transform="translate(-29.655 -79.221)" fill="#fff" opacity="0.14"/>
    <path id="Path_848" data-name="Path 848" d="M201.284,277.888a4.455,4.455,0,0,0-.614,2.217,5.158,5.158,0,0,0,1.848,3.746h21.665a5.159,5.159,0,0,0,1.847-3.746,4.419,4.419,0,0,0-.551-2.1,57.123,57.123,0,0,1-24.194-.112Z" transform="translate(-32.197 -82.463)" fill="#fff" opacity="0.14"/>
    <path id="Path_849" data-name="Path 849" d="M201.284,277.888a4.455,4.455,0,0,0-.614,2.217,5.158,5.158,0,0,0,1.848,3.746h21.665a5.159,5.159,0,0,0,1.847-3.746,4.419,4.419,0,0,0-.551-2.1,57.123,57.123,0,0,1-24.194-.112Z" transform="translate(-32.197 -82.463)" fill="#fff" opacity="0.14"/>
    <path id="Path_850" data-name="Path 850" d="M201.284,277.888a4.455,4.455,0,0,0-.614,2.217,5.158,5.158,0,0,0,1.848,3.746h21.665a5.159,5.159,0,0,0,1.847-3.746,4.419,4.419,0,0,0-.551-2.1,57.123,57.123,0,0,1-24.194-.112Z" transform="translate(-32.197 -82.463)" fill="#fff" opacity="0.14"/>
    <path id="Path_851" data-name="Path 851" d="M201.284,277.888a4.455,4.455,0,0,0-.614,2.217,5.158,5.158,0,0,0,1.848,3.746h21.665a5.159,5.159,0,0,0,1.847-3.746,4.419,4.419,0,0,0-.551-2.1,57.123,57.123,0,0,1-24.194-.112Z" transform="translate(-32.197 -82.463)" fill="#fff" opacity="0.14"/>
    <path id="Path_852" data-name="Path 852" d="M201.284,277.888a4.455,4.455,0,0,0-.614,2.217,5.158,5.158,0,0,0,1.848,3.746h21.665a5.159,5.159,0,0,0,1.847-3.746,4.419,4.419,0,0,0-.551-2.1,57.123,57.123,0,0,1-24.194-.112Z" transform="translate(-32.197 -82.463)" fill="#fff" opacity="0.14"/>
    <path id="Path_853" data-name="Path 853" d="M201.284,277.888a4.455,4.455,0,0,0-.614,2.217,5.158,5.158,0,0,0,1.848,3.746h21.665a5.159,5.159,0,0,0,1.847-3.746,4.419,4.419,0,0,0-.551-2.1,57.123,57.123,0,0,1-24.194-.112Z" transform="translate(-32.197 -82.463)" fill="#fff" opacity="0.14"/>
    <path id="Path_854" data-name="Path 854" d="M202.414,276.234a6.015,6.015,0,0,0-.678.953,57.123,57.123,0,0,0,24.194.112,5.936,5.936,0,0,0-.741-1.065Z" transform="translate(-32.648 -81.763)" fill="#fff" opacity="0.14"/>
    <path id="Path_855" data-name="Path 855" d="M202.414,276.234a6.015,6.015,0,0,0-.678.953,57.123,57.123,0,0,0,24.194.112,5.936,5.936,0,0,0-.741-1.065Z" transform="translate(-32.648 -81.763)" fill="#fff" opacity="0.14"/>
    <path id="Path_856" data-name="Path 856" d="M202.414,276.234a6.015,6.015,0,0,0-.678.953,57.123,57.123,0,0,0,24.194.112,5.936,5.936,0,0,0-.741-1.065Z" transform="translate(-32.648 -81.763)" fill="#fff" opacity="0.14"/>
    <path id="Path_857" data-name="Path 857" d="M202.414,276.234a6.015,6.015,0,0,0-.678.953,57.123,57.123,0,0,0,24.194.112,5.936,5.936,0,0,0-.741-1.065Z" transform="translate(-32.648 -81.763)" fill="#fff" opacity="0.14"/>
    <path id="Path_858" data-name="Path 858" d="M202.414,276.234a6.015,6.015,0,0,0-.678.953,57.123,57.123,0,0,0,24.194.112,5.936,5.936,0,0,0-.741-1.065Z" transform="translate(-32.648 -81.763)" fill="#fff" opacity="0.14"/>
    <path id="Path_859" data-name="Path 859" d="M202.414,276.234a6.015,6.015,0,0,0-.678.953,57.123,57.123,0,0,0,24.194.112,5.936,5.936,0,0,0-.741-1.065Z" transform="translate(-32.648 -81.763)" fill="#fff" opacity="0.14"/>
    <path id="Path_860" data-name="Path 860" d="M202.414,276.234a6.015,6.015,0,0,0-.678.953,57.123,57.123,0,0,0,24.194.112,5.936,5.936,0,0,0-.741-1.065Z" transform="translate(-32.648 -81.763)" fill="#fff" opacity="0.14"/>
    <path id="Path_861" data-name="Path 861" d="M225.479,277.3a5.937,5.937,0,0,0-.741-1.065H201.962a6.015,6.015,0,0,0-.678.953,4.455,4.455,0,0,0-.614,2.217,5.158,5.158,0,0,0,1.848,3.746h21.665a5.16,5.16,0,0,0,1.847-3.746A4.419,4.419,0,0,0,225.479,277.3Z" transform="translate(-32.197 -81.763)" fill="#4c0213"/>
    <path id="Path_862" data-name="Path 862" d="M219.013,269.234a21.2,21.2,0,0,0-4.975.576h9.951A21.2,21.2,0,0,0,219.013,269.234Z" transform="translate(-37.86 -78.797)" fill="#fff" opacity="0.14"/>
    <path id="Path_863" data-name="Path 863" d="M219.013,269.234a21.2,21.2,0,0,0-4.975.576h9.951A21.2,21.2,0,0,0,219.013,269.234Z" transform="translate(-37.86 -78.797)" fill="#fff" opacity="0.14"/>
    <path id="Path_864" data-name="Path 864" d="M219.013,269.234a21.2,21.2,0,0,0-4.975.576h9.951A21.2,21.2,0,0,0,219.013,269.234Z" transform="translate(-37.86 -78.797)" fill="#fff" opacity="0.14"/>
    <path id="Path_865" data-name="Path 865" d="M219.013,269.234a21.2,21.2,0,0,0-4.975.576h9.951A21.2,21.2,0,0,0,219.013,269.234Z" transform="translate(-37.86 -78.797)" fill="#fff" opacity="0.14"/>
    <path id="Path_866" data-name="Path 866" d="M219.013,269.234a21.2,21.2,0,0,0-4.975.576h9.951A21.2,21.2,0,0,0,219.013,269.234Z" transform="translate(-37.86 -78.797)" fill="#fff" opacity="0.14"/>
    <path id="Path_867" data-name="Path 867" d="M219.013,269.234a21.2,21.2,0,0,0-4.975.576h9.951A21.2,21.2,0,0,0,219.013,269.234Z" transform="translate(-37.86 -78.797)" fill="#fff" opacity="0.14"/>
    <path id="Path_868" data-name="Path 868" d="M219.013,269.234a21.2,21.2,0,0,0-4.975.576h9.951A21.2,21.2,0,0,0,219.013,269.234Z" transform="translate(-37.86 -78.797)" fill="#fff" opacity="0.14"/>
    <path id="Path_869" data-name="Path 869" d="M219.013,269.234a21.2,21.2,0,0,0-4.975.576h9.951A21.2,21.2,0,0,0,219.013,269.234Z" transform="translate(-37.86 -78.797)" fill="#fff" opacity="0.14"/>
    <path id="Path_870" data-name="Path 870" d="M194.67,266.234v2.305h32.276v-2.305Z" transform="translate(-29.655 -77.526)" fill="#ccdbf0"/>
    <path id="Path_871" data-name="Path 871" d="M207.832,290.539h13.752a11.754,11.754,0,0,0,3.957-2.305H203.876A11.752,11.752,0,0,0,207.832,290.539Z" transform="translate(-33.555 -86.846)" fill="#fff" opacity="0.14"/>
    <path id="Path_872" data-name="Path 872" d="M207.832,290.539h13.752a11.754,11.754,0,0,0,3.957-2.305H203.876A11.752,11.752,0,0,0,207.832,290.539Z" transform="translate(-33.555 -86.846)" fill="#fff" opacity="0.14"/>
    <path id="Path_873" data-name="Path 873" d="M207.832,290.539h13.752a11.754,11.754,0,0,0,3.957-2.305H203.876A11.752,11.752,0,0,0,207.832,290.539Z" transform="translate(-33.555 -86.846)" fill="#fff" opacity="0.14"/>
    <path id="Path_874" data-name="Path 874" d="M207.832,290.539h13.752a11.754,11.754,0,0,0,3.957-2.305H203.876A11.752,11.752,0,0,0,207.832,290.539Z" transform="translate(-33.555 -86.846)" fill="#fff" opacity="0.14"/>
    <path id="Path_875" data-name="Path 875" d="M207.832,290.539h13.752a11.754,11.754,0,0,0,3.957-2.305H203.876A11.752,11.752,0,0,0,207.832,290.539Z" transform="translate(-33.555 -86.846)" fill="#fff" opacity="0.14"/>
    <path id="Path_876" data-name="Path 876" d="M207.832,290.539h13.752a11.754,11.754,0,0,0,3.957-2.305H203.876A11.752,11.752,0,0,0,207.832,290.539Z" transform="translate(-33.555 -86.846)" fill="#fff" opacity="0.14"/>
    <path id="Path_877" data-name="Path 877" d="M207.832,290.539h13.752a11.754,11.754,0,0,0,3.957-2.305H203.876A11.752,11.752,0,0,0,207.832,290.539Z" transform="translate(-33.555 -86.846)" fill="#fff" opacity="0.14"/>
    <path id="Path_878" data-name="Path 878" d="M225.03,288.234H202.67l.605,2.305h21.873l1.153-2.305Z" transform="translate(-33.044 -86.846)" fill="#fefdff"/>
    <path id="Path_879" data-name="Path 879" d="M219.275,270.234h-9.951a12.326,12.326,0,0,0-6.413,3.458h22.775A12.325,12.325,0,0,0,219.275,270.234Z" transform="translate(-33.146 -79.221)" fill="#fff" opacity="0.14"/>
    <path id="Path_880" data-name="Path 880" d="M219.275,270.234h-9.951a12.326,12.326,0,0,0-6.413,3.458h22.775A12.325,12.325,0,0,0,219.275,270.234Z" transform="translate(-33.146 -79.221)" fill="#fff" opacity="0.14"/>
    <path id="Path_881" data-name="Path 881" d="M219.275,270.234h-9.951a12.326,12.326,0,0,0-6.413,3.458h22.775A12.325,12.325,0,0,0,219.275,270.234Z" transform="translate(-33.146 -79.221)" fill="#fff" opacity="0.14"/>
    <path id="Path_882" data-name="Path 882" d="M219.275,270.234h-9.951a12.326,12.326,0,0,0-6.413,3.458h22.775A12.325,12.325,0,0,0,219.275,270.234Z" transform="translate(-33.146 -79.221)" fill="#fff" opacity="0.14"/>
    <path id="Path_883" data-name="Path 883" d="M219.275,270.234h-9.951a12.326,12.326,0,0,0-6.413,3.458h22.775A12.325,12.325,0,0,0,219.275,270.234Z" transform="translate(-33.146 -79.221)" fill="#fff" opacity="0.14"/>
    <path id="Path_884" data-name="Path 884" d="M219.275,270.234h-9.951a12.326,12.326,0,0,0-6.413,3.458h22.775A12.325,12.325,0,0,0,219.275,270.234Z" transform="translate(-33.146 -79.221)" fill="#fff" opacity="0.14"/>
    <path id="Path_885" data-name="Path 885" d="M219.275,270.234h-9.951a12.326,12.326,0,0,0-6.413,3.458h22.775A12.325,12.325,0,0,0,219.275,270.234Z" transform="translate(-33.146 -79.221)" fill="#fff" opacity="0.14"/>
    <path id="Path_886" data-name="Path 886" d="M219.275,270.234h-9.951a12.326,12.326,0,0,0-6.413,3.458h22.775A12.325,12.325,0,0,0,219.275,270.234Z" transform="translate(-33.146 -79.221)" fill="#fff" opacity="0.14"/>
    <path id="Path_887" data-name="Path 887" d="M215.784,270.234H194.67l2.305,3.458h27.089l2.882-3.458Z" transform="translate(-29.655 -79.221)" fill="#fefdff"/>
    <path id="Path_888" data-name="Path 888" d="M174.523,220.234a8.039,8.039,0,0,0-5.642,2.305h11.284A8.039,8.039,0,0,0,174.523,220.234Z" transform="translate(-18.73 -58.039)" fill="#fff" opacity="0.14"/>
    <path id="Path_889" data-name="Path 889" d="M174.523,220.234a8.039,8.039,0,0,0-5.642,2.305h11.284A8.039,8.039,0,0,0,174.523,220.234Z" transform="translate(-18.73 -58.039)" fill="#fff" opacity="0.14"/>
    <path id="Path_890" data-name="Path 890" d="M174.523,220.234a8.039,8.039,0,0,0-5.642,2.305h11.284A8.039,8.039,0,0,0,174.523,220.234Z" transform="translate(-18.73 -58.039)" fill="#fff" opacity="0.14"/>
    <path id="Path_891" data-name="Path 891" d="M174.523,220.234a8.039,8.039,0,0,0-5.642,2.305h11.284A8.039,8.039,0,0,0,174.523,220.234Z" transform="translate(-18.73 -58.039)" fill="#fff" opacity="0.14"/>
    <path id="Path_892" data-name="Path 892" d="M174.523,220.234a8.039,8.039,0,0,0-5.642,2.305h11.284A8.039,8.039,0,0,0,174.523,220.234Z" transform="translate(-18.73 -58.039)" fill="#fff" opacity="0.14"/>
    <path id="Path_893" data-name="Path 893" d="M164.67,230h16.138a8.041,8.041,0,0,0-2.427-5.764H167.1A8.041,8.041,0,0,0,164.67,230Z" transform="translate(-16.946 -59.733)" fill="#fff" opacity="0.14"/>
    <path id="Path_894" data-name="Path 894" d="M164.67,230h16.138a8.041,8.041,0,0,0-2.427-5.764H167.1A8.041,8.041,0,0,0,164.67,230Z" transform="translate(-16.946 -59.733)" fill="#fff" opacity="0.14"/>
    <path id="Path_895" data-name="Path 895" d="M164.67,230h16.138a8.041,8.041,0,0,0-2.427-5.764H167.1A8.041,8.041,0,0,0,164.67,230Z" transform="translate(-16.946 -59.733)" fill="#fff" opacity="0.14"/>
    <path id="Path_896" data-name="Path 896" d="M164.67,230h16.138a8.041,8.041,0,0,0-2.427-5.764H167.1A8.041,8.041,0,0,0,164.67,230Z" transform="translate(-16.946 -59.733)" fill="#fff" opacity="0.14"/>
    <path id="Path_897" data-name="Path 897" d="M164.67,230h16.138a8.041,8.041,0,0,0-2.427-5.764H167.1A8.041,8.041,0,0,0,164.67,230Z" transform="translate(-16.946 -59.733)" fill="#fff" opacity="0.14"/>
    <path id="Path_898" data-name="Path 898" d="M164.67,230h16.138a8.041,8.041,0,0,0-2.427-5.764H167.1A8.041,8.041,0,0,0,164.67,230Z" transform="translate(-16.946 -59.733)" fill="#fff" opacity="0.14"/>
    <path id="Path_899" data-name="Path 899" d="M262.523,220.234a8.039,8.039,0,0,0-5.642,2.305h11.284A8.039,8.039,0,0,0,262.523,220.234Z" transform="translate(-56.01 -58.039)" fill="#fff" opacity="0.14"/>
    <path id="Path_900" data-name="Path 900" d="M262.523,220.234a8.039,8.039,0,0,0-5.642,2.305h11.284A8.039,8.039,0,0,0,262.523,220.234Z" transform="translate(-56.01 -58.039)" fill="#fff" opacity="0.14"/>
    <path id="Path_901" data-name="Path 901" d="M262.523,220.234a8.039,8.039,0,0,0-5.642,2.305h11.284A8.039,8.039,0,0,0,262.523,220.234Z" transform="translate(-56.01 -58.039)" fill="#fff" opacity="0.14"/>
    <path id="Path_902" data-name="Path 902" d="M262.523,220.234a8.039,8.039,0,0,0-5.642,2.305h11.284A8.039,8.039,0,0,0,262.523,220.234Z" transform="translate(-56.01 -58.039)" fill="#fff" opacity="0.14"/>
    <path id="Path_903" data-name="Path 903" d="M262.523,220.234a8.039,8.039,0,0,0-5.642,2.305h11.284A8.039,8.039,0,0,0,262.523,220.234Z" transform="translate(-56.01 -58.039)" fill="#fff" opacity="0.14"/>
    <path id="Path_904" data-name="Path 904" d="M252.67,230h16.138a8.041,8.041,0,0,0-2.427-5.764H255.1A8.041,8.041,0,0,0,252.67,230Z" transform="translate(-54.226 -59.733)" fill="#fff" opacity="0.14"/>
    <path id="Path_905" data-name="Path 905" d="M252.67,230h16.138a8.041,8.041,0,0,0-2.427-5.764H255.1A8.041,8.041,0,0,0,252.67,230Z" transform="translate(-54.226 -59.733)" fill="#fff" opacity="0.14"/>
    <path id="Path_906" data-name="Path 906" d="M252.67,230h16.138a8.041,8.041,0,0,0-2.427-5.764H255.1A8.041,8.041,0,0,0,252.67,230Z" transform="translate(-54.226 -59.733)" fill="#fff" opacity="0.14"/>
    <path id="Path_907" data-name="Path 907" d="M252.67,230h16.138a8.041,8.041,0,0,0-2.427-5.764H255.1A8.041,8.041,0,0,0,252.67,230Z" transform="translate(-54.226 -59.733)" fill="#fff" opacity="0.14"/>
    <path id="Path_908" data-name="Path 908" d="M252.67,230h16.138a8.041,8.041,0,0,0-2.427-5.764H255.1A8.041,8.041,0,0,0,252.67,230Z" transform="translate(-54.226 -59.733)" fill="#fff" opacity="0.14"/>
    <path id="Path_909" data-name="Path 909" d="M252.67,230h16.138a8.041,8.041,0,0,0-2.427-5.764H255.1A8.041,8.041,0,0,0,252.67,230Z" transform="translate(-54.226 -59.733)" fill="#fff" opacity="0.14"/>
    <g id="Group_241" data-name="Group 241" transform="translate(147.724 162.195)">
      <path id="Path_910" data-name="Path 910" d="M172.739,220.234a8.078,8.078,0,0,0-8.069,8.069h16.138a8.078,8.078,0,0,0-8.069-8.069Z" transform="translate(-164.67 -220.234)" fill="#020001"/>
      <path id="Path_911" data-name="Path 911" d="M266.381,222.539A8.069,8.069,0,0,0,252.67,228.3h16.138A8.041,8.041,0,0,0,266.381,222.539Z" transform="translate(-201.95 -220.234)" fill="#020001"/>
    </g>
    <rect id="Rectangle_1566" data-name="Rectangle 1566" width="18.444" height="2.305" rx="1.153" transform="translate(200.94 187.42)" fill="#f19353"/>
    <rect id="Rectangle_1567" data-name="Rectangle 1567" width="18.444" height="2.305" rx="1.153" transform="translate(142.727 187.42)" fill="#f19353"/>
    <path id="Path_912" data-name="Path 912" d="M212.139,188.234a22.481,22.481,0,0,0-22.361,20.173h-4.269a22.481,22.481,0,0,0-22.361-20.173H140.67v22.478a22.479,22.479,0,0,0,44.839,2.305h4.269a22.479,22.479,0,0,0,44.839-2.305V188.234Zm-48.991,40.922A18.444,18.444,0,0,1,144.7,210.712V192.269h18.444a18.444,18.444,0,0,1,0,36.887Zm67.434-18.444a18.444,18.444,0,1,1-18.444-18.444h18.444Z" transform="translate(-6.778 -44.482)" fill="#fbc968"/>
  </g>
</svg>
