<svg xmlns="http://www.w3.org/2000/svg" xmlns:xlink="http://www.w3.org/1999/xlink" viewBox="0 0 363 363"><defs><style>.cls-1,.cls-18{fill:none;}.cls-2{clip-path:url(#clip-path);}.cls-3{fill:#f39454;}.cls-4{fill:#f5a463;}.cls-5{fill:#01243a;}.cls-6{fill:#c85a1f;}.cls-7{fill:#0a3442;}.cls-8{fill:#e2783c;}.cls-9{fill:#e88049;}.cls-10{fill:#e88b50;}.cls-11{fill:#020001;}.cls-12{fill:#f19353;}.cls-13{fill:#fbc968;}.cls-14{fill:#7f0a36;}.cls-15{fill:#ccdbf0;}.cls-16{fill:#4c0213;}.cls-17{fill:#fefdff;}.cls-18{stroke:#002941;stroke-miterlimit:10;stroke-width:3px;}</style><clipPath id="clip-path"><circle class="cls-1" cx="181.12" cy="181.5" r="180"/></clipPath></defs><title>Asset 3</title><g id="Layer_2" data-name="Layer 2"><g id="Layer_2-2" data-name="Layer 2"><g class="cls-2"><path d="M262.26,199.23H262v0H100.25v6.4Q100,202.36,100,199V324.42c11.13,0,19.4-2.51,25-5.18a34.82,34.82,0,0,0,9.28-6.12l-.39-.4h93.33l-.05,0a29.68,29.68,0,0,0,8.6,7c11.82,6.48,26.19,5.5,26.19,5.5v-88.6Z"/><path class="cls-3" d="M254,234.21a13,13,0,0,0-6.77-1.9V234H114v-1.65a13.14,13.14,0,0,0-9,22.7,13.19,13.19,0,0,0,9,3.62v6.58a66.62,66.62,0,0,0,133.23,0v-6.58A13.14,13.14,0,0,0,254,234.21Z"/><path class="cls-4" d="M144.39,194.48H114V234a66.86,66.86,0,0,0,1.13,12.17c.21,1.16.46,2.31.73,3.45a66.08,66.08,0,0,0,2.57,8.27l.15.37a66.58,66.58,0,0,0,124.07,0c-.06-.17-.13-.33-.19-.5l.34.13a66.08,66.08,0,0,0,2.57-8.27c.15-.64.31-1.29.45-2A66.87,66.87,0,0,0,247.19,234V194.07h-32.4"/><path class="cls-5" d="M262,198.6a81,81,0,0,0-162,0V199a80.7,80.7,0,0,0,7.85,34.82,13.18,13.18,0,0,1,6.13-1.52v-6.58h30.43v-29.6l2.47,2.47,6,6,11.24,11.24v-8.23l8.69,8.69,9,9h65.38v7a13,13,0,0,1,6.77,1.9,80.63,80.63,0,0,0,8-35.2Z"/><path class="cls-6" d="M180.57,331.82a66.21,66.21,0,0,1-30.42-7.36v28a66.54,66.54,0,0,0,61.68-.42V324A66.35,66.35,0,0,1,180.57,331.82Z"/><path class="cls-7" d="M129.17,179.68a7,7,0,0,0-7,7v27.14a7,7,0,0,0,7,7,7.12,7.12,0,0,0,2-.3,7,7,0,0,0,4.67-4.67,7.1,7.1,0,0,0,.3-2V186.67A7,7,0,0,0,129.17,179.68Z"/><path class="cls-7" d="M168.24,145.14a7.4,7.4,0,0,0-7.4,7.4v19.74a7.4,7.4,0,1,0,14.8,0V152.54A7.4,7.4,0,0,0,168.24,145.14Z"/><path class="cls-7" d="M196.2,176.39a4.11,4.11,0,0,0-4.11,4.11v18.1a3.88,3.88,0,0,0,.15,1,4.07,4.07,0,0,0,7,1.65,4.05,4.05,0,0,0,1-2.68V180.5A4.11,4.11,0,0,0,196.2,176.39Z"/><path class="cls-7" d="M232,159.12a6.17,6.17,0,0,0-6.17,6.17v37.83a6.17,6.17,0,1,0,12.33,0V165.29A6.16,6.16,0,0,0,232,159.12Z"/><path class="cls-8" d="M150.15,341.73v19.7h61.68V341.31a66.62,66.62,0,0,1-61.68.42Z"/><path class="cls-9" d="M112.25,241.89a4.52,4.52,0,0,0,1.71,8.5v-9A4.53,4.53,0,0,0,112.25,241.89Z"/><path class="cls-9" d="M249.48,242.26a4.55,4.55,0,0,0-2.29-.88v9a4.52,4.52,0,0,0,2.29-8.13Z"/><circle class="cls-10" cx="170.71" cy="258.63" r="3.29"/><circle class="cls-10" cx="190.44" cy="258.63" r="3.29"/><path class="cls-11" d="M144.39,230.67a11.52,11.52,0,0,0-11.51,11.51h23a11.52,11.52,0,0,0-11.51-11.51Z"/><path class="cls-11" d="M224.81,234a11.51,11.51,0,0,0-19.56,8.22h23A11.45,11.45,0,0,0,224.81,234Z"/><rect class="cls-12" x="208.81" y="266.66" width="26.32" height="3.29" rx="1.51"/><rect class="cls-12" x="125.75" y="266.66" width="26.32" height="3.29" rx="1.51"/><path class="cls-13" d="M215.12,204.35a32.08,32.08,0,0,0-31.91,28.79h-6.09a32.09,32.09,0,0,0-31.91-28.79H113.14v32.08a32.07,32.07,0,0,0,64,3.29h6.09a32.07,32.07,0,0,0,64-3.29V204.35Zm-69.91,58.39a26.32,26.32,0,0,1-26.32-26.31V210.11h26.32a26.32,26.32,0,1,1,0,52.63Zm96.22-26.31a26.32,26.32,0,1,1-26.31-26.32h26.31Z"/><path class="cls-14" d="M154.62,268.5h-.33q0,.62,0,1.23a24,24,0,0,0,.77,6,25,25,0,0,0,9.24,13.66l.13.27h.24l.26.19H165l-.05-.19H196.3l-.1.19h.05a25.09,25.09,0,0,0,9.8-13.82,24,24,0,0,0,.84-6.33q0-.62,0-1.23h-.61"/><path class="cls-15" d="M196.2,289.88H164.9a27.34,27.34,0,0,0,31.35,0Z"/><path class="cls-16" d="M197.88,278.24a8.69,8.69,0,0,0-1.06-1.52H164.33a8.71,8.71,0,0,0-1,1.36,6.34,6.34,0,0,0-.88,3.17,7.38,7.38,0,0,0,2.64,5.34H196a7.38,7.38,0,0,0,2.64-5.34A6.32,6.32,0,0,0,197.88,278.24Z"/><polygon class="cls-15" points="157.55 268.5 157.55 271.79 173.48 271.79 187.67 271.79 203.6 271.79 203.6 268.5 157.55 268.5"/><polygon class="cls-17" points="196.03 286.59 165.12 286.59 164.13 286.59 164.99 289.88 170.76 289.88 190.39 289.88 196.2 289.88 197.84 286.59 196.03 286.59"/><polygon class="cls-17" points="187.67 271.79 173.48 271.79 157.55 271.79 160.84 276.72 164.33 276.72 196.82 276.72 199.49 276.72 203.6 271.79 187.67 271.79"/></g><circle class="cls-18" cx="181.5" cy="181.5" r="180"/></g></g></svg>