<svg xmlns="http://www.w3.org/2000/svg" xmlns:xlink="http://www.w3.org/1999/xlink" width="270" height="300" viewBox="0 0 270 300">
  <defs>
    <linearGradient id="linear-gradient" x1="-0.184" y1="0.5" x2="1.999" y2="0.5" gradientUnits="objectBoundingBox">
      <stop offset="0" stop-color="#8183be"/>
      <stop offset="1" stop-color="#8d4b9c"/>
    </linearGradient>
    <linearGradient id="linear-gradient-2" x1="0" y1="1.272" x2="1.38" y2="0.833" xlink:href="#linear-gradient"/>
    <linearGradient id="linear-gradient-3" x1="0" y1="0.5" x2="1.178" y2="0.5" xlink:href="#linear-gradient"/>
    <linearGradient id="linear-gradient-4" x1="-0.023" y1="0.394" x2="1.566" y2="0.892" gradientUnits="objectBoundingBox">
      <stop offset="0" stop-color="#83d4f6"/>
      <stop offset="1" stop-color="#fff"/>
    </linearGradient>
    <linearGradient id="linear-gradient-5" x1="5.844" y1="1.069" x2="8.183" y2="0.179" xlink:href="#linear-gradient-4"/>
    <linearGradient id="linear-gradient-6" x1="0" y1="0.5" x2="1.195" y2="0.5" xlink:href="#linear-gradient-4"/>
    <linearGradient id="linear-gradient-7" x1="-0.225" y1="0.5" x2="1.505" y2="0.5" gradientUnits="objectBoundingBox">
      <stop offset="0" stop-color="#f39254"/>
      <stop offset="0.538" stop-color="#ee716a"/>
      <stop offset="1" stop-color="#ec5a7b"/>
    </linearGradient>
    <linearGradient id="linear-gradient-8" y1="0.5" x2="1" y2="0.5" gradientUnits="objectBoundingBox">
      <stop offset="0" stop-color="#41bfbf"/>
      <stop offset="1" stop-color="#abd48d"/>
    </linearGradient>
    <linearGradient id="linear-gradient-9" y1="0.5" x2="1.144" y2="0.5" xlink:href="#linear-gradient-8"/>
  </defs>
  <g id="Group_357" data-name="Group 357" transform="translate(0 -1999)">
    <path id="Subtraction_5" data-name="Subtraction 5" d="M-1832,300a150.975,150.975,0,0,1-31.669-3.35,149.231,149.231,0,0,1-29.355-9.585,150.151,150.151,0,0,1-26.343-15.122A151.145,151.145,0,0,1-1942,251.981V48.019a151.143,151.143,0,0,1,22.633-19.962,150.158,150.158,0,0,1,26.343-15.122A149.224,149.224,0,0,1-1863.67,3.35,150.972,150.972,0,0,1-1832,0a151.11,151.11,0,0,1,30.23,3.047,149.248,149.248,0,0,1,28.157,8.74,150.018,150.018,0,0,1,25.48,13.83,151.075,151.075,0,0,1,22.2,18.316,151.078,151.078,0,0,1,18.316,22.2,150.026,150.026,0,0,1,13.83,25.48,149.249,149.249,0,0,1,8.74,28.157A151.109,151.109,0,0,1-1682,150a151.106,151.106,0,0,1-3.047,30.23,149.242,149.242,0,0,1-8.74,28.156,150.024,150.024,0,0,1-13.83,25.48,151.07,151.07,0,0,1-18.316,22.2,151.074,151.074,0,0,1-22.2,18.316,150.019,150.019,0,0,1-25.48,13.83,149.249,149.249,0,0,1-28.157,8.74A151.11,151.11,0,0,1-1832,300Z" transform="translate(1942 1999)" fill="#fff"/>
    <text id="Capture_inspection_photos_with_notes" data-name="Capture inspection
photos with
notes" transform="translate(30 2198)" fill="#002942" font-size="24" font-family="Saira-SemiBold, Saira" font-weight="600"><tspan x="0" y="0">Capture inspection</tspan><tspan x="0" y="30">photos with</tspan><tspan x="0" y="60">notes</tspan></text>
    <g id="Group_38" data-name="Group 38" transform="translate(-255.471 1676.501)">
      <path id="Path_100" data-name="Path 100" d="M515.579,532.243l30.555-17.654v.013l70.98-40.98.016,5.582-71.086,41.042v-.013l-30.449,17.593Z" transform="translate(-91.659 -53.327)" fill="url(#linear-gradient)"/>
      <g id="Group_32" data-name="Group 32" transform="translate(391.05 459.842)">
        <path id="Path_101" data-name="Path 101" d="M460.173,540.378l.016,5.582,32.823,19.075L493,559.453Z" transform="translate(-460.173 -540.378)" fill="url(#linear-gradient-2)"/>
      </g>
      <g id="Group_33" data-name="Group 33" transform="translate(391.097 401.22)">
        <path id="Path_102" data-name="Path 102" d="M523.445,501.54,594.531,460.5l-32.823-19.075L460.173,500.045,493,519.12l13.686-7.9" transform="translate(-460.173 -441.423)" fill="url(#linear-gradient-3)"/>
      </g>
      <path id="Path_103" data-name="Path 103" d="M425.8,479.872l30.556-17.654v.013l70.98-40.98.016,5.583-71.086,41.042v-.013l-30.449,17.593Z" transform="translate(-55.102 -32.027)" fill="url(#linear-gradient-4)"/>
      <g id="Group_34" data-name="Group 34" transform="translate(290.471 401.198)">
        <path id="Path_104" data-name="Path 104" d="M290.471,441.454l.016,5.582,80.169,46.653-.016-5.582Z" transform="translate(-290.471 -441.454)" fill="url(#linear-gradient-5)"/>
      </g>
      <g id="Group_35" data-name="Group 35" transform="translate(290.471 342.499)">
        <path id="Path_105" data-name="Path 105" d="M401.09,430.193l71.086-41.042L392.007,342.5,290.471,401.121l80.169,46.653,13.686-7.9" transform="translate(-290.471 -342.499)" fill="url(#linear-gradient-6)"/>
      </g>
      <g id="Group_36" data-name="Group 36" transform="translate(405.957 409.766)">
        <path id="Path_106" data-name="Path 106" d="M571.538,455.848l3.4,1.975-86.28,49.814-3.4-1.975Z" transform="translate(-485.258 -455.848)" fill="#f3f5f7"/>
        <path id="Path_107" data-name="Path 107" d="M528.122,522.32l-27.361,15.773-3.4-1.975,27.361-15.773Z" transform="translate(-490.192 -482.137)" fill="#f3f5f7"/>
        <path id="Path_108" data-name="Path 108" d="M549.97,494.728l55.115-31.845,3.4,1.975L553.369,496.7Z" transform="translate(-511.634 -458.716)" fill="#f3f5f7"/>
        <path id="Path_109" data-name="Path 109" d="M571.257,499.332,513.294,532.8l-3.4-1.975,57.962-33.465Z" transform="translate(-495.3 -472.767)" fill="#f3f5f7"/>
      </g>
      <path id="Path_110" data-name="Path 110" d="M433.91,426.422c0,5.58-8.32,10.1-18.582,10.1s-18.582-4.524-18.582-10.1,8.319-10.1,18.582-10.1S433.91,420.843,433.91,426.422Z" transform="translate(-43.287 -30.046)" fill="url(#linear-gradient-7)"/>
      <g id="Group_37" data-name="Group 37" transform="translate(341.312 367.714)">
        <path id="Path_111" data-name="Path 111" d="M543.3,406.479l-71.359,41.047-6.895-62.543,55.156,8.087Z" transform="translate(-412.421 -384.982)" fill="url(#linear-gradient-8)"/>
        <path id="Path_112" data-name="Path 112" d="M376.215,471.072l4.853-29.561,101.088,2.2-76.393,44.206Z" transform="translate(-376.215 -408.023)" fill="url(#linear-gradient-9)"/>
      </g>
    </g>
  </g>
</svg>
