<svg xmlns="http://www.w3.org/2000/svg" xmlns:xlink="http://www.w3.org/1999/xlink" width="260" height="300.001" viewBox="0 0 260 300.001">
  <defs>
    <linearGradient id="linear-gradient" x1="-0.244" y1="1.156" x2="0.851" y2="1.153" gradientUnits="objectBoundingBox">
      <stop offset="0" stop-color="#8183be"/>
      <stop offset="1" stop-color="#8d4b9c"/>
    </linearGradient>
    <linearGradient id="linear-gradient-2" x1="-0.029" y1="0.5" x2="1.258" y2="0.5" xlink:href="#linear-gradient"/>
    <linearGradient id="linear-gradient-3" x1="-0.46" y1="0.249" x2="1.785" y2="0.249" xlink:href="#linear-gradient"/>
    <linearGradient id="linear-gradient-4" x1="-0.032" y1="0.5" x2="0.873" y2="0.5" gradientUnits="objectBoundingBox">
      <stop offset="0.455" stop-color="#41bfbf"/>
      <stop offset="1" stop-color="#abd48d"/>
    </linearGradient>
    <linearGradient id="linear-gradient-5" x1="0.901" y1="0.5" x2="-0.099" y2="0.5" gradientUnits="objectBoundingBox">
      <stop offset="0" stop-color="#41bfbf"/>
      <stop offset="1" stop-color="#abd48d"/>
    </linearGradient>
  </defs>
  <g id="Group_359" data-name="Group 359" transform="translate(-115 -2487)">
    <g id="Group_358" data-name="Group 358">
      <path id="Subtraction_6" data-name="Subtraction 6" d="M-1836,320a151.1,151.1,0,0,1-30.23-3.047,149.241,149.241,0,0,1-28.157-8.74,150.023,150.023,0,0,1-25.48-13.83,151.077,151.077,0,0,1-22.2-18.316,151.08,151.08,0,0,1-18.317-22.2,150.009,150.009,0,0,1-13.83-25.48,149.233,149.233,0,0,1-8.74-28.157A151.107,151.107,0,0,1-1986,170a151.109,151.109,0,0,1,3.047-30.23,149.231,149.231,0,0,1,8.74-28.157,150,150,0,0,1,13.83-25.48,151.082,151.082,0,0,1,18.317-22.2,151.076,151.076,0,0,1,22.2-18.316,150.016,150.016,0,0,1,25.48-13.83,149.249,149.249,0,0,1,28.157-8.74A151.107,151.107,0,0,1-1836,20a151.29,151.29,0,0,1,28.1,2.628,149.305,149.305,0,0,1,26.354,7.562,149.836,149.836,0,0,1,24.127,12.016A150.926,150.926,0,0,1-1736,58.194V281.806a150.929,150.929,0,0,1-21.418,15.988,149.831,149.831,0,0,1-24.127,12.016,149.306,149.306,0,0,1-26.354,7.562A151.285,151.285,0,0,1-1836,320Z" transform="translate(2111 2467)" fill="#fff"/>
    </g>
    <text id="Generate_and_send_reports_with_signatures" data-name="Generate and
send reports
with signatures" transform="translate(181 2684)" fill="#002942" font-size="24" font-family="Saira-SemiBold, Saira" font-weight="600"><tspan x="0" y="0">Generate and</tspan><tspan x="0" y="30">send reports</tspan><tspan x="0" y="60">with signatures</tspan></text>
    <g id="Group_44" data-name="Group 44" transform="translate(-750.573 2464)">
      <g id="Group_40" data-name="Group 40" transform="translate(865.61 102.882)">
        <path id="Path_119" data-name="Path 119" d="M865.633,136.385l.021,5.359,128.395,74.734-.021-5.454Z" transform="translate(-865.633 -136.385)" fill="url(#linear-gradient)"/>
      </g>
      <path id="Path_120" data-name="Path 120" d="M993.492,177.521l92.081-53.162L957.653,50l-92.081,53.162,103.846,60.43" fill="url(#linear-gradient-2)"/>
      <path id="Path_121" data-name="Path 121" d="M1073.348,224.241l92.429-53.3.021,5.38-92.45,53.376" transform="translate(-80.227 -46.7)" fill="url(#linear-gradient-3)"/>
      <g id="Group_41" data-name="Group 41" transform="translate(915.181 76.412)">
        <path id="Path_122" data-name="Path 122" d="M1020.586,93l3.28,1.906-74.234,42.845-3.28-1.906Z" transform="translate(-946.352 -93.003)" fill="#f3f5f7"/>
        <path id="Path_123" data-name="Path 123" d="M987.232,146.1l-26.4,15.221-3.28-1.906,26.4-15.221Z" transform="translate(-950.627 -112.553)" fill="#f3f5f7"/>
        <path id="Path_124" data-name="Path 124" d="M1006.2,125.013l44.158-25.5,3.28,1.906-44.158,25.5Z" transform="translate(-969.208 -95.487)" fill="#f3f5f7"/>
        <path id="Path_125" data-name="Path 125" d="M1028.355,124.842l-55.936,32.295-3.28-1.906,55.936-32.295Z" transform="translate(-955.054 -104.434)" fill="#f3f5f7"/>
      </g>
      <g id="Group_42" data-name="Group 42" transform="translate(945.513 93.884)">
        <path id="Path_126" data-name="Path 126" d="M1070.562,121.451l3.28,1.906L999.608,166.2l-3.28-1.906Z" transform="translate(-996.328 -121.451)" fill="#f3f5f7"/>
        <path id="Path_127" data-name="Path 127" d="M1170.222,163.788l-26.4,15.221-3.28-1.906,26.4-15.221Z" transform="translate(-1051.399 -136.89)" fill="#f3f5f7"/>
        <path id="Path_128" data-name="Path 128" d="M1037.208,174.552l-26.4,15.221-3.28-1.906,26.4-15.221Z" transform="translate(-1000.604 -141.001)" fill="#f3f5f7"/>
        <path id="Path_129" data-name="Path 129" d="M1056.18,153.461l44.158-25.5,3.28,1.906-44.158,25.5Z" transform="translate(-1019.184 -123.935)" fill="#f3f5f7"/>
        <path id="Path_130" data-name="Path 130" d="M1078.331,153.29,1022.4,185.585l-3.28-1.906,55.936-32.295Z" transform="translate(-1005.03 -132.882)" fill="#f3f5f7"/>
      </g>
      <path id="Path_131" data-name="Path 131" d="M937.673,100.563l-31.5,18.223a8.189,8.189,0,0,1-8.191,0l-30.5-17.573a3.15,3.15,0,0,1-1.588-2.753v5.361h0a3.149,3.149,0,0,0,1.587,2.737l30.5,17.573a8.188,8.188,0,0,0,8.191,0l31.5-18.223a2.513,2.513,0,0,0,1.268-2.217V98.385A2.514,2.514,0,0,1,937.673,100.563Z" transform="translate(-0.125 -18.621)" fill="url(#linear-gradient-4)"/>
      <path id="Path_132" data-name="Path 132" d="M867.491,82.253,899.1,63.966a6.044,6.044,0,0,1,6.046,0l32.53,18.746a2.538,2.538,0,0,1,0,4.4l-31.5,18.223a8.189,8.189,0,0,1-8.191,0l-30.5-17.573A3.179,3.179,0,0,1,867.491,82.253Z" transform="translate(-0.126 -5.024)" fill="url(#linear-gradient-5)"/>
      <g id="Group_43" data-name="Group 43" transform="translate(886.207 65.697)" style="isolation: isolate">
        <path id="Path_133" data-name="Path 133" d="M909.358,76.47c-2.463,1.429-2.471,3.737-.019,5.155.054.032.111.057.166.086l-4.327,7.5a9.057,9.057,0,0,0-4.369,1.074c-2.462,1.428-2.471,3.735-.019,5.153a9.8,9.8,0,0,0,8.9-.018,3.54,3.54,0,0,0,1.767-2.011l13.52-2.758c.108.074.217.147.338.217a9.806,9.806,0,0,0,8.9-.019c2.461-1.428,2.471-3.735.018-5.154a9.8,9.8,0,0,0-8.9.019,3.32,3.32,0,0,0-1.829,2.307L910.344,90.7a5.152,5.152,0,0,0-.638-.439c-.026-.015-.055-.028-.082-.043l4.355-7.542a9.009,9.009,0,0,0,4.26-1.071c2.461-1.428,2.469-3.736.017-5.154a9.806,9.806,0,0,0-8.9.018" transform="translate(-898.956 -75.394)" fill="#fff"/>
      </g>
    </g>
  </g>
</svg>
