<svg xmlns="http://www.w3.org/2000/svg" width="250" height="300" viewBox="0 0 250 300">
  <path id="Subtraction_4" data-name="Subtraction 4" d="M-1836,300a151.106,151.106,0,0,1-30.23-3.047,149.25,149.25,0,0,1-28.157-8.74,150.02,150.02,0,0,1-25.48-13.83,151.08,151.08,0,0,1-22.2-18.316,151.087,151.087,0,0,1-18.317-22.2,150.008,150.008,0,0,1-13.83-25.48,149.23,149.23,0,0,1-8.74-28.156A151.106,151.106,0,0,1-1986,150a151.109,151.109,0,0,1,3.047-30.23,149.231,149.231,0,0,1,8.74-28.157,150.005,150.005,0,0,1,13.83-25.48,151.088,151.088,0,0,1,18.317-22.2,151.075,151.075,0,0,1,22.2-18.316,150.018,150.018,0,0,1,25.48-13.83,149.248,149.248,0,0,1,28.157-8.74A151.107,151.107,0,0,1-1836,0a151.29,151.29,0,0,1,28.1,2.628,149.309,149.309,0,0,1,26.354,7.562,149.836,149.836,0,0,1,24.127,12.016A150.926,150.926,0,0,1-1736,38.194V261.806a150.935,150.935,0,0,1-21.418,15.988,149.828,149.828,0,0,1-24.127,12.016,149.311,149.311,0,0,1-26.354,7.562A151.289,151.289,0,0,1-1836,300Z" transform="translate(1986)" fill="#fff"/>
</svg>
