<svg xmlns="http://www.w3.org/2000/svg" width="128.616" height="186.99" viewBox="0 0 128.616 186.99">
  <g id="Group_317" data-name="Group 317" transform="translate(-112.125 -445.903)">
    <path id="Path_1015" data-name="Path 1015" d="M127.474,606.105a9.578,9.578,0,0,1-13.357-4.353,9.581,9.581,0,0,0,13.357,13.5v-9.146Z" transform="translate(0 -59.68)" fill="#c85a1f"/>
    <path id="Path_1016" data-name="Path 1016" d="M124.052,604.985a9.544,9.544,0,0,0,4.659-1.211V597.6a9.558,9.558,0,0,0-13.357,1.823A9.587,9.587,0,0,0,124.052,604.985Z" transform="translate(-1.237 -57.35)" fill="#f39454"/>
    <path id="Path_1017" data-name="Path 1017" d="M307.985,602.475a9.584,9.584,0,0,1-13.142,3.907v9.534a9.59,9.59,0,0,0,13.142-13.442Z" transform="translate(-69.969 -59.957)" fill="#c85a1f"/>
    <path id="Path_1018" data-name="Path 1018" d="M300.051,595.666a9.539,9.539,0,0,0-5.208,1.544v6.565a9.584,9.584,0,0,0,13.142-3.907A9.582,9.582,0,0,0,300.051,595.666Z" transform="translate(-69.969 -57.35)" fill="#f39454"/>
    <path id="Path_1019" data-name="Path 1019" d="M279.354,470.164c-3.577,0-6.514,0-9.043-.1v.1Z" transform="translate(-60.575 -9.252)" fill="#059184"/>
    <path id="Path_1020" data-name="Path 1020" d="M174.732,529.453q1.119,1.225,2.373,2.41c-.6-1.056-1.143-2.089-1.628-3.081Z" transform="translate(-23.974 -31.737)" fill="#059184"/>
    <path id="Path_1021" data-name="Path 1021" d="M152.186,503.278v-14.21H149.6a21.2,21.2,0,0,0-6.459,1.084c-9.841,3.167-19.378,12.878-19.378,23.461a36.671,36.671,0,0,0,7.751,21.961l23.7-21.329.745-.671A48.543,48.543,0,0,1,152.186,503.278Z" transform="translate(-4.458 -16.529)" fill="#01243a"/>
    <path id="Path_1022" data-name="Path 1022" d="M176.878,721.56l-23.8-10.036V734.4h78.8V710.979L206.782,721.56C198.524,725.041,185.135,725.041,176.878,721.56Z" transform="translate(-15.681 -101.507)" fill="#e2783c"/>
    <path id="Path_1023" data-name="Path 1023" d="M206.782,710.627c-8.258,6.773-21.647,6.773-29.9,0l-23.8-19.523v13.062l23.8,17.057c8.258,6.773,21.647,6.773,29.9,0l25.095-18.117V690.044Z" transform="translate(-15.681 -93.49)" fill="#c85a1f"/>
    <path id="Path_1024" data-name="Path 1024" d="M227.54,636.466l-11.12,11.119-16.052,16.052a21.146,21.146,0,0,1-29.9,0l-16.052-16.052-11.119-11.119a23.785,23.785,0,0,1-6.967-16.819v24.545a23.786,23.786,0,0,0,6.967,16.819l3.368,3.368,23.8,23.8a21.146,21.146,0,0,0,29.9,0l25.095-25.095,2.076-2.076a23.788,23.788,0,0,0,6.966-16.819V619.647A23.787,23.787,0,0,1,227.54,636.466Z" transform="translate(-9.268 -66.533)" fill="#f39454"/>
    <path id="Path_1025" data-name="Path 1025" d="M231.034,517.932a49.085,49.085,0,0,0-94.707,18.131v32.779a23.785,23.785,0,0,0,6.967,16.819l11.119,11.119,16.052,16.052a21.146,21.146,0,0,0,29.9,0L216.42,596.78l11.12-11.119a23.787,23.787,0,0,0,6.966-16.819V536.063A48.94,48.94,0,0,0,231.034,517.932Z" transform="translate(-9.268 -15.728)" fill="#f5a463"/>
    <path id="Path_1026" data-name="Path 1026" d="M254.821,482.33c-4.14,12.859-15.14,33.8-42.89,33.8-15.471,0-26.106-4.723-33.352-10.514,6.115,9.078,18.507,20.326,42.4,20.326,40.047,0,45.214-43.608,45.214-43.608Z" transform="translate(-25.447 -13.949)" fill="#334f5d"/>
    <path id="Path_1027" data-name="Path 1027" d="M240.874,458.569h-9.043v-.085c-8.433-.268-12.123-1.425-18.086-6.457-29.712-18.534-43.922,10.9-43.922,10.9v17.443a36.9,36.9,0,0,0,3.775,8.69c.484.837,1.027,1.708,1.628,2.6,7.246,5.791,17.881,10.514,33.352,10.514,27.751,0,38.75-20.937,42.89-33.8a57.779,57.779,0,0,0,2.324-9.811Z" transform="translate(-22.095)"/>
    <ellipse id="Ellipse_89" data-name="Ellipse 89" cx="4.937" cy="7.405" rx="4.937" ry="7.405" transform="translate(147.706 541.608)" fill="#030000"/>
    <ellipse id="Ellipse_90" data-name="Ellipse 90" cx="4.937" cy="7.405" rx="4.937" ry="7.405" transform="translate(194.603 541.608)" fill="#030000"/>
    <g id="Group_256" data-name="Group 256" transform="translate(143.387 532.969)">
      <path id="Path_1028" data-name="Path 1028" d="M179.448,588.234H165.872A3.07,3.07,0,0,1,163.418,587a3.071,3.071,0,0,0,2.454,4.937h13.575A3.072,3.072,0,0,0,181.9,587,3.07,3.07,0,0,1,179.448,588.234Z" transform="translate(-162.787 -587)" fill="#f39454"/>
      <path id="Path_1029" data-name="Path 1029" d="M255.9,587a3.07,3.07,0,0,1-2.455,1.234H239.872A3.07,3.07,0,0,1,237.418,587a3.071,3.071,0,0,0,2.454,4.937h13.575A3.072,3.072,0,0,0,255.9,587Z" transform="translate(-191.124 -587)" fill="#f39454"/>
    </g>
    <g id="Group_257" data-name="Group 257" transform="translate(143.387 528.032)">
      <path id="Path_1030" data-name="Path 1030" d="M179.448,579H165.872a3.085,3.085,0,0,0,0,6.171h13.575a3.085,3.085,0,0,0,0-6.171Z" transform="translate(-162.787 -579)" fill="#012438"/>
      <path id="Path_1031" data-name="Path 1031" d="M253.448,579H239.872a3.085,3.085,0,0,0,0,6.171h13.575a3.085,3.085,0,0,0,0-6.171Z" transform="translate(-191.124 -579)" fill="#012438"/>
    </g>
    <g id="Group_258" data-name="Group 258" transform="translate(150.168 569.376)">
      <path id="Path_1032" data-name="Path 1032" d="M181.371,655.346a7.065,7.065,0,0,1,.1-1.179,4.1,4.1,0,0,1-3.9-4.091V646h-3.8a25.85,25.85,0,0,0,14.6,23.28v-1.931a9.622,9.622,0,0,1,1.388-4.993H188.38A7.01,7.01,0,0,1,181.371,655.346Z" transform="translate(-173.777 -646)" fill="#b81242" opacity="0.67"/>
      <path id="Path_1033" data-name="Path 1033" d="M248.8,646v4.076a4.1,4.1,0,0,1-3.9,4.091,7,7,0,0,1-.3,3.515h5.209A25.741,25.741,0,0,0,252.592,646Z" transform="translate(-200.897 -646)" fill="#b81242" opacity="0.67"/>
    </g>
    <path id="Path_1034" data-name="Path 1034" d="M222.591,660.415a7.068,7.068,0,0,0-.1-1.179c-.068,0-.135.01-.2.01h-35.9c-.069,0-.136-.007-.2-.01a7.061,7.061,0,0,0-.1,1.179h0a7.01,7.01,0,0,0,7.009,7.01h1.388a9.661,9.661,0,0,1,8.278-4.673h19.432a7,7,0,0,0,.4-2.337Z" transform="translate(-28.321 -81.693)" fill="#690013"/>
    <path id="Path_1035" data-name="Path 1035" d="M179.93,646v3.213h44.1V646Z" transform="translate(-25.965 -76.624)" fill="#d6dae6"/>
    <path id="Path_1036" data-name="Path 1036" d="M216.619,651.206H179.93v.864a4.1,4.1,0,0,0,3.9,4.091c.068,0,.135.01.2.01h35.9c.068,0,.136-.007.2-.01a4.1,4.1,0,0,0,3.9-4.091v-.864Z" transform="translate(-25.965 -78.618)" fill="#f2f0f3"/>
    <path id="Path_1037" data-name="Path 1037" d="M226.54,664.933H207.108a9.664,9.664,0,0,0-9.666,9.666v1.931a25.87,25.87,0,0,0,34.307-11.6Z" transform="translate(-32.671 -83.874)" fill="#ea2962"/>
    <rect id="Rectangle_1577" data-name="Rectangle 1577" width="16.94" height="2.629" rx="1.314" transform="translate(171.489 583.979)" fill="#f06383"/>
    <circle id="Ellipse_91" data-name="Ellipse 91" cx="2.16" cy="2.16" r="2.16" transform="translate(168.929 558.8)" fill="#c85a1f"/>
    <circle id="Ellipse_92" data-name="Ellipse 92" cx="2.16" cy="2.16" r="2.16" transform="translate(180.037 558.8)" fill="#c85a1f"/>
  </g>
</svg>
