<svg xmlns="http://www.w3.org/2000/svg" xmlns:xlink="http://www.w3.org/1999/xlink" viewBox="0 0 363 363"><defs><style>.cls-1,.cls-17{fill:none;}.cls-2{clip-path:url(#clip-path);}.cls-3{fill:#e2783c;}.cls-4{fill:#c85a1f;}.cls-5{fill:#f39454;}.cls-6{fill:#01243a;}.cls-7{fill:#f5a463;}.cls-8{fill:#334f5d;}.cls-9{fill:#030000;}.cls-10{fill:#b81242;opacity:0.67;}.cls-11{fill:#690013;}.cls-12{fill:#ea2962;}.cls-13{fill:#f06383;}.cls-14{fill:#f2f0f3;}.cls-15{fill:#d6dae6;}.cls-16{fill:#012438;}.cls-17{stroke:#002941;stroke-miterlimit:10;stroke-width:3px;}</style><clipPath id="clip-path"><circle class="cls-1" cx="181.5" cy="181.5" r="180"/></clipPath></defs><title>Asset 6</title><g id="Layer_2" data-name="Layer 2"><g id="Layer_2-2" data-name="Layer 2"><g class="cls-2"><polyline class="cls-3" points="131.5 295.79 131.5 362.19 227.94 362.19 227.94 294.21"/><path class="cls-4" d="M131.5,280v15.81l29.13,29.13a25.89,25.89,0,0,0,36.6,0l30.71-30.71V278.4"/><path class="cls-5" d="M118.85,225.24v30a29.13,29.13,0,0,0,8.53,20.59L131.5,280l29.13,29.13a25.89,25.89,0,0,0,36.6,0l30.71-30.71,2.54-2.54A29.12,29.12,0,0,0,239,255.27v-30"/><path class="cls-4" d="M254.64,212.27a11.72,11.72,0,0,0-15.94-3.34l0,0-119.32.75v-.15a11.74,11.74,0,1,0-.2,18.9l.2.13h119.2v.2a11.74,11.74,0,0,0,16.08-16.45Z"/><path class="cls-5" d="M244.93,207.13a11.65,11.65,0,0,0-6.21,1.79l0,0-119.32.75v-.15A11.7,11.7,0,0,0,103,211.72a11.71,11.71,0,0,0,16,5.51l.26-.14.08.11H238.68l.08,0a11.73,11.73,0,0,0,15.88-4.89A11.73,11.73,0,0,0,244.93,207.13Z"/><path class="cls-6" d="M144.15,144V126.63H141a26.12,26.12,0,0,0-7.91,1.32c-12,3.88-23.71,15.76-23.71,28.72a44.86,44.86,0,0,0,9.48,26.87l29-26.1.92-.82A59.46,59.46,0,0,1,144.15,144Z"/><path class="cls-7" d="M234.75,162.93a60.07,60.07,0,0,0-115.9,22.19v40.12a29.1,29.1,0,0,0,8.53,20.58L141,259.43l19.64,19.64a25.87,25.87,0,0,0,36.6,0l19.64-19.64,13.61-13.61A29.09,29.09,0,0,0,239,225.24V185.12A59.74,59.74,0,0,0,234.75,162.93Z"/><path class="cls-8" d="M150.76,150c7.48,11.11,22.65,24.88,51.88,24.88,49,0,55.33-53.37,55.33-53.37H244.06"/><ellipse class="cls-9" cx="150.16" cy="220.22" rx="6.04" ry="9.06"/><ellipse class="cls-9" cx="207.55" cy="220.22" rx="6.04" ry="9.06"/><circle class="cls-4" cx="172.74" cy="234.84" r="2.64"/><circle class="cls-4" cx="186.33" cy="234.84" r="2.64"/><path d="M231.1,109.53H220v-.1c-10.32-.33-14.83-1.74-22.13-7.9-36.36-22.68-53.75,13.34-53.75,13.34v21.35a45.13,45.13,0,0,0,4.62,10.63c.59,1,1.25,2.09,2,3.18,8.87,7.09,21.88,12.87,40.82,12.87,34,0,47.42-25.62,52.48-41.36a70.51,70.51,0,0,0,2.85-12Z"/><path class="cls-10" d="M205.75,245.14H147.13a31.64,31.64,0,1,0,63.27,0Zm-49.2,10h0Zm44.06,4.3c.08-.22.15-.45.21-.68a7.5,7.5,0,0,0,.25-1.43c0-.25,0-.49,0-.75a8.57,8.57,0,0,0-.12-1.44,8.57,8.57,0,0,1,.12,1.44c0,.26,0,.5,0,.75a7.5,7.5,0,0,1-.25,1.43c-.06.23-.13.46-.21.68Z"/><path class="cls-11" d="M200.61,259.43a8.42,8.42,0,0,0,.49-2.86h0c0-.49,0-10-.12-10.5H156.55c-.08.47-.12,10-.12,10.5h0a8.58,8.58,0,0,0,8.57,8.58h1.7"/><path class="cls-12" d="M200.61,259.43H176.83A11.83,11.83,0,0,0,165,271.26v2.37a31.67,31.67,0,0,0,42-14.2Z"/><rect class="cls-13" x="173.23" y="263.01" width="20.73" height="3.22" rx="1.61"/><path class="cls-14" d="M196.68,246.05h-44.9v4.08a5,5,0,0,0,4.77,5H201a5,5,0,0,0,4.77-5v-4.08Z"/><polygon class="cls-15" points="151.78 245.14 151.78 249.07 160.85 249.07 196.68 249.07 205.75 249.07 205.75 245.14 151.78 245.14"/><path class="cls-5" d="M139.61,200.58a3.75,3.75,0,0,0,3,6h16.61a3.76,3.76,0,0,0,3-6"/><path class="cls-5" d="M195.49,200.58a3.76,3.76,0,0,0,3,6h16.62a3.76,3.76,0,0,0,3-6"/><path class="cls-16" d="M159.22,194.54H142.61a3.78,3.78,0,0,0-3.78,3.78,3.67,3.67,0,0,0,.08.75,3.61,3.61,0,0,0,.7,1.51,3.76,3.76,0,0,0,3,1.51h16.61a3.76,3.76,0,0,0,3-1.51,3.72,3.72,0,0,0,.69-1.51,3.67,3.67,0,0,0,.08-.75A3.78,3.78,0,0,0,159.22,194.54Z"/><path class="cls-16" d="M215.11,194.54H198.49a3.77,3.77,0,0,0-3.77,3.78,3.67,3.67,0,0,0,.07.75,3.88,3.88,0,0,0,.7,1.51,3.76,3.76,0,0,0,3,1.51h16.62a3.76,3.76,0,0,0,3-1.51,3.88,3.88,0,0,0,.7-1.51,4.54,4.54,0,0,0,.07-.75A3.77,3.77,0,0,0,215.11,194.54Z"/></g><circle class="cls-17" cx="181.5" cy="181.5" r="180"/></g></g></svg>