<svg xmlns="http://www.w3.org/2000/svg" width="30" height="30" viewBox="0 0 30 30">
  <g id="Group_331" data-name="Group 331" transform="translate(-0.113 -0.43)">
    <circle id="Ellipse_30" data-name="Ellipse 30" cx="15" cy="15" r="15" transform="translate(0.113 0.43)" fill="#f39b90"/>
    <g id="Group_48" data-name="Group 48" transform="translate(6.113 9.43)">
      <path id="Path_141" data-name="Path 141" d="M527.388,203.135Z" transform="translate(-509.961 -202.918)" fill="#fff"/>
      <path id="Path_142" data-name="Path 142" d="M460.206,204.135a2.343,2.343,0,0,1-.7.094l.013-.076a5.842,5.842,0,0,0,1.4-1.646c.053-.186-.009-.25-.01-.256l-1.171.511-.98.455h0a3.857,3.857,0,0,0-2.845-1.205,3.516,3.516,0,0,0-3.689,3.314,5.067,5.067,0,0,0,.151,1.251c0,.1,0-.1,0,0a11.274,11.274,0,0,1-4.49-1.37c-2.954-1.538-3.139-2.6-3.139-2.6a4.244,4.244,0,0,0-.233,3.5,4.323,4.323,0,0,0,1.336,1.6h0a3.07,3.07,0,0,1-.948-.16,2.083,2.083,0,0,1-.668-.335c-.288.722.29,2.013,1.29,2.939a5.234,5.234,0,0,0,1.646.878l-1.662.048c-.094,1.661,3.388,2.647,3.388,2.647h0a5.6,5.6,0,0,1-3.473,1.3,6.464,6.464,0,0,1-1.9-.286A8.9,8.9,0,0,0,449.7,217c6.217-.336,9.726-5.829,9.893-11.224l.008.011a4.393,4.393,0,0,0,.914-.79,6.6,6.6,0,0,0,1.01-1.389S460.6,204.024,460.206,204.135Z" transform="translate(-443.528 -202.011)" fill="#fff"/>
      <path id="Path_143" data-name="Path 143" d="M527.388,203.135c0,.092,0,.009,0,0Z" transform="translate(-509.961 -202.918)" fill="#fff"/>
    </g>
  </g>
</svg>
