<svg xmlns="http://www.w3.org/2000/svg" xmlns:xlink="http://www.w3.org/1999/xlink" width="836" height="660" viewBox="0 0 836 660">
  <defs>
    <linearGradient id="linear-gradient" x1="-0.215" y1="0.5" x2="1.605" y2="0.5" gradientUnits="objectBoundingBox">
      <stop offset="0" stop-color="#f39254"/>
      <stop offset="0.538" stop-color="#ee716a"/>
      <stop offset="1" stop-color="#ec5a7b"/>
    </linearGradient>
    <linearGradient id="linear-gradient-2" x1="-0.56" y1="0.5" x2="1.093" y2="0.5" xlink:href="#linear-gradient"/>
    <linearGradient id="linear-gradient-3" x1="-0.188" y1="0.978" x2="1.167" y2="0.211" gradientUnits="objectBoundingBox">
      <stop offset="0" stop-color="#8183be"/>
      <stop offset="1" stop-color="#8d4b9c"/>
    </linearGradient>
    <linearGradient id="linear-gradient-4" x1="-0.09" y1="0.5" x2="1.394" y2="0.5" gradientUnits="objectBoundingBox">
      <stop offset="0" stop-color="#774198"/>
      <stop offset="0.257" stop-color="#603689"/>
      <stop offset="1" stop-color="#231961"/>
    </linearGradient>
    <linearGradient id="linear-gradient-5" x1="-0.439" y1="0.77" x2="1.371" y2="0.691" gradientUnits="objectBoundingBox">
      <stop offset="0" stop-color="#4e439a"/>
      <stop offset="0.168" stop-color="#493d92"/>
      <stop offset="0.424" stop-color="#3c2f7d"/>
      <stop offset="0.735" stop-color="#26175a"/>
      <stop offset="1" stop-color="#110038"/>
    </linearGradient>
    <linearGradient id="linear-gradient-6" x1="-8.297" y1="1.138" x2="5.729" y2="-0.206" xlink:href="#linear-gradient-3"/>
    <linearGradient id="linear-gradient-7" x1="-0.325" y1="1" x2="1.171" y2="0.187" xlink:href="#linear-gradient-3"/>
    <linearGradient id="linear-gradient-8" x1="-0.294" y1="0.5" x2="1.373" y2="0.5" xlink:href="#linear-gradient-5"/>
    <linearGradient id="linear-gradient-9" x1="-56.522" y1="0.988" x2="-57.282" y2="0.031" gradientUnits="objectBoundingBox">
      <stop offset="0" stop-color="#41bfbf"/>
      <stop offset="1" stop-color="#abd48d"/>
    </linearGradient>
    <linearGradient id="linear-gradient-10" x1="-2964.776" y1="1.009" x2="-2944.423" y2="0.171" gradientUnits="objectBoundingBox">
      <stop offset="0" stop-color="#41bfbf"/>
      <stop offset="0.91" stop-color="#abd48d"/>
    </linearGradient>
    <linearGradient id="linear-gradient-11" x1="-56.315" y1="0.5" x2="-55.315" y2="0.5" xlink:href="#linear-gradient-9"/>
    <linearGradient id="linear-gradient-12" x1="-0.506" y1="0.435" x2="1.205" y2="0.435" gradientUnits="objectBoundingBox">
      <stop offset="0" stop-color="#83d4f6"/>
      <stop offset="1" stop-color="#fff"/>
    </linearGradient>
    <linearGradient id="linear-gradient-13" x1="0" y1="0.5" x2="1.347" y2="0.5" xlink:href="#linear-gradient"/>
    <linearGradient id="linear-gradient-14" x1="-0.832" y1="0.482" x2="0.973" y2="0.482" xlink:href="#linear-gradient"/>
    <linearGradient id="linear-gradient-15" x1="0.817" y1="-0.138" x2="-0.728" y2="0.412" gradientUnits="objectBoundingBox">
      <stop offset="0" stop-color="#8d4b9c"/>
      <stop offset="1" stop-color="#00c0f2"/>
    </linearGradient>
    <linearGradient id="linear-gradient-17" x1="1.397" y1="0.5" x2="-0.287" y2="0.5" xlink:href="#linear-gradient-15"/>
    <linearGradient id="linear-gradient-19" x1="-0.837" y1="0.5" x2="1" y2="0.5" xlink:href="#linear-gradient-9"/>
    <linearGradient id="linear-gradient-20" x1="0.558" y1="0.5" x2="1.56" y2="0.5" gradientUnits="objectBoundingBox">
      <stop offset="0" stop-color="#774198"/>
      <stop offset="0.257" stop-color="#603689"/>
      <stop offset="0.759" stop-color="#241a62"/>
      <stop offset="0.874" stop-color="#281c65"/>
      <stop offset="1" stop-color="#231961"/>
    </linearGradient>
    <linearGradient id="linear-gradient-21" x1="-65.261" y1="0.5" x2="-64.261" y2="0.5" xlink:href="#linear-gradient-4"/>
    <linearGradient id="linear-gradient-22" x1="-1.389" y1="0.5" x2="1" y2="0.5" xlink:href="#linear-gradient-4"/>
    <linearGradient id="linear-gradient-23" x1="-0.137" y1="0.5" x2="1.061" y2="0.5" gradientUnits="objectBoundingBox">
      <stop offset="0" stop-color="#7a64ab"/>
      <stop offset="1" stop-color="#009cb9"/>
    </linearGradient>
    <linearGradient id="linear-gradient-24" x1="-0.124" y1="0.5" x2="1.249" y2="0.5" xlink:href="#linear-gradient-9"/>
    <linearGradient id="linear-gradient-25" x1="-0.503" y1="0.5" x2="1" y2="0.5" xlink:href="#linear-gradient-4"/>
    <linearGradient id="linear-gradient-26" x1="-404.279" y1="0.5" x2="-403.279" y2="0.5" xlink:href="#linear-gradient-3"/>
    <linearGradient id="linear-gradient-27" x1="-0.613" y1="0.5" x2="1.281" y2="0.5" xlink:href="#linear-gradient-3"/>
    <linearGradient id="linear-gradient-28" x1="-1.343" y1="0.5" x2="1.409" y2="0.5" xlink:href="#linear-gradient"/>
    <linearGradient id="linear-gradient-29" x1="-2.644" y1="0.5" x2="1" y2="0.5" xlink:href="#linear-gradient"/>
    <linearGradient id="linear-gradient-30" x1="-1.376" y1="0.5" x2="1.263" y2="0.5" xlink:href="#linear-gradient"/>
    <linearGradient id="linear-gradient-31" x1="-256" y1="0.5" x2="-255" y2="0.5" xlink:href="#linear-gradient"/>
    <linearGradient id="linear-gradient-32" x1="-0.579" y1="0.68" x2="1.129" y2="0.68" xlink:href="#linear-gradient"/>
    <linearGradient id="linear-gradient-33" x1="-55.521" y1="0.5" x2="-54.521" y2="0.5" xlink:href="#linear-gradient-4"/>
    <linearGradient id="linear-gradient-34" x1="-198.221" y1="0.5" x2="-197.221" y2="0.5" xlink:href="#linear-gradient-4"/>
    <linearGradient id="linear-gradient-35" x1="-0.286" y1="0.164" x2="0.641" y2="0.598" xlink:href="#linear-gradient-4"/>
    <linearGradient id="linear-gradient-36" x1="-0.296" y1="0.5" x2="1" y2="0.5" xlink:href="#linear-gradient-4"/>
    <linearGradient id="linear-gradient-37" x1="-0.261" y1="0.375" x2="1.215" y2="0.375" xlink:href="#linear-gradient-23"/>
    <linearGradient id="linear-gradient-38" x1="-208.979" y1="0.429" x2="-208.456" y2="1.1" xlink:href="#linear-gradient-4"/>
    <linearGradient id="linear-gradient-39" x1="-0.429" y1="0.5" x2="1.041" y2="0.5" xlink:href="#linear-gradient-4"/>
    <linearGradient id="linear-gradient-40" x1="-0.148" y1="0.593" x2="1.066" y2="0.593" xlink:href="#linear-gradient-23"/>
  </defs>
  <g id="Group_358" data-name="Group 358" transform="translate(-132 -260)">
    <g id="Group_353" data-name="Group 353">
      <circle id="Ellipse_25" data-name="Ellipse 25" cx="293.5" cy="293.5" r="293.5" transform="translate(216 260)" fill="#f39b90"/>
      <g id="Group_16" data-name="Group 16" transform="translate(-272.125 -140)">
        <path id="Path_17" data-name="Path 17" d="M896.862,633.493l2.329,6.127a36.466,36.466,0,0,1,2.275,13.426c0,20.623-12.575,44.58-28.09,53.509a26.515,26.515,0,0,1-6.369,2.691l-6.206,2.261-5.829-3.5,0,0c-5.929-3.432-9.685-11.36-9.685-22.621,0-20.623,12.576-44.578,28.088-53.509,7.56-4.351,14.417-4.322,19.466-.771" transform="translate(331.049 147.199)" fill="url(#linear-gradient)"/>
        <path id="Path_18" data-name="Path 18" d="M904.8,655.047c0,20.621-12.577,44.578-28.09,53.509s-28.09-.55-28.09-21.171,12.577-44.58,28.09-53.509S904.8,634.424,904.8,655.047Z" transform="translate(333.55 148.694)" fill="url(#linear-gradient-2)"/>
        <g id="Group_8" data-name="Group 8" transform="translate(903.037 432)">
          <g id="Group_7" data-name="Group 7" transform="translate(0)">
            <path id="Path_19" data-name="Path 19" d="M699.269,1054.787,890.938,920.6V438.94L699.269,573.107Z" transform="translate(-681.601 -426.787)" fill="url(#linear-gradient-3)"/>
            <path id="Path_20" data-name="Path 20" d="M705.311,974.309,878.943,852.863V461.932L705.311,583.516Z" transform="translate(-677.063 -409.517)" fill="url(#linear-gradient-4)"/>
            <path id="Path_21" data-name="Path 21" d="M747.218,778.827l51.358-35.973V711.727l-51.358,35.942Z" transform="translate(-645.585 -222.544)" fill="url(#linear-gradient-5)"/>
            <path id="Path_22" data-name="Path 22" d="M706.847,1003.052l-17.668-12.173V508.687l17.668,12.173Z" transform="translate(-689.179 -375.052)" fill="url(#linear-gradient-6)"/>
            <path id="Path_23" data-name="Path 23" d="M880.9,432l17.619,12.153L706.828,578.462l-17.648-12.173Z" transform="translate(-689.179 -432)" fill="url(#linear-gradient-7)"/>
          </g>
          <path id="Path_24" data-name="Path 24" d="M727.245,547.934l99.408-70.089V463.7l-99.408,70.089Z" transform="translate(-660.587 -408.193)" fill="url(#linear-gradient-8)"/>
        </g>
        <path id="Path_25" data-name="Path 25" d="M758.235,788.387,974.462,636.5V537.236L758.235,689.12Z" transform="translate(265.662 78.726)" fill="url(#linear-gradient-9)"/>
        <path id="Path_26" data-name="Path 26" d="M760.007,724.36l-4.129-2.6V622.477l4.129,2.616Z" transform="translate(263.974 142.659)" fill="url(#linear-gradient-10)"/>
        <path id="Path_27" data-name="Path 27" d="M972.045,535.721l4.189,2.652L760,690.235l-4.122-2.593Z" transform="translate(263.891 77.657)" fill="url(#linear-gradient-11)"/>
        <path id="Path_28" data-name="Path 28" d="M833.129,607.708l66.956-46.13V552.1l-66.956,46.13Z" transform="translate(321.916 89.972)" fill="#fff"/>
        <path id="Path_29" data-name="Path 29" d="M833.635,610.48l35.03-24.181v-9.475L833.635,601Z" transform="translate(322.297 108.501)" fill="#fff"/>
        <path id="Path_30" data-name="Path 30" d="M833.129,632.777l66.956-46.13v-9.476L833.129,623.3Z" transform="translate(321.916 108.752)" fill="#fff"/>
        <path id="Path_31" data-name="Path 31" d="M833.445,639.1l47-32.163V597.46l-47,32.163Z" transform="translate(322.154 123.959)" fill="#fff"/>
        <path id="Path_32" data-name="Path 32" d="M761.327,747.252l115.391-80.806V578.5L761.327,659.3Z" transform="translate(267.984 109.677)" fill="url(#linear-gradient-12)"/>
        <path id="Path_33" data-name="Path 33" d="M786.315,562.857l1.283,3.38a20.124,20.124,0,0,1,1.257,7.411c0,11.381-6.941,24.6-15.5,29.529a14.6,14.6,0,0,1-3.514,1.485l-3.425,1.248-3.217-1.931,0,0c-3.273-1.895-5.346-6.269-5.346-12.484,0-11.38,6.94-24.6,15.5-29.529,4.173-2.4,7.956-2.385,10.743-.427" transform="translate(265.448 95.976)" fill="url(#linear-gradient-13)"/>
        <path id="Path_34" data-name="Path 34" d="M790.692,574.75c0,11.38-6.94,24.6-15.5,29.531s-15.5-.3-15.5-11.685,6.941-24.6,15.5-29.529S790.692,563.369,790.692,574.75Z" transform="translate(266.826 96.801)" fill="url(#linear-gradient-14)"/>
        <path id="Path_35" data-name="Path 35" d="M815.117,542.915l1.285,3.38a20.132,20.132,0,0,1,1.255,7.411c0,11.38-6.94,24.6-15.5,29.529a14.577,14.577,0,0,1-3.516,1.485l-3.423,1.249L792,584.037l0,0c-3.273-1.895-5.344-6.269-5.344-12.484,0-11.381,6.94-24.6,15.5-29.529,4.171-2.4,7.955-2.385,10.741-.426" transform="translate(287.009 81.037)" fill="url(#linear-gradient-15)"/>
        <path id="Path_66" data-name="Path 66" d="M815.117,542.915l1.285,3.38a20.132,20.132,0,0,1,1.255,7.411c0,11.38-6.94,24.6-15.5,29.529a14.577,14.577,0,0,1-3.516,1.485l-3.423,1.249L792,584.037l0,0c-3.273-1.895-5.344-6.269-5.344-12.484,0-11.381,6.94-24.6,15.5-29.529,4.171-2.4,7.955-2.385,10.741-.426" transform="translate(338.061 46.069)" fill="url(#linear-gradient-15)"/>
        <path id="Path_36" data-name="Path 36" d="M819.5,554.809c0,11.38-6.941,24.6-15.5,29.531s-15.5-.3-15.5-11.685,6.94-24.6,15.5-29.529S819.5,543.428,819.5,554.809Z" transform="translate(288.389 81.862)" fill="url(#linear-gradient-17)"/>
        <path id="Path_65" data-name="Path 65" d="M819.5,554.809c0,11.38-6.941,24.6-15.5,29.531s-15.5-.3-15.5-11.685,6.94-24.6,15.5-29.529S819.5,543.428,819.5,554.809Z" transform="translate(339.441 46.894)" fill="url(#linear-gradient-17)"/>
        <g id="Group_9" data-name="Group 9" transform="translate(1196.527 800.286)" style="isolation: isolate">
          <path id="Path_41" data-name="Path 41" d="M879.192,674.086c-2.481,1.784-4.745.779-5.057-2.245-.007-.067-.007-.135-.012-.2l-9.242.949a9.723,9.723,0,0,1-2.97,3.807c-2.481,1.784-4.744.779-5.057-2.245a10.521,10.521,0,0,1,3.926-8.706,3.791,3.791,0,0,1,2.746-.849l8.638-12.032c-.024-.138-.049-.277-.063-.426a10.519,10.519,0,0,1,3.926-8.708c2.48-1.784,4.744-.781,5.056,2.245a10.522,10.522,0,0,1-3.924,8.707,3.568,3.568,0,0,1-3.063.779l-8.409,11.711a5.555,5.555,0,0,1,.15.816c0,.033,0,.066.005.1l9.3-.954a9.664,9.664,0,0,1,2.919-3.7c2.48-1.783,4.744-.778,5.056,2.247a10.525,10.525,0,0,1-3.924,8.708" transform="translate(-856.817 -642.545)" fill="#fff"/>
        </g>
        <g id="Group_15" data-name="Group 15" transform="translate(404.125 525.907)">
          <path id="Path_42" data-name="Path 42" d="M615.943,858.841,409.033,739.469V599.554l206.91,119.373Z" transform="translate(-400.852 -410.263)" fill="url(#linear-gradient-19)"/>
          <path id="Path_43" data-name="Path 43" d="M535.6,740.5l-31.822-20.138,2.079-2.277,29.488-32.3,4.276-2.851.234-.156v0l.257,55.07" transform="translate(-337.681 -354.753)" fill="url(#linear-gradient-20)"/>
          <path id="Path_44" data-name="Path 44" d="M598.869,723.907l-4.717,3.2L417.528,640.661l-2.255-17.289,4.51-2.255Z" transform="translate(-396.691 -395.88)" fill="url(#linear-gradient-21)"/>
          <path id="Path_45" data-name="Path 45" d="M594.616,725.938v54.781L415.273,677.251V622.47Z" transform="translate(-396.691 -394.978)" fill="url(#linear-gradient-22)"/>
          <path id="Path_46" data-name="Path 46" d="M589.078,725.483v45.647l-171.431-98.9V626.578Z" transform="translate(-395.109 -392.238)" fill="url(#linear-gradient-23)"/>
          <path id="Path_47" data-name="Path 47" d="M533.175,743.629V883.544l206.94-119.495V562.517Z" transform="translate(-318.084 -434.965)" fill="url(#linear-gradient-24)"/>
          <path id="Path_48" data-name="Path 48" d="M406.917,669.133,613.859,488.02a8.187,8.187,0,0,1,11.542.77L832.31,608.162,614.627,801.379,411.485,684.141c-2.033-1.424-4.1-2.055-5.337-3.464A8.183,8.183,0,0,1,406.917,669.133Z" transform="translate(-404.125 -486)" fill="url(#linear-gradient-25)"/>
          <g id="Group_10" data-name="Group 10" transform="translate(180.84 69.259)">
            <path id="Path_49" data-name="Path 49" d="M530.75,603.832V544.992l30.21-17.444v28.847Z" transform="translate(-500.54 -527.548)" fill="url(#linear-gradient-26)"/>
            <path id="Path_50" data-name="Path 50" d="M512.625,586.388l30.21,17.444v-58.84l-30.21-17.444Z" transform="translate(-512.625 -527.548)" fill="url(#linear-gradient-27)"/>
          </g>
          <g id="Group_11" data-name="Group 11" transform="translate(173.444 32.168)">
            <path id="Path_51" data-name="Path 51" d="M530.75,559.117,568.356,537.4V518.324L530.75,540.039Z" transform="translate(-493.145 -496.609)" fill="url(#linear-gradient-28)"/>
            <path id="Path_52" data-name="Path 52" d="M508.187,537.4l37.606,21.715V540.039l-37.606-21.715Z" transform="translate(-508.187 -496.609)" fill="url(#linear-gradient-29)"/>
            <path id="Path_53" data-name="Path 53" d="M508.187,527.012,545.793,505.3,583.4,527.012l-37.606,21.715Z" transform="translate(-508.187 -505.297)" fill="url(#linear-gradient-30)"/>
            <path id="Path_54" data-name="Path 54" d="M516.474,523.821l23.795-13.74,23.795,13.74-23.795,13.74Z" transform="translate(-502.663 -502.106)" fill="url(#linear-gradient-31)"/>
            <path id="Path_55" data-name="Path 55" d="M540.268,537.561l-23.795-13.74,23.795-13.74Z" transform="translate(-502.663 -502.106)" fill="url(#linear-gradient-32)"/>
          </g>
          <g id="Group_12" data-name="Group 12" transform="translate(206.91 119.373)">
            <path id="Path_56" data-name="Path 56" d="M536.451,755.08a8.159,8.159,0,0,0,5.382-2.022L748.774,571.945A8.181,8.181,0,0,0,738,559.63L531.061,740.743a8.18,8.18,0,0,0,5.39,14.338Z" transform="translate(-528.267 -557.611)" fill="url(#linear-gradient-33)"/>
          </g>
          <g id="Group_13" data-name="Group 13" transform="translate(345.726 218.06)">
            <path id="Path_57" data-name="Path 57" d="M611.553,648.05l.005,0v-.2l.171.1,53.923-31.137-23.918,68.656,32.958,60.855-54.115,30.82-8.96-5.227-.064.184Z" transform="translate(-611.553 -616.812)" fill="url(#linear-gradient-34)"/>
          </g>
          <g id="Group_14" data-name="Group 14" transform="translate(345.731 218.278)">
            <path id="Path_58" data-name="Path 58" d="M611.556,647.762l12.777,7.517L674.69,622.2l-9.019-5.262Z" transform="translate(-611.556 -616.942)" fill="url(#linear-gradient-35)"/>
          </g>
          <path id="Path_59" data-name="Path 59" d="M671.064,744.016l-54.1,31.239V651.207l54.1-31.238Z" transform="translate(-262.22 -396.647)" fill="url(#linear-gradient-36)"/>
          <path id="Path_61" data-name="Path 61" d="M663.659,675.712l-43.521,25.131V650.581l43.521-25.13Z" transform="translate(-260.104 -392.99)" fill="url(#linear-gradient-37)"/>
          <path id="Path_62" data-name="Path 62" d="M584.2,655.643l7.3-4.216c4.853-2.8,9.364-3.451,13.114-2.267v0a15.558,15.558,0,0,1,9.049,4.744l0,0c3.652,3.432,5.87,9.413,5.87,17.37,0,17.38-10.564,37.568-23.6,45.095l-7.3,4.216c-4.42,2.552-8.555,3.316-12.092,2.537v0l-.093-.021-.083-.018a21.751,21.751,0,0,1-6.86-2.869l-.008-.012c-5.42-2.637-8.9-9.505-8.9-19.469h0C560.6,683.358,571.17,663.168,584.2,655.643Z" transform="translate(-299.796 -377.552)" fill="url(#linear-gradient-38)"/>
          <path id="Path_63" data-name="Path 63" d="M586.864,719.785l7.3-4.216c13.034-7.526,23.6-27.715,23.6-45.095h0c0-17.382-10.564-25.37-23.6-17.843l-7.3,4.216c-13.034,7.526-23.6,27.715-23.6,45.095h0C563.265,719.322,573.83,727.312,586.864,719.785Z" transform="translate(-298.022 -376.751)" fill="url(#linear-gradient-39)"/>
          <path id="Path_64" data-name="Path 64" d="M585.449,710.4l5.879-3.394c10.492-6.058,19-22.312,19-36.3h0c0-13.993-8.507-20.424-19-14.364l-5.879,3.394c-10.492,6.058-19,22.312-19,36.3h0C566.452,710.027,574.957,716.458,585.449,710.4Z" transform="translate(-295.897 -373.911)" fill="url(#linear-gradient-40)"/>
        </g>
        <path id="Path_67" data-name="Path 67" d="M815.117,542.915l1.285,3.38a20.132,20.132,0,0,1,1.255,7.411c0,11.38-6.94,24.6-15.5,29.529a14.577,14.577,0,0,1-3.516,1.485l-3.423,1.249L792,584.037l0,0c-3.273-1.895-5.344-6.269-5.344-12.484,0-11.381,6.94-24.6,15.5-29.529,4.171-2.4,7.955-2.385,10.741-.426" transform="translate(387.654 11.102)" fill="url(#linear-gradient-15)"/>
        <path id="Path_68" data-name="Path 68" d="M819.5,554.809c0,11.38-6.941,24.6-15.5,29.531s-15.5-.3-15.5-11.685,6.94-24.6,15.5-29.529S819.5,543.428,819.5,554.809Z" transform="translate(389.034 11.926)" fill="url(#linear-gradient-17)"/>
      </g>
    </g>
  </g>
</svg>
