<svg xmlns="http://www.w3.org/2000/svg" xmlns:xlink="http://www.w3.org/1999/xlink" width="327" height="218" viewBox="0 0 327 218">
  <defs>
    <filter id="Ellipse_3" x="0" y="0" width="218" height="218" filterUnits="userSpaceOnUse">
      <feOffset dy="3" input="SourceAlpha"/>
      <feGaussianBlur stdDeviation="3" result="blur"/>
      <feFlood flood-opacity="0.161"/>
      <feComposite operator="in" in2="blur"/>
      <feComposite in="SourceGraphic"/>
    </filter>
    <linearGradient id="linear-gradient" x1="-0.184" y1="0.5" x2="1.999" y2="0.5" gradientUnits="objectBoundingBox">
      <stop offset="0" stop-color="#8183be"/>
      <stop offset="1" stop-color="#8d4b9c"/>
    </linearGradient>
    <linearGradient id="linear-gradient-2" x1="0" y1="1.272" x2="1.38" y2="0.833" xlink:href="#linear-gradient"/>
    <linearGradient id="linear-gradient-3" x1="0" y1="0.5" x2="1.178" y2="0.5" xlink:href="#linear-gradient"/>
    <linearGradient id="linear-gradient-4" x1="-0.023" y1="0.394" x2="1.566" y2="0.892" gradientUnits="objectBoundingBox">
      <stop offset="0" stop-color="#83d4f6"/>
      <stop offset="1" stop-color="#fff"/>
    </linearGradient>
    <linearGradient id="linear-gradient-5" x1="5.844" y1="1.069" x2="8.183" y2="0.179" xlink:href="#linear-gradient-4"/>
    <linearGradient id="linear-gradient-6" x1="0" y1="0.5" x2="1.195" y2="0.5" xlink:href="#linear-gradient-4"/>
    <linearGradient id="linear-gradient-7" x1="-0.225" y1="0.5" x2="1.505" y2="0.5" gradientUnits="objectBoundingBox">
      <stop offset="0" stop-color="#f39254"/>
      <stop offset="0.538" stop-color="#ee716a"/>
      <stop offset="1" stop-color="#ec5a7b"/>
    </linearGradient>
    <linearGradient id="linear-gradient-8" y1="0.5" x2="1" y2="0.5" gradientUnits="objectBoundingBox">
      <stop offset="0" stop-color="#41bfbf"/>
      <stop offset="1" stop-color="#abd48d"/>
    </linearGradient>
    <linearGradient id="linear-gradient-9" y1="0.5" x2="1.144" y2="0.5" xlink:href="#linear-gradient-8"/>
  </defs>
  <g id="Group_363" data-name="Group 363" transform="translate(-131 -1686)">
    <g transform="matrix(1, 0, 0, 1, 131, 1686)" filter="url(#Ellipse_3)">
      <circle id="Ellipse_3-2" data-name="Ellipse 3" cx="100" cy="100" r="100" transform="translate(9 6)" fill="#fff"/>
    </g>
    <g id="Group_38" data-name="Group 38" transform="translate(-120.471 1386.501)">
      <path id="Path_100" data-name="Path 100" d="M515.579,545.454l37.441-21.633v.016L640,473.622l.019,6.84-87.105,50.29v-.016L515.6,552.294Z" transform="translate(-61.544 -35.795)" fill="url(#linear-gradient)"/>
      <g id="Group_32" data-name="Group 32" transform="translate(413.737 486.285)">
        <path id="Path_101" data-name="Path 101" d="M460.173,540.378l.019,6.84,40.22,23.373-.019-6.841Z" transform="translate(-460.173 -540.378)" fill="url(#linear-gradient-2)"/>
      </g>
      <g id="Group_33" data-name="Group 33" transform="translate(413.815 414.453)">
        <path id="Path_102" data-name="Path 102" d="M537.7,515.087l87.106-50.29-40.22-23.373L460.173,513.255l40.22,23.373,16.77-9.682" transform="translate(-460.173 -441.423)" fill="url(#linear-gradient-3)"/>
      </g>
      <path id="Path_103" data-name="Path 103" d="M425.8,493.082l37.441-21.633v.016l86.975-50.215.019,6.841-87.105,50.29v-.016l-37.311,21.557Z" transform="translate(-36.998 -21.498)" fill="url(#linear-gradient-4)"/>
      <g id="Group_34" data-name="Group 34" transform="translate(290.471 414.425)">
        <path id="Path_104" data-name="Path 104" d="M290.471,441.454l.019,6.841,98.235,57.166-.019-6.84Z" transform="translate(-290.471 -441.454)" fill="url(#linear-gradient-5)"/>
      </g>
      <g id="Group_35" data-name="Group 35" transform="translate(290.471 342.499)">
        <path id="Path_105" data-name="Path 105" d="M426.018,449.955l87.106-50.29L414.888,342.5,290.471,414.331,388.707,471.5l16.77-9.682" transform="translate(-290.471 -342.499)" fill="url(#linear-gradient-6)"/>
      </g>
      <g id="Group_36" data-name="Group 36" transform="translate(432.025 424.925)">
        <path id="Path_106" data-name="Path 106" d="M590.981,455.848l4.164,2.42L489.422,519.308l-4.165-2.42Z" transform="translate(-485.258 -455.848)" fill="#f3f5f7"/>
        <path id="Path_107" data-name="Path 107" d="M535.054,522.765l-33.527,19.327-4.164-2.42,33.527-19.327Z" transform="translate(-488.576 -473.526)" fill="#f3f5f7"/>
        <path id="Path_108" data-name="Path 108" d="M549.97,501.9l67.535-39.021,4.164,2.42-67.535,39.021Z" transform="translate(-502.995 -457.777)" fill="#f3f5f7"/>
        <path id="Path_109" data-name="Path 109" d="M585.084,499.777,514.06,540.783l-4.165-2.42,71.024-41.006Z" transform="translate(-492.011 -467.226)" fill="#f3f5f7"/>
      </g>
      <path id="Path_110" data-name="Path 110" d="M442.285,428.7c0,6.837-10.195,12.381-22.77,12.381s-22.77-5.544-22.77-12.381,10.194-12.38,22.77-12.38S442.285,421.863,442.285,428.7Z" transform="translate(-29.079 -20.182)" fill="url(#linear-gradient-7)"/>
      <g id="Group_37" data-name="Group 37" transform="translate(352.79 373.397)">
        <path id="Path_111" data-name="Path 111" d="M560.931,411.323l-87.439,50.3-8.448-76.638,67.586,9.909Z" transform="translate(-400.562 -384.982)" fill="url(#linear-gradient-8)"/>
        <path id="Path_112" data-name="Path 112" d="M376.215,477.733l5.947-36.223L506.031,444.2l-93.608,54.168Z" transform="translate(-376.215 -400.476)" fill="url(#linear-gradient-9)"/>
      </g>
    </g>
  </g>
</svg>
