<svg xmlns="http://www.w3.org/2000/svg" xmlns:xlink="http://www.w3.org/1999/xlink" width="300" height="300" viewBox="0 0 300 300">
  <defs>
    <linearGradient id="linear-gradient" x1="-0.076" y1="0.597" x2="1.169" y2="0.597" gradientUnits="objectBoundingBox">
      <stop offset="0" stop-color="#41bfbf"/>
      <stop offset="1" stop-color="#abd48d"/>
    </linearGradient>
    <linearGradient id="linear-gradient-2" x1="-0.455" y1="0.5" x2="1.316" y2="0.5" xlink:href="#linear-gradient"/>
    <linearGradient id="linear-gradient-3" x1="-0.095" y1="0.5" x2="1.115" y2="0.5" gradientUnits="objectBoundingBox">
      <stop offset="0" stop-color="#774198"/>
      <stop offset="0.257" stop-color="#603689"/>
      <stop offset="1" stop-color="#231961"/>
    </linearGradient>
    <linearGradient id="linear-gradient-4" x1="-1.417" x2="0.95" xlink:href="#linear-gradient-3"/>
    <linearGradient id="linear-gradient-5" x1="-106.643" x2="-105.643" xlink:href="#linear-gradient-3"/>
    <linearGradient id="linear-gradient-6" x1="-0.557" y1="0" x2="1" y2="0" xlink:href="#linear-gradient-3"/>
    <linearGradient id="linear-gradient-7" x1="-0.905" x2="1.51" xlink:href="#linear-gradient-3"/>
    <linearGradient id="linear-gradient-8" x1="-154.921" y1="0.5" x2="-153.921" y2="0.5" gradientUnits="objectBoundingBox">
      <stop offset="0" stop-color="#7a64ab"/>
      <stop offset="1" stop-color="#009cb9"/>
    </linearGradient>
    <linearGradient id="linear-gradient-9" y1="0.5" x2="1" y2="0.5" gradientUnits="objectBoundingBox">
      <stop offset="0" stop-color="#8d4b9c"/>
      <stop offset="1" stop-color="#00c0f2"/>
    </linearGradient>
    <linearGradient id="linear-gradient-10" x1="-0.153" y1="0" x2="1.339" y2="0" xlink:href="#linear-gradient-9"/>
  </defs>
  <g id="Group_369" data-name="Group 369" transform="translate(-140 -345)">
    <circle id="Ellipse_1" data-name="Ellipse 1" cx="150" cy="150" r="150" transform="translate(140 345)" fill="#dfdfdf"/>
    <g id="Group_127" data-name="Group 127" transform="translate(-525.253 -325.846)">
      <g id="Group_126" data-name="Group 126" transform="translate(722.597 720.846)">
        <path id="Path_151" data-name="Path 151" d="M850.627,986.49,735.271,919.947V841.954L850.627,908.5Z" transform="translate(-730.71 -736.49)" fill="url(#linear-gradient)"/>
        <path id="Path_152" data-name="Path 152" d="M867.672,903.411V981.4l115.373-66.61V802.453Z" transform="translate(-747.95 -731.405)" fill="url(#linear-gradient-2)"/>
        <path id="Path_153" data-name="Path 153" d="M731.593,822.93,846.872,721.972a4.56,4.56,0,0,1,6.43.43l115.262,66.543L847.3,896.65,734.136,831.3c-1.132-.794-2.284-1.145-2.973-1.93A4.564,4.564,0,0,1,731.593,822.93Z" transform="translate(-730.036 -720.846)" fill="url(#linear-gradient-3)"/>
        <g id="Group_123" data-name="Group 123" transform="translate(115.162 66.517)">
          <path id="Path_154" data-name="Path 154" d="M867,907.3a4.55,4.55,0,0,0,3-1.127L985.374,805.212a4.561,4.561,0,0,0-6.007-6.866L863.995,899.305A4.56,4.56,0,0,0,867,907.3Z" transform="translate(-862.437 -797.221)" fill="url(#linear-gradient-4)"/>
        </g>
        <g id="Group_124" data-name="Group 124" transform="translate(192.554 121.514)">
          <path id="Path_155" data-name="Path 155" d="M951.265,877.773l0,0v-.11l.1.055,30.063-17.357-13.335,38.271,18.375,33.923-30.17,17.18-5-2.914-.036.1Z" transform="translate(-951.265 -860.36)" fill="url(#linear-gradient-5)"/>
        </g>
        <g id="Group_125" data-name="Group 125" transform="translate(192.557 121.647)">
          <path id="Path_156" data-name="Path 156" d="M951.268,877.68l7.123,4.19,28.075-18.437-5.028-2.933Z" transform="translate(-951.268 -860.5)" fill="url(#linear-gradient-6)"/>
        </g>
        <path id="Path_157" data-name="Path 157" d="M987.2,932.875l-30.161,17.413V881.14L987.2,863.727Z" transform="translate(-759.454 -739.28)" fill="url(#linear-gradient-7)"/>
        <path id="Path_159" data-name="Path 159" d="M984.684,897.591,960.42,911.6V883.582l24.264-14.008Z" transform="translate(-759.889 -740.025)" fill="url(#linear-gradient-8)"/>
      </g>
      <path id="Path_160" data-name="Path 160" d="M689.133,757.093l-3.478,9.155a54.476,54.476,0,0,0-3.4,20.063c0,30.818,18.793,66.62,41.977,79.964a39.609,39.609,0,0,0,9.519,4.021l9.272,3.38,8.713-5.228,0-.007c8.863-5.129,14.474-16.976,14.474-33.8,0-30.818-18.793-66.619-41.975-79.963-11.3-6.5-21.543-6.458-29.089-1.153" transform="translate(-1.287 -3.709)" fill="url(#linear-gradient-9)"/>
      <path id="Path_161" data-name="Path 161" d="M672.253,792.31c0,30.818,18.793,66.62,41.977,79.964s41.975-.821,41.975-31.638-18.793-66.619-41.975-79.963S672.253,761.493,672.253,792.31Z" transform="translate(0 -4.48)" fill="url(#linear-gradient-10)"/>
      <path id="Path_162" data-name="Path 162" d="M735.638,828.444l-13.281-9.083V804.1l-13.628-9.322v15.26L697.7,802.5v16.511l11.03,7.544v14.2l13.628,9.315V835.87l13.277,9.08Z" transform="translate(-3.276 -9.536)" fill="#fff"/>
    </g>
  </g>
</svg>
