<svg xmlns="http://www.w3.org/2000/svg" width="196" height="154" viewBox="0 0 196 154">
  <g id="Group_117" data-name="Group 117" transform="translate(-4.666 -14.421)">
    <g id="Group_45" data-name="Group 45" transform="translate(115.212 14.421)">
      <path id="Path_134" data-name="Path 134" d="M59.607,101.1a4.316,4.316,0,0,1-4.273-4.334V18.755a4.316,4.316,0,0,1,4.273-4.334h76.908a4.316,4.316,0,0,1,4.273,4.334V96.766a18.909,18.909,0,0,1-2.181,8.059l-35.2,60.063a7.831,7.831,0,0,1-6.452,3.526l-20.605-.956a3.47,3.47,0,0,1-3.3-4.418l13.294-57.725a3.278,3.278,0,0,0-3.3-4.219Z" transform="translate(-55.334 -14.421)" fill="#f6f6f6"/>
    </g>
    <g id="Group_46" data-name="Group 46" transform="translate(4.666 14.421)">
      <path id="Path_135" data-name="Path 135" d="M8.939,101.1a4.316,4.316,0,0,1-4.273-4.334V18.755a4.316,4.316,0,0,1,4.273-4.334H85.847a4.316,4.316,0,0,1,4.273,4.334V96.766a18.9,18.9,0,0,1-2.183,8.061l-35.2,60.061a7.827,7.827,0,0,1-6.452,3.528l-20.605-.956a3.47,3.47,0,0,1-3.3-4.418l13.294-57.727a3.278,3.278,0,0,0-3.3-4.219Z" transform="translate(-4.666 -14.421)" fill="#f6f6f6"/>
    </g>
  </g>
</svg>
