<svg xmlns="http://www.w3.org/2000/svg" xmlns:xlink="http://www.w3.org/1999/xlink" width="327" height="218" viewBox="0 0 327 218">
  <defs>
    <filter id="Ellipse_1" x="0" y="0" width="218" height="218" filterUnits="userSpaceOnUse">
      <feOffset dy="3" input="SourceAlpha"/>
      <feGaussianBlur stdDeviation="3" result="blur"/>
      <feFlood flood-opacity="0.161"/>
      <feComposite operator="in" in2="blur"/>
      <feComposite in="SourceGraphic"/>
    </filter>
    <linearGradient id="linear-gradient" x1="0.187" y1="0.501" x2="1.079" y2="0.501" gradientUnits="objectBoundingBox">
      <stop offset="0" stop-color="#41bfbf"/>
      <stop offset="1" stop-color="#abd48d"/>
    </linearGradient>
    <linearGradient id="linear-gradient-2" x1="0.991" y1="0.5" x2="-0.341" y2="0.5" xlink:href="#linear-gradient"/>
    <linearGradient id="linear-gradient-3" x1="0" y1="0.5" x2="1.313" y2="0.5" xlink:href="#linear-gradient"/>
    <linearGradient id="linear-gradient-6" y1="0.5" x2="1.246" y2="0.5" gradientUnits="objectBoundingBox">
      <stop offset="0" stop-color="#8183be"/>
      <stop offset="1" stop-color="#8d4b9c"/>
    </linearGradient>
    <linearGradient id="linear-gradient-7" x1="-0.491" y1="1.438" x2="2.268" y2="0.747" gradientUnits="objectBoundingBox">
      <stop offset="0" stop-color="#8183be"/>
      <stop offset="0.844" stop-color="#8d4b9c"/>
      <stop offset="1" stop-color="#8d4b9c"/>
    </linearGradient>
    <linearGradient id="linear-gradient-8" x1="-0.045" y1="0.5" x2="1.362" y2="0.5" xlink:href="#linear-gradient-6"/>
  </defs>
  <g id="Group_362" data-name="Group 362" transform="translate(-131 -1339)">
    <g transform="matrix(1, 0, 0, 1, 131, 1339)" filter="url(#Ellipse_1)">
      <circle id="Ellipse_1-2" data-name="Ellipse 1" cx="100" cy="100" r="100" transform="translate(9 6)" fill="#fff"/>
    </g>
    <g id="Group_29" data-name="Group 29" transform="translate(108 839.488)">
      <path id="Path_69" data-name="Path 69" d="M95.383,633.424v.038c0-.012,0-.024,0-.036Z" transform="translate(-8.617 -23.007)" fill="url(#linear-gradient)"/>
      <path id="Path_77" data-name="Path 77" d="M108.35,663.359c-2.785-5.4-11.905-9.37-22.735-9.37-11.041,0-20.31,4.12-22.9,9.687L62,660.849v6.112h.006c.131,7.029,10.648,12.708,23.609,12.708s23.477-5.678,23.608-12.708h.006v-6.44Z" transform="translate(0 -28.341)" fill="url(#linear-gradient-2)"/>
      <path id="Path_78" data-name="Path 78" d="M62,658.933c0,7.091,10.573,12.84,23.615,12.84s23.614-5.749,23.614-12.84-10.572-12.84-23.614-12.84S62,651.842,62,658.933Z" transform="translate(0 -26.297)" fill="url(#linear-gradient-3)"/>
      <path id="Path_86" data-name="Path 86" d="M182.88,706.835c-2.785-5.4-11.905-9.37-22.735-9.37-11.041,0-20.31,4.12-22.9,9.687l-.72-2.827v6.112h.007c.131,7.029,10.648,12.708,23.608,12.708s23.478-5.678,23.608-12.708h.007V704Z" transform="translate(-19.373 -39.596)" fill="url(#linear-gradient-2)"/>
      <path id="Path_87" data-name="Path 87" d="M136.53,702.409c0,7.091,10.573,12.84,23.615,12.84s23.615-5.749,23.615-12.84-10.573-12.84-23.615-12.84S136.53,695.318,136.53,702.409Z" transform="translate(-19.373 -37.552)" fill="url(#linear-gradient-3)"/>
      <g id="Group_28" data-name="Group 28" transform="translate(219.355 609.69)">
        <path id="Path_88" data-name="Path 88" d="M317.916,714.5l29.708-17.164v.013l69.01-39.843.015,5.428-69.113,39.9v-.013l-29.6,17.1Z" transform="translate(-286.004 -638.964)" fill="url(#linear-gradient-6)"/>
        <g id="Group_25" data-name="Group 25" transform="translate(0 56.995)">
          <path id="Path_89" data-name="Path 89" d="M274.9,709.336l.015,5.428,31.912,18.545-.015-5.428Z" transform="translate(-274.901 -709.336)" fill="url(#linear-gradient-7)"/>
        </g>
        <g id="Group_26" data-name="Group 26" transform="translate(0 0)">
          <path id="Path_90" data-name="Path 90" d="M336.417,690.96l69.114-39.9-31.912-18.545L274.9,689.507l31.912,18.545,13.306-7.682" transform="translate(-274.901 -632.512)" fill="url(#linear-gradient-8)"/>
        </g>
        <g id="Group_27" data-name="Group 27" transform="translate(14.448 8.308)">
          <path id="Path_91" data-name="Path 91" d="M378.262,643.711l3.3,1.92L297.68,694.063l-3.3-1.92Z" transform="translate(-294.376 -643.711)" fill="#f3f5f7"/>
          <path id="Path_92" data-name="Path 92" d="M333.68,695.7l-26.6,15.335-3.3-1.92,26.6-15.335Z" transform="translate(-296.802 -656.636)" fill="#f3f5f7"/>
          <path id="Path_93" data-name="Path 93" d="M344.616,680.134,398.2,649.172l3.3,1.92L347.92,682.054Z" transform="translate(-307.344 -645.121)" fill="#f3f5f7"/>
          <path id="Path_94" data-name="Path 94" d="M373.162,677.857l-56.354,32.536-3.3-1.92,56.354-32.536Z" transform="translate(-299.313 -652.029)" fill="#f3f5f7"/>
        </g>
      </g>
      <g id="Group_30" data-name="Group 30" transform="translate(163.183 577.101)">
        <path id="Path_88-2" data-name="Path 88" d="M317.916,714.5l29.708-17.164v.013l69.01-39.843.015,5.428-69.113,39.9v-.013l-29.6,17.1Z" transform="translate(-286.004 -638.964)" fill="url(#linear-gradient-6)"/>
        <g id="Group_25-2" data-name="Group 25" transform="translate(0 56.995)">
          <path id="Path_89-2" data-name="Path 89" d="M274.9,709.336l.015,5.428,31.912,18.545-.015-5.428Z" transform="translate(-274.901 -709.336)" fill="url(#linear-gradient-7)"/>
        </g>
        <g id="Group_26-2" data-name="Group 26" transform="translate(0 0)">
          <path id="Path_90-2" data-name="Path 90" d="M336.417,690.96l69.114-39.9-31.912-18.545L274.9,689.507l31.912,18.545,13.306-7.682" transform="translate(-274.901 -632.512)" fill="url(#linear-gradient-8)"/>
        </g>
        <g id="Group_27-2" data-name="Group 27" transform="translate(14.448 8.308)">
          <path id="Path_91-2" data-name="Path 91" d="M378.262,643.711l3.3,1.92L297.68,694.063l-3.3-1.92Z" transform="translate(-294.376 -643.711)" fill="#f3f5f7"/>
          <path id="Path_92-2" data-name="Path 92" d="M333.68,695.7l-26.6,15.335-3.3-1.92,26.6-15.335Z" transform="translate(-296.802 -656.636)" fill="#f3f5f7"/>
          <path id="Path_93-2" data-name="Path 93" d="M344.616,680.134,398.2,649.172l3.3,1.92L347.92,682.054Z" transform="translate(-307.344 -645.121)" fill="#f3f5f7"/>
          <path id="Path_94-2" data-name="Path 94" d="M373.162,677.857l-56.354,32.536-3.3-1.92,56.354-32.536Z" transform="translate(-299.313 -652.029)" fill="#f3f5f7"/>
        </g>
      </g>
      <g id="Group_31" data-name="Group 31" transform="translate(107.751 544.512)">
        <path id="Path_88-3" data-name="Path 88" d="M317.916,714.5l29.708-17.164v.013l69.01-39.843.015,5.428-69.113,39.9v-.013l-29.6,17.1Z" transform="translate(-286.004 -638.964)" fill="url(#linear-gradient-6)"/>
        <g id="Group_25-3" data-name="Group 25" transform="translate(0 56.995)">
          <path id="Path_89-3" data-name="Path 89" d="M274.9,709.336l.015,5.428,31.912,18.545-.015-5.428Z" transform="translate(-274.901 -709.336)" fill="url(#linear-gradient-7)"/>
        </g>
        <g id="Group_26-3" data-name="Group 26">
          <path id="Path_90-3" data-name="Path 90" d="M336.417,690.96l69.114-39.9-31.912-18.545L274.9,689.507l31.912,18.545,13.306-7.682" transform="translate(-274.901 -632.512)" fill="url(#linear-gradient-8)"/>
        </g>
        <g id="Group_27-3" data-name="Group 27" transform="translate(14.448 8.308)">
          <path id="Path_91-3" data-name="Path 91" d="M378.262,643.711l3.3,1.92L297.68,694.063l-3.3-1.92Z" transform="translate(-294.376 -643.711)" fill="#f3f5f7"/>
          <path id="Path_92-3" data-name="Path 92" d="M333.68,695.7l-26.6,15.335-3.3-1.92,26.6-15.335Z" transform="translate(-296.802 -656.636)" fill="#f3f5f7"/>
          <path id="Path_93-3" data-name="Path 93" d="M344.616,680.134,398.2,649.172l3.3,1.92L347.92,682.054Z" transform="translate(-307.344 -645.121)" fill="#f3f5f7"/>
          <path id="Path_94-3" data-name="Path 94" d="M373.162,677.857l-56.354,32.536-3.3-1.92,56.354-32.536Z" transform="translate(-299.313 -652.029)" fill="#f3f5f7"/>
        </g>
      </g>
      <path id="Path_95" data-name="Path 95" d="M259.133,751.313c-2.785-5.4-11.905-9.37-22.735-9.37-11.041,0-20.31,4.12-22.9,9.687l-.72-2.827v6.111h.006c.131,7.03,10.649,12.708,23.609,12.708s23.478-5.678,23.608-12.708h.007v-6.44Z" transform="translate(-39.194 -51.111)" fill="url(#linear-gradient-2)"/>
      <path id="Path_96" data-name="Path 96" d="M212.783,746.887c0,7.091,10.573,12.84,23.615,12.84s23.615-5.749,23.615-12.84-10.573-12.84-23.615-12.84S212.783,739.8,212.783,746.887Z" transform="translate(-39.194 -49.073)" fill="url(#linear-gradient-3)"/>
      <path id="Path_97" data-name="Path 97" d="M103.1,662.864l-4.629,2.672-8.936-5.159q-1.628-.939-2.909-1.759a4.722,4.722,0,0,1,.023,1.24l-.335,2.019-5.276-.313,1.074-6.072,4.11-2.373Z" transform="translate(-4.913 -28.109)" fill="#fff"/>
      <path id="Path_98" data-name="Path 98" d="M178.5,704.283l-12.567,7.256-3.079-1.778-.047-4.91a23.827,23.827,0,0,0-.219-2.862,3.053,3.053,0,0,0-.415-1.135,2.442,2.442,0,0,0-.823-.729,2.765,2.765,0,0,0-1.5-.362,3.428,3.428,0,0,0-1.622.486,2.856,2.856,0,0,0-1.185,1.223,6.038,6.038,0,0,0-.51,1.887l-5.579-.253a6.98,6.98,0,0,1,.539-2.287,5.723,5.723,0,0,1,1.2-1.6,10.882,10.882,0,0,1,2.138-1.548,12.515,12.515,0,0,1,3.594-1.392,11.242,11.242,0,0,1,3.737-.208,8.193,8.193,0,0,1,3.186,1,7.166,7.166,0,0,1,1.628,1.234,4.345,4.345,0,0,1,.912,1.436,5.766,5.766,0,0,1,.344,1.832,39.622,39.622,0,0,1-.254,4.2l.119.068,6.549-3.782Z" transform="translate(-23.111 -39.209)" fill="#fff"/>
      <path id="Path_99" data-name="Path 99" d="M241.589,741.937a3.059,3.059,0,0,1,1.737,2.11,3.128,3.128,0,0,1-1.137,2.542l.069.041q4.757-2.133,8.22-.134,2.355,1.359,1.841,3.216t-3.827,3.769a22.487,22.487,0,0,1-2.719,1.343,24.827,24.827,0,0,1-3.226,1.036l-3.787-2.186a20.415,20.415,0,0,0,3.094-.82,14.654,14.654,0,0,0,2.39-1.067,4.13,4.13,0,0,0,1.766-1.506q.266-.64-.634-1.16a2.9,2.9,0,0,0-1.426-.41,5.067,5.067,0,0,0-1.72.34,14.068,14.068,0,0,0-2.269,1.09l-1.039.6-3.428-1.979,1.062-.614q3.474-2.006,1.7-3.033a2.325,2.325,0,0,0-1.507-.277,4.619,4.619,0,0,0-1.7.61,5.067,5.067,0,0,0-2.263,2.56l-4.942-.667A5.89,5.89,0,0,1,229.264,745a14.787,14.787,0,0,1,7.972-3.856A7.07,7.07,0,0,1,241.589,741.937Z" transform="translate(-43.082 -50.891)" fill="#fff"/>
    </g>
  </g>
</svg>
